<?xml version="1.0" encoding="utf-8"?>
<!-- Generator: Adobe Illustrator 21.0.0, SVG Export Plug-In . SVG Version: 6.00 Build 0)  -->
<svg version="1.1" id="Layer_1" xmlns="http://www.w3.org/2000/svg" xmlns:xlink="http://www.w3.org/1999/xlink" x="0px" y="0px"
	 viewBox="0 0 663.7 544.1" style="enable-background:new 0 0 663.7 544.1;" xml:space="preserve">
<g>
	<path d="M456.4,449.9c-0.1-1-0.3-1.9-0.3-2.7c0-21,0-41.9,0-62.9c0-5-2-9.1-5.4-12.4c-2.8-2.7-6.5-4-10.4-4.2c-1.2-0.1-2.4,0-3.6,0
		c-72.6,0-145.3,0-217.9,0c-2.9,0-5.8,0.2-8.5,1.2c-1.8,0.7-3.6,1.8-5,3.1c-3.4,3.1-5.4,7-5.3,11.8c0.1,4.5,0,9,0,13.4
		c0,16.6,0,33.1,0,49.7c0,0.4,0,0.8,0,1.2c-0.1,1.5-0.3,1.8-1.8,1.9c-0.5,0-1,0-1.4,0c-39,0-77.9,0-116.9-0.1
		c-4.6,0-9.3-0.3-13.8-1.2c-4.6-1-9.3-1.8-13.6-4c-3.3-1.7-6.9-3-10.2-4.7c-5.1-2.7-9.6-6.1-14-9.8c-3.8-3.3-7.2-6.9-10.4-10.8
		c-2.7-3.3-5.1-6.7-7-10.5c-1.8-3.5-3.8-7-5.3-10.6c-1.5-3.8-2.6-7.7-3.6-11.7c-1.5-6.2-2-12.6-2-19c0.1-20.5,0-41,0-61.4
		c0-8.1,1.2-16,3.9-23.8c1.9-5.7,4-11.2,7.1-16.4c3.7-6.3,8-12.2,13.4-17.2c3-2.7,5.8-5.6,9.1-7.9c5.7-3.9,11.5-7.7,18.2-9.9
		c2.8-0.9,5.6-1.9,8.4-2.8c6.2-1.9,12.5-2.7,18.9-2.8c2.8-0.1,5.6-0.1,8.4-0.1c164.4,0,328.8,0,493.2,0c4.5,0,9,0.1,13.4,0.8
		c4.8,0.8,9.5,2.2,14.1,3.5c2.5,0.7,5,1.7,7.4,2.7c1.4,0.6,2.6,1.5,3.9,2.1c5,2.2,9.4,5.4,13.5,8.8c6.3,5.2,12.1,11.1,16.6,18.1
		c2.2,3.4,4,6.9,5.9,10.4c3.1,5.8,4.9,12.1,6.3,18.4c1.5,6.7,1.9,13.6,1.9,20.5c-0.1,19,0,37.9,0,56.9c0,3.4-0.1,6.7-0.5,10.1
		c-0.4,3.4-1.4,6.7-1.9,10.1c-0.6,4.4-2.4,8.4-4,12.5c-1.2,2.9-2.7,5.7-4.2,8.5c-1.2,2.3-2.6,4.6-4.1,6.7
		c-3.1,4.2-6.3,8.4-10.3,11.9c-2.5,2.2-4.9,4.5-7.5,6.6c-2.3,1.8-4.7,3.5-7.3,5c-4.4,2.6-8.9,4.9-13.8,6.6c-3.4,1.2-6.9,2.3-10.5,3
		c-2.4,0.5-4.8,1.3-7.2,1.5c-3,0.3-6.1,0.4-9.1,0.4c-6.7,0.1-13.4,0-20.2,0c-34.1,0-68.2,0-102.2,0
		C459.5,449.9,458,449.9,456.4,449.9z M368.2,300.7c0.2-19.4-16.5-37.2-38.3-36.2c-18.9,0.8-34.8,16.9-34.7,36.6
		c0.1,20.6,16.4,36.5,36.4,36.6C351.6,337.8,368.9,321.1,368.2,300.7z"/>
	<path d="M322.1,98.3c0-28.2,0-56.3,0-84.5c0-1.8,0.1-3.5,0-5.3c0-5.4,5.9-9.3,9.9-8.5c2.3,0.4,4.6,0.7,6.2,2.6c0.4,0.5,1,1,1.2,1.6
		c1,2.3,1.3,4.7,1.3,7.3c0,58,0,116,0,174c0,2.2-0.2,4.3-1,6.3c-1.2,2.9-3.5,4.2-6.4,4.8c-3.2,0.7-6.1-0.2-8.5-2.2
		c-1.6-1.4-2.6-3.4-2.8-5.7c-0.1-1.5-0.1-3-0.1-4.6C322.1,155.6,322.1,127,322.1,98.3z"/>
	<path d="M443.4,122.8c3.7-0.1,6.3,1.5,7.9,4.4c0.8,1.4,1.5,2.8,1.8,4.4c0.5,2.8-0.8,5.2-2.7,7.1c-3.2,3.4-6.4,6.7-9.7,9.9
		c-4,4-8.2,7.8-12.2,11.8c-3.9,3.9-7.6,7.9-11.5,11.8c-0.9,1-2,1.8-2.9,2.8c-5.5,5.5-11,11-16.5,16.5c-1.3,1.3-2.8,2.6-4.2,3.9
		c-3.3,2.9-9.1,2.6-12.6-2.3c-0.6-0.8-1.2-1.7-1.6-2.6c-1.3-3.3-0.4-6.3,2-8.8c2.3-2.4,4.7-4.8,7-7.2c8.5-8.6,17.1-17.1,25.7-25.7
		c6.3-6.4,12.7-12.7,19-19.1c1.5-1.5,2.9-3,4.4-4.4C439,123.6,441.1,122.5,443.4,122.8z"/>
	<path d="M220.5,122.8c2.1-0.3,4,0.9,5.6,2.4c2.9,2.8,5.6,5.6,8.4,8.5c9.8,9.7,19.6,19.5,29.4,29.2c6,6,12,12,17.9,18.2
		c1.3,1.4,2.2,3.3,3,5.1c0.7,1.5-0.1,2.9-0.6,4.4c-1.9,5.1-6.5,7.4-11.5,6.1c-1.6-0.4-3.1-1.5-4.4-2.7c-4.8-4.6-9.4-9.3-14-14
		c-3.6-3.7-7.2-7.4-10.9-11c-4.7-4.7-9.4-9.3-14-13.9c-2.3-2.3-4.6-4.6-6.9-6.9c-3.2-3.2-6.4-6.4-9.6-9.6c-2.5-2.6-3.7-6.3-1.5-10.3
		C213.3,124.9,216,122.6,220.5,122.8z"/>
	<path d="M80.9,501.8c-1.3,0.9-1.5,1.8-1.7,2.8c-1.3,7.5-2.6,14.9-4,22.4c-0.8,4.5-1.6,9.1-2.4,13.6c-0.1,0.3-0.1,0.6-0.2,0.9
		c-0.1,0.3-0.1,0.6-0.3,0.9c-1.1,2.5-3.3,1.3-5.1,1.3c-1.4,0.1-1.7-0.6-2-2.2c-1.3-7.5-2.7-15.1-4-22.6c-0.8-4.9-1.6-9.7-2.4-14.6
		c-0.4-2-0.9-4-1.3-6.1c-0.2-1.1-0.3-2.1-0.5-3.4c0.9-0.1,1.5-0.3,2.1-0.3c1.1,0,1.7,0.6,1.9,1.7c1.4,7.9,2.8,15.9,4.2,23.8
		c0.9,4.9,1.8,9.7,2.7,14.6c0,0.2,0,0.5,0.1,0.7c0.3,0.3,0.6,0.6,0.9,0.9c0.3-0.3,0.7-0.6,0.9-1c0.2-0.4,0.2-0.9,0.3-1.4
		c1.2-6.8,2.4-13.7,3.7-20.5c1-5.7,2-11.3,3.1-16.9c0-0.2,0-0.3,0.1-0.5c1.1-2.3,3.2-1.3,4.9-1.4c1.5-0.1,1.8,0.5,2.1,2.1
		c0.9,4.9,1.8,9.7,2.6,14.6c0.8,4.2,1.5,8.5,2.2,12.7c0.8,4.1,1.5,8.3,2.3,12.4c1.4,0.3,1.7-0.5,1.9-1.4c0.2-1.6,0.5-3.1,0.8-4.7
		c0.4-2.6,0.8-5.2,1.2-7.8c0.5-2.8,1.1-5.6,1.7-8.4c0.3-1.8,0.6-3.6,0.9-5.4c0.7-4,1.5-8,2.1-12c0.2-1.1,0.5-2,1.8-2.1
		c1.5-0.2,2.1,0.4,1.9,1.9c-0.8,4.5-1.6,8.9-2.4,13.4c-1.4,7.9-2.8,15.7-4.2,23.6c-0.5,3-1.2,5.9-1.8,8.9c-0.1,0.3-0.1,0.7-0.3,0.9
		c-1.5,1.1-3.2,0.6-4.9,0.5c-1.1,0-1.4-1-1.5-1.9c-0.3-1.5-0.5-3-0.8-4.5c-1.1-5.9-2.2-11.8-3.3-17.6c-0.8-4.6-1.6-9.2-2.4-13.9
		C81.7,504.7,81.3,503.3,80.9,501.8z"/>
	<path d="M16.5,537.3c1.3-1.5,1.7-2.9,1.9-4.4c0.8-4.4,1.6-8.8,2.4-13.2c0.4-2.1,0.7-4.2,1.1-6.3c0.6-3.1,1.2-6.3,1.8-9.4
		c0.4-2.4,0.8-4.9,1.2-7.3c0.2-1.3,0.8-1.9,2-1.9c1,0,1.9,0,2.9,0.1c1.5,0.1,1.9,0.6,2.1,2.1c1.1,6.4,2.1,12.7,3.2,19.1
		c1,5.6,1.9,11.1,2.9,16.7c0.3,1.5,0.7,2.9,1.2,4.6c1.3-0.8,1.5-1.8,1.7-2.9c0.8-4.7,1.5-9.5,2.3-14.2c0.7-4.2,1.6-8.3,2.4-12.4
		c0.7-3.7,1.4-7.4,2.1-11c0.2-1,0.5-1.8,1.7-1.9c1.7-0.1,2.2,0.4,1.9,2.1c-0.6,3.3-1.3,6.6-1.9,9.9c-0.6,3.4-1.1,6.8-1.7,10.2
		c-0.9,5.3-1.9,10.7-2.9,16c-0.6,3-1.2,6.1-1.7,9.1c-0.3,1.5-0.6,2-2.2,2c-4.9,0.2-4.7-0.1-5.1-4.1c-0.2-1.7-0.6-3.3-1-4.9
		c-1.5-8-3-16-4.5-24c-0.4-2.3-0.7-4.6-1.1-6.9c-0.1-0.7-0.4-1.5-0.7-2.2c-0.2,0-0.4,0-0.6-0.1c-0.3,0.7-0.8,1.3-0.9,2
		c-0.8,4.4-1.5,8.8-2.3,13.2c-0.7,3.6-1.4,7.2-2.1,10.8c-0.6,3.5-1.1,7.1-1.8,10.6c-0.2,1.4-0.5,2.9-1,4.2c-0.9,2.3-3,1.2-4.6,1.3
		c-1.5,0.1-2-0.4-2.2-1.9c-0.3-2-0.6-4.1-1-6.1c-0.9-4.8-1.9-9.7-2.8-14.5c-0.8-4.4-1.4-8.8-2.2-13.2c-0.6-3.4-1.4-6.9-2-10.3
		c0-0.2-0.1-0.5-0.1-0.7c-0.3-1.7,0-2.2,1.2-2.3c1.5-0.2,2.6,0.4,2.8,1.8c0.7,4.2,1.3,8.5,2,12.7c0.3,1.8,0.8,3.6,1.1,5.4
		c0.6,3.4,1.2,6.8,1.8,10.1c0.7,3.7,1.4,7.4,2.1,11.1C16.1,536.3,16.3,536.6,16.5,537.3z"/>
	<path d="M119.8,537.7c0.5-1,1-1.9,1.2-2.8c1.8-9.3,3.4-18.7,5.1-28c0.6-3.4,1.2-6.7,1.8-10.1c0.3-1.7,0.5-1.8,2.2-2
		c4.2-0.3,4.5-0.1,5.2,4.1c0.8,4.8,1.8,9.6,2.6,14.4c0.8,4.2,1.5,8.5,2.2,12.7c0.6,3.1,1.2,6.3,1.8,9.4c0.1,0.4,0.3,0.9,0.5,1.4
		c1.4-0.6,1.6-1.7,1.8-2.9c0.9-4.9,1.7-9.9,2.6-14.8c0.8-4.6,1.6-9.3,2.4-13.9c0.5-2.7,0.9-5.4,1.3-8c0.3-1.7,0.9-2.3,2.3-2.3
		c1.2,0,1.9,0.5,1.7,1.7c-0.6,3.6-1.3,7.2-2,10.8c-0.4,2-0.8,3.9-1.1,5.9c-1.5,8.3-2.9,16.7-4.4,25c-0.2,1.3-0.5,2.5-0.8,3.7
		c-0.4,1.6-0.8,2-2.4,2.1c-0.3,0-0.6,0-1,0c-3.1,0-3.2-0.2-3.6-3.3c-0.3-2.2-0.7-4.4-1.1-6.6c-1-5.7-2.1-11.3-3.1-17
		c-1-5.2-2-10.3-3-15.8c-1.1,0.9-1.6,1.9-1.8,3c-1,5.8-2,11.6-3,17.4c-1.2,6.7-2.5,13.3-3.7,20c-0.3,1.8-0.7,2.1-2.5,2.2
		c-0.2,0-0.3,0-0.5,0c-3.7,0-3.7,0-4.3-3.8c-0.8-4.5-1.8-8.9-2.6-13.3c-0.5-2.5-0.7-5.1-1.2-7.6c-1-5.6-2.1-11.1-3.1-16.7
		c-0.3-1.7-0.7-3.4-1-5.1c-0.3-1.5,0-2.3,1-2.6c1.4-0.4,2.5,0.2,2.8,1.7c0.7,3.6,1.4,7.2,2,10.8c0.8,4.6,1.5,9.3,2.4,13.9
		c0.9,5.2,2,10.5,3,15.7C119.3,537.2,119.5,537.3,119.8,537.7z"/>
	<path d="M348.7,501.7c0.7-0.7,1.4-1.2,1.8-1.9c3.4-4.8,10.1-6,15.2-4.2c5.4,2,8.3,7.7,8.3,13c0,9.2,0,18.4,0,27.6c0,2,0.1,4,0,6
		c0,1.5-0.4,1.8-1.6,1.8c-1.2,0-1.7-0.4-1.8-1.7c-0.1-1.6,0.1-3.2,0.1-4.8c0-6.9,0.1-13.8,0.1-20.6c0-3.4-0.2-6.7-0.5-10.1
		c-0.2-3.4-1.9-5.9-4.9-7.4c-0.7-0.4-1.5-0.6-2.2-0.7c-1.1-0.1-2.2,0-3.4-0.1c-3.7-0.3-7.1,2.1-8.4,5.8c-0.5,1.5-1,3.1-1,4.7
		c-0.1,10.2-0.1,20.5-0.1,30.7c0,0.8,0.3,1.6,0.3,2.4c0,1.1-0.7,1.8-1.8,1.8c-1.2,0-1.8-0.5-1.9-1.7c-0.1-1.5,0-3,0-4.6
		c0-9.5,0-19-0.1-28.6c0-2.3-0.6-4.6-1.8-6.6c-1.3-2.3-3.3-3.7-5.9-3.9c-1.2-0.1-2.4,0-3.6-0.1c-3.8-0.3-7.4,3.5-8.2,6.8
		c-0.4,1.8-0.6,3.6-0.6,5.4c0,10.2,0,20.3,0.1,30.5c0,0.4,0,0.8-0.1,1.2c-0.2,0.9-0.7,1.4-1.7,1.4c-1,0-1.7-0.5-1.9-1.5
		c-0.1-0.4-0.1-0.8-0.1-1.2c0-14.6,0-29.3,0-43.9c0-0.1,0-0.2,0-0.2c0-1.7,0.4-2.3,1.6-2.4c1.3-0.1,1.7,0.4,2,2.3
		c0.1,0.6,0.3,1.3,0.8,1.6c0.7,0.4,1.3-0.1,1.9-0.6c2.3-2,4.7-3.4,7.9-3.3c4,0.2,7.1,1.8,9.5,5C347.4,500.3,348,500.9,348.7,501.7z"
		/>
	<path d="M461.2,509c0-10.4,0-20.8,0-31.2c0-0.6,0-1.1,0-1.7c0-1.1,0.6-1.6,1.7-1.6c1.1,0,1.6,0.5,1.7,1.6c0,0.2,0,0.5,0,0.7
		c0,6.1-0.1,12.1-0.1,18.2c0,1.1-0.7,2.6,0.7,3.3c1.2,0.6,2.1-0.5,2.9-1.1c2.5-1.8,5.3-2.5,8.3-2.6c6.9-0.2,13.9,6.6,13.8,13.7
		c-0.2,10.4,0,20.8,0,31.2c0,0.9,0.1,1.8,0,2.6c-0.1,1.3-0.6,1.8-1.8,1.7c-1.1,0-1.8-0.6-1.9-1.7c0-0.8,0.1-1.6,0.1-2.4
		c0-10.2,0-20.3,0-30.5c0-2.7-0.5-5.2-2.4-7.3c-1.8-2.1-4-3.4-6.8-3.4c-0.7,0-1.4,0-2.2,0c-6.1-0.4-10.6,4.6-10.7,10.6
		c0,10.5,0,20.9,0,31.4c0,0.6,0,1.3,0,1.9c-0.1,0.9-0.7,1.4-1.6,1.4c-0.9,0-1.6-0.4-1.7-1.4c-0.1-0.5-0.1-1.1-0.1-1.7
		C461.1,530.3,461.1,519.7,461.2,509C461.1,509,461.1,509,461.2,509z"/>
	<path d="M413.4,520.4c0,3.2-0.1,6.4,0,9.6c0.1,2.5,0.5,5.1,0.8,7.6c0.1,0.5,0.4,1,0.7,1.4c0.3,0.4,0.8,0.8,1.2,1.1
		c1.5,1.2,1.8,2.1,1.1,3.2c-0.6,0.9-1.7,1-3.1-0.1c-0.9-0.7-1.7-1.6-2.4-2.6c-1-1.3-1.6-1.5-2.9-0.4c-3.2,2.8-7,4-11.2,3.8
		c-5.3-0.3-9.2-3-11.6-7.4c-3-5.4-3.1-10.2,1.5-15.5c3.4-3.9,9.6-6.4,16-4.3c0.4,0.1,0.9,0.4,1.2,0.7c0.6,0.5,1.3,1.1,0.8,2
		c-0.5,1-1.4,1.5-2.4,1c-1.8-0.9-3.8-0.7-5.6-0.6c-2.3,0.1-4.4,0.8-6.2,2.2c-1.9,1.4-3.1,3.3-3.4,5.8c-0.4,3.8,0.2,7.1,3.3,9.8
		c1.2,1.1,2.5,2,4.1,2.2c2.9,0.5,5.8,0.9,8.7-0.5c3.1-1.6,5.1-4,5.7-7.5c0.2-1,0.3-2.1,0.3-3.1c0-6.6,0.1-13.1-0.1-19.7
		c0-1.9-0.5-3.9-1.2-5.5c-1.4-3-4.1-4.5-7.4-5c-0.7-0.1-1.4,0-2.2-0.1c-3-0.3-5.6,0.8-7.9,2.7c-0.2,0.2-0.5,0.4-0.8,0.6
		c-1,0.7-1.8,0.4-2.6-0.3c-0.6-0.6-0.4-1.9,0.5-2.5c2-1.4,3.8-3.2,6.3-3.7c4.4-0.9,8.7-0.8,12.6,1.9c3.9,2.7,6,6.3,6.1,11
		C413.5,512.3,413.4,516.4,413.4,520.4C413.4,520.4,413.4,520.4,413.4,520.4z"/>
	<path d="M523.4,495.2c0,1.2,0,2.6,0,4c1.4,0.1,2.3-0.5,3.2-1.2c5.9-4.8,12.2-4.1,17.7,0.2c3.2,2.5,4.9,6.3,4.9,10.5
		c0,9.4,0,18.7,0,28.1c0,1.7,0.1,3.4,0,5c0,1.7-0.5,2.2-1.8,2.2c-1.5,0-1.9-0.5-1.9-2.3c0-10.9,0-21.7,0-32.6c0-2.3-0.1-4.5-1.7-6.3
		c-2.3-2.6-5-4.2-8.7-4.2c-4.1,0-7.3,1.3-9.7,4.5c-1.3,1.7-1.9,3.7-1.9,5.8c-0.1,10.8,0,21.6,0,32.4c0,0.4,0,0.8,0,1.2
		c0,0.9-0.5,1.5-1.4,1.6c-1,0.1-1.7-0.4-1.9-1.4c-0.1-0.5-0.1-1.1-0.1-1.7c0-14.5,0-29.1,0-43.6
		C520.1,494.9,520.6,494.5,523.4,495.2z"/>
	<path d="M584.8,538.3c-2.8,3.7-6.6,5.5-11.3,5.7c-3.9,0.1-7.4-0.9-10.3-3.6c-2.8-2.6-4.4-5.9-4.5-9.7c-0.1-7.4-0.3-14.9,0-22.3
		c0.3-7.3,4.5-11.8,11-13.3c7.7-1.8,15.2,2.3,17.5,10.2c1.2,4.2,0.4,7.8-1.8,11.3c-0.7,1.1-1.8,2-2.9,2.8c-2.8,2-5.8,3.6-9.4,3.3
		c-1.5-0.1-3,0-4.6,0c-1.5,0-2.2-0.7-2.1-2c0-1.2,0.7-1.8,2.3-1.8c1.8,0,3.7-0.1,5.5,0c2.6,0.1,4.7-1,6.7-2.6
		c1.9-1.5,2.8-3.4,3.2-5.6c0.5-2.3,0.3-4.7-0.9-6.8c-1.7-3-4.3-4.8-7.8-5.2c-1.1-0.1-2.2,0-3.4-0.1c-5.9-0.5-10,5-10,9.9
		c0,7,0,14.1,0,21.1c0,2.8,0.8,5.2,2.7,7.5c1.4,1.8,3.3,2.5,5.3,2.9c3.1,0.6,6.2,0.4,9.1-1.1c0.5-0.2,0.9-0.6,1.3-1
		C582.2,536.2,582.9,536.3,584.8,538.3z"/>
	<path d="M621,498.6c0,1.3,0,2.2,0,3c0,13.1,0,26.2,0,39.3c0,0.6,0,1.1-0.1,1.7c-0.2,1.1-1,1.4-1.9,1.4c-1,0-1.8-0.3-1.8-1.4
		c0-0.6,0-1.1,0-1.7c0-13,0-26.1,0-39.1c0-0.9-0.1-1.9-0.1-3c-0.9-0.1-1.5-0.2-2.2-0.3c-1.1-0.1-1.5-0.9-1.6-1.8
		c-0.1-1,0.4-1.6,1.4-1.9c2.5-0.7,2.6-0.7,2.6-3.3c0-3.2,0.3-6.3,1.9-9.2c1.6-3,3.9-5.1,7-6.6c2-1,4.1-1.2,6.3-1.1
		c0.7,0,1.5,0.2,1.6,1.1c0.1,1-0.3,1.7-1.4,1.9c-0.9,0.2-1.7,0.7-2.5,0.7c-3.4,0.2-5.5,2.5-7.5,4.7c-0.7,0.8-1.1,2.2-1.3,3.3
		c-0.2,2.2-0.2,4.5-0.2,6.7c0,1.1,0.7,1.7,1.9,1.7c1.2,0,2.4,0,3.6,0c0.6,0,1.1,0,1.7,0c1,0.1,1.7,0.6,1.8,1.6
		c0.1,0.9-0.8,2.1-1.8,2.2c-0.9,0.1-1.8,0-2.6,0C624.1,498.6,622.8,498.6,621,498.6z"/>
	<path d="M272.3,502.5c-0.7-0.5-1.4-1-2.1-1.6c-1.6-1.3-3.3-2.3-5.4-2.2c-1,0-1.9,0-2.9-0.1c-5.6-0.4-10.2,4.8-10.1,10.1
		c0.2,6.9,0.1,13.7,0,20.6c0,3.5,1,6.4,3.5,8.8c0.3,0.3,0.7,0.7,1.1,0.9c3.3,1.6,10,2.6,14.1-1.5c1.2-1.2,2-1,3.6,0.7
		c-0.9,2.2-2.9,3.4-4.8,4.3c-4.1,1.9-8.4,2.2-12.7,0.3c-3.9-1.7-6.2-4.6-7.6-8.6c-0.8-2.2-0.9-4.3-0.9-6.6c0-6.4,0.1-12.8,0.1-19.2
		c0-6.7,6.4-13.8,13.8-13.8c4.1,0,7.6,1.4,10.8,3.9C274.6,500,274.5,500.9,272.3,502.5z"/>
	<path d="M181,519c0,4.2-0.2,8.3,0,12.5c0.2,4.2,3.8,8,8,8.6c2.8,0.4,5.8,0.7,8.4-1c0.7-0.4,1.2-0.9,1.9-1.3
		c0.7-0.4,1.4-0.9,2.1-0.9c0.6,0,1.2,0.6,1.6,1.2c0.2,0.3-0.1,1.1-0.5,1.5c-3.4,3.7-10.5,5.4-15.4,3.9c-5.5-1.6-10.2-8.2-10-14
		c0.2-7,0-13.9,0.1-20.9c0.1-7.2,5.9-13.1,13-13.7c4.6-0.4,8.5,0.9,11.8,4c0.4,0.4,0.8,0.9,0.9,1.4c0.4,1.1-0.8,2.3-1.9,2
		c-0.4-0.1-0.8-0.3-1-0.6c-3.1-3.6-7.2-3.4-11.3-2.9c-4.5,0.6-7.8,4.9-7.8,9.2c-0.1,3.7,0,7.4,0,11C180.9,519,181,519,181,519z"/>
	<path d="M450.9,538.4c-1.3,1.8-3,3-4.8,4c-6.8,3.7-15.5,1.2-19.2-5c-1.5-2.4-2.3-5.1-2.3-8c0-7.2,0-14.4,0.1-21.6
		c0-5,5.4-12.1,11.4-12.9c4.7-0.7,8.9,0.4,12.7,3.1c0.7,0.5,1.2,1.2,1.6,2c0.4,0.7,0.3,1.4-0.5,1.9c-0.7,0.5-1.4,0.6-2.2-0.1
		c-0.6-0.6-1.2-1.4-2-1.7c-4.6-2.3-9.1-2.4-13.5,0.6c-2.7,1.9-3.9,4.7-4,7.8c-0.2,7.1-0.2,14.2,0,21.4c0.2,5.7,4.2,10.7,10.7,10.5
		c2.2-0.1,4.3-0.1,6.2-1.3c0.6-0.4,1.2-0.8,1.7-1.2C448.6,536.2,449.2,536.3,450.9,538.4z"/>
	<path d="M642.2,495.1c0.8,1-0.3,2.7,1.6,3.5c0.6-0.4,1.4-0.9,2.2-1.4c3.9-2.9,8.2-3.5,12.8-2.2c0.2,0.1,0.5,0.2,0.7,0.3
		c1,0.6,1.7,2.4,1.1,3.1c-0.7,1-1.8,0.6-2.6,0.2c-1.6-0.9-3.4-0.8-5.1-0.9c-5-0.2-8.4,3.8-9.7,7.5c-0.3,1-0.6,2-0.6,3
		c-0.1,11.1-0.1,22.2-0.1,33.3c0,1.7-0.4,2.3-1.7,2.4c-1.2,0.1-1.8-0.4-1.9-1.6c-0.1-1,0-2.1,0-3.1c0-13.9,0-27.8,0-41.7
		C639,494.9,639.6,494.5,642.2,495.1z"/>
	<path d="M218.2,475c0,2.1,0.1,4.3,0.1,6.6c0,16.5,0,32.9,0,49.4c0,1.9,0.4,3.8,0.5,5.7c0.1,1.6,0.9,2.7,2.2,3.5
		c0.2,0.1,0.4,0.3,0.6,0.4c0.9,0.5,1.1,1.4,0.8,2.3c-0.4,1.1-1.4,1.3-2.2,0.9c-1.2-0.6-2.4-1.3-3.2-2.3c-1.2-1.5-1.9-3.3-1.9-5.3
		c-0.1-12.2-0.3-24.5-0.3-36.7c0-7.4,0.1-14.9,0.2-22.3C214.9,474.6,215.2,474.3,218.2,475z"/>
	<path d="M236.2,519.4c0,7.4,0,14.7,0,22.1c0,2-0.5,2.5-2,2.5c-0.9,0-1.5-0.4-1.6-1.4c0-0.6,0-1.1,0-1.7c0-13.6,0.1-27.2,0.1-40.8
		c0-1.1-0.1-2.2-0.1-3.4c0-1.5,0.5-2,1.7-2c1.4,0,1.9,0.4,1.9,2.1c0,5.8,0,11.5,0,17.3C236.1,515.9,236.1,517.6,236.2,519.4
		C236.2,519.4,236.2,519.4,236.2,519.4z"/>
	<path d="M502.9,519.3c0-7.3,0-14.7,0-22c0-2.1,0.4-2.6,1.9-2.5c1.2,0.1,1.8,0.9,1.8,2.4c0,1.1-0.2,2.2-0.2,3.3
		c0,12.9,0,25.7,0,38.6c0,0.9,0.1,1.8,0.1,2.6c0.1,1.7-0.5,2.4-1.9,2.3c-1.4,0-1.8-0.5-1.8-2.2c0-6.1,0-12.3,0.1-18.4
		C503,522,503,520.7,502.9,519.3C503,519.3,502.9,519.3,502.9,519.3z"/>
	<path d="M297.2,518.7c-3.2,0-6.4,0-9.6,0c-1.8,0-2.6-0.7-2.5-2.2c0-0.9,0.5-1.5,1.4-1.7c0.5-0.1,1-0.1,1.4-0.1c6.3,0,12.6,0,18.9,0
		c0.3,0,0.6,0,1,0c1.5,0.1,2,0.6,2.1,1.8c0,1-0.7,1.9-1.9,2.1c-0.5,0.1-1.1,0-1.7,0C303.3,518.7,300.3,518.7,297.2,518.7
		C297.2,518.7,297.2,518.7,297.2,518.7z"/>
	<path d="M163.6,537.6c1.4,0,3.3,1.9,3.2,3.3c-0.1,1.5-1.8,3-3.4,3c-1.8,0-3.1-1.4-3.1-3.2C160.3,539.2,161.9,537.6,163.6,537.6z"/>
	<path d="M601,544c-2,0-3-1.2-3-3.2c0.1-1.7,1.6-3.2,3.2-3.1c1.5,0.1,2.9,1.7,3,3.3C604.2,542.7,602.9,544,601,544z"/>
	<path d="M236.4,482.4c0,1.7-0.6,2.5-1.8,2.5c-1.2,0-2.4-1.4-2.4-2.5c0.1-1.2,1.2-2.3,2.2-2.4C235.7,480,236.4,480.8,236.4,482.4z"
		/>
	<path d="M502.8,482.5c0-1.4,0.9-2.4,2.2-2.3c1.1,0,2,1,2,2.3c0,1.3-1.1,2.6-2.3,2.5C503.5,484.8,502.8,483.8,502.8,482.5z"/>
</g>
</svg>
