<?xml version="1.0" encoding="UTF-8" standalone="no"?>
<!-- Created with Inkscape (http://www.inkscape.org/) -->

<svg
   xmlns:dc="http://purl.org/dc/elements/1.1/"
   xmlns:cc="http://creativecommons.org/ns#"
   xmlns:rdf="http://www.w3.org/1999/02/22-rdf-syntax-ns#"
   xmlns:svg="http://www.w3.org/2000/svg"
   xmlns="http://www.w3.org/2000/svg"
   xmlns:sodipodi="http://sodipodi.sourceforge.net/DTD/sodipodi-0.dtd"
   xmlns:inkscape="http://www.inkscape.org/namespaces/inkscape"
   version="1.1"
   id="svg13081"
   width="570"
   height="400"
   viewBox="0 0 570 400"
   sodipodi:docname="daddy.svg"
   inkscape:version="0.92.0 r15299">
  <metadata
     id="metadata13087">
    <rdf:RDF>
      <cc:Work
         rdf:about="">
        <dc:format>image/svg+xml</dc:format>
        <dc:type
           rdf:resource="http://purl.org/dc/dcmitype/StillImage" />
        <dc:title></dc:title>
      </cc:Work>
    </rdf:RDF>
  </metadata>
  <defs
     id="defs13085" />
  <sodipodi:namedview
     pagecolor="#ffffff"
     bordercolor="#666666"
     borderopacity="1"
     objecttolerance="10"
     gridtolerance="10"
     guidetolerance="10"
     inkscape:pageopacity="0"
     inkscape:pageshadow="2"
     inkscape:window-width="1893"
     inkscape:window-height="1052"
     id="namedview13083"
     showgrid="false"
     inkscape:zoom="0.59936279"
     inkscape:cx="363.57457"
     inkscape:cy="231.21036"
     inkscape:window-x="27"
     inkscape:window-y="0"
     inkscape:window-maximized="1"
     inkscape:current-layer="svg13081" />
  <g
     id="g17679"
     transform="matrix(1.3513145,0,0,1.3513145,263.06377,-107.93534)">
    <circle
       style="color:#000000;clip-rule:nonzero;display:inline;overflow:visible;visibility:visible;opacity:1;isolation:auto;mix-blend-mode:normal;color-interpolation:sRGB;color-interpolation-filters:linearRGB;solid-color:#000000;solid-opacity:1;fill:none;fill-opacity:1;fill-rule:nonzero;stroke:#c7920f;stroke-width:20.78641891;stroke-linecap:butt;stroke-linejoin:miter;stroke-miterlimit:4;stroke-dasharray:none;stroke-dashoffset:0;stroke-opacity:1;color-rendering:auto;image-rendering:auto;shape-rendering:auto;text-rendering:auto;enable-background:accumulate"
       id="circle17668"
       cx="14.106485"
       cy="227.87836"
       r="132.08069" />
    <circle
       r="108.03139"
       cy="227.87836"
       cx="14.106485"
       id="path17647"
       style="color:#000000;clip-rule:nonzero;display:inline;overflow:visible;visibility:visible;opacity:1;isolation:auto;mix-blend-mode:normal;color-interpolation:sRGB;color-interpolation-filters:linearRGB;solid-color:#000000;solid-opacity:1;fill:#ef2287;fill-opacity:1;fill-rule:nonzero;stroke:none;stroke-width:4.14787149;stroke-linecap:butt;stroke-linejoin:miter;stroke-miterlimit:4;stroke-dasharray:none;stroke-dashoffset:0;stroke-opacity:1;color-rendering:auto;image-rendering:auto;shape-rendering:auto;text-rendering:auto;enable-background:accumulate" />
    <path
       style="fill:#4b2781;fill-opacity:1"
       d="m 140.55881,305.77551 c -6.97169,-1.93206 -14.36529,-14.44351 -14.36529,-24.30896 0,-3.86153 -1.21755,-4.61697 -5.4934,-3.40841 -4.39783,1.24304 -8.64116,1.02439 -11.76737,-0.60637 -2.47458,-1.29083 -3.20023,-1.24064 -7,0.4842 -5.32567,2.4175 -15.83125,2.58599 -22.45428,0.36013 -2.63172,-0.88446 -6.86337,-3.09127 -9.40366,-4.90401 l -4.61871,-3.2959 -2.43792,2.43792 c -2.64902,2.64901 -15.32313,7.37011 -19.78559,7.37011 -1.52314,0 -4.00177,-0.96942 -5.50806,-2.15426 -2.68305,-2.11049 -2.80117,-2.11737 -5.81272,-0.3384 -1.88557,1.11384 -5.83884,1.9933 -10.22553,2.27482 -9.29056,0.59623 -17.22599,-1.64291 -22.4053,-6.32211 -2.10643,-1.90303 -4.13441,-3.46005 -4.50663,-3.46005 -0.37222,0 -1.66768,1.13654 -2.8788,2.52565 -2.41914,2.77467 -14.40662,7.42349 -19.20203,7.44667 -1.65,0.008 -4.24873,-0.8089 -5.77497,-1.81528 -2.69574,-1.77753 -2.93841,-1.7743 -8.5,0.11339 -11.24,3.81504 -24.54781,0.0614 -33.47581,-9.4423 l -4.75078,-5.05712 -2.63949,1.86449 c -1.45172,1.02548 -3.13886,2.19585 -3.74922,2.60084 -0.61035,0.40499 -5.38473,2.76008 -10.60973,5.23354 -10.89745,5.15874 -17.52808,6.2401 -37.46128,6.1094 -10.88008,-0.0713 -12.5842,-0.33238 -16.99791,-2.60382 -3.58761,-1.8463 -5.52816,-3.70199 -7.22316,-6.90728 -2.27471,-4.30154 -2.31775,-4.9403 -2.32291,-34.47546 -0.006,-32.98337 0.55726,-29.51601 -6.41746,-39.52069 -2.06102,-2.95638 -3.05221,-5.75393 -3.36194,-9.48881 -0.6047,-7.29197 0.64892,-9.17356 7.02431,-10.5429 7.0223,-1.5083 46.63449,-1.48939 53.76035,0.0257 3.025,0.64315 9.69645,3.22866 14.82545,5.74557 9.12804,4.47933 14.2148,9.03232 20.18524,18.06717 l 1.51068,2.28607 8.1998,-2.0936 c 21.12541,-5.39379 36.39284,-2.8464 46.6791,7.78847 l 3.90027,4.03245 5.55483,-4.95095 c 7.66366,-6.8305 14.32661,-9.24702 25.27346,-9.16616 l 8.62883,0.0637 0.43631,-8.31276 c 0.29755,-5.66901 0.99898,-9.1715 2.20551,-11.0129 2.34638,-3.58104 9.08951,-6.44722 16.87945,-7.17466 7.93875,-0.74133 11.64456,0.96852 15.18218,7.00502 2.28207,3.89405 2.53889,5.39396 2.53889,14.82776 0,5.77251 0.25106,10.74654 0.55791,11.05339 0.30686,0.30685 3.34436,-0.85476 6.75,-2.58135 5.57222,-2.82501 7.19315,-3.16076 16.19209,-3.35394 l 10,-0.21466 0.78432,-7.70852 c 1.46508,-14.39909 4.36885,-17.17446 18.8389,-18.00589 8.60805,-0.49461 9.13201,-0.40292 12.53626,2.19362 4.79597,3.65807 6.71511,8.5278 6.01896,15.27284 -0.76448,7.4071 -0.28989,8.17332 5.06253,8.17332 10.3747,0 15.1616,3.50421 20.44888,14.96944 l 2.08931,4.53056 1.37389,-5 c 1.99953,-7.27689 4.50326,-11.77912 7.34695,-13.21137 3.0919,-1.55726 16.11385,-1.6623 21.47745,-0.17325 5.04869,1.40163 11.52255,7.70869 11.52255,11.22567 0,2.49604 -10.58371,33.16123 -16.87931,48.90604 -4.58397,11.46414 -11.78444,25.38314 -16.27691,31.46438 -7.94194,10.7506 -21.05499,17.49421 -29.47849,15.15982 z m 6.22499,-12.83168 c 14.10772,-7.06704 21.08166,-18.18777 34.51598,-55.03961 9.34897,-25.64528 11.17679,-31.95402 9.7545,-33.66778 -0.77654,-0.93566 -3.88656,-1.33222 -10.44802,-1.33222 -8.14269,0 -9.47246,0.24307 -10.35541,1.89289 -0.55718,1.04108 -2.83753,8.98198 -5.06745,17.64644 -2.22993,8.66446 -4.45963,16.47516 -4.95489,17.35711 -1.1108,1.97808 -0.61239,3.25633 -6.92695,-17.76517 -2.70431,-9.00281 -5.65178,-17.10281 -6.54993,-18 -1.23322,-1.23191 -3.41862,-1.60698 -8.92674,-1.53205 -10.11061,0.13755 -12.63137,0.89055 -12.63137,3.77328 0,2.03639 9.39347,27.27871 18.92494,50.85547 4.42013,10.93351 3.68492,12.90246 -6.95628,18.62937 l -5.46866,2.94314 0.10025,5.35984 c 0.0551,2.94791 0.8542,6.81781 1.77568,8.59976 2.16358,4.1839 5.28824,4.25 13.21435,0.27953 z M 18.67426,268.78793 c 2.18941,-0.60783 5.87049,-2.40532 8.18018,-3.99443 2.30969,-1.5891 4.43474,-2.88928 4.72234,-2.88928 0.2876,0 1.29405,1.62507 2.23656,3.61126 1.62866,3.43215 1.91712,3.58832 5.81623,3.14884 2.25641,-0.25433 6.29379,-1.4317 8.97195,-2.61638 l 4.86937,-2.15395 -0.82833,-5.24489 c -0.45558,-2.88468 -0.89883,-21.4762 -0.985,-41.31447 -0.0862,-19.83828 -0.4594,-37.27578 -0.8294,-38.75 -0.61136,-2.43582 -1.10444,-2.6799 -5.40369,-2.67483 -6.98809,0.008 -11.99797,1.70921 -13.99041,4.75007 -1.38721,2.11717 -1.74206,4.89833 -1.74804,13.70038 -0.004,6.07418 -0.33346,11.13692 -0.73185,11.25053 -0.39839,0.1136 -2.42002,-0.5273 -4.4925,-1.42424 -2.24745,-0.97266 -6.6075,-1.65016 -10.8038,-1.67878 -16.57728,-0.11306 -28.15513,11.95104 -29.25288,30.48144 -1.37786,23.25878 15.59043,40.98437 34.26927,35.79873 z M 10.27833,250.18776 C 5.48181,247.68284 3.19352,242.8219 3.19352,235.1377 c 0,-10.23922 3.39166,-15.77367 10.35945,-16.90439 4.82209,-0.78251 9.36834,1.24383 11.33855,5.05379 2.08025,4.02276 2.87787,15.34218 1.39722,19.82859 -2.38946,7.24014 -9.59446,10.42271 -16.01041,7.07207 z m 80.14166,18.67038 c 2.04956,-0.56922 5.73594,-2.5688 8.19196,-4.44352 l 4.4655,-3.40859 1.80803,3.6991 c 2.28534,4.67561 4.78148,5.04452 13.34517,1.97229 6.15868,-2.20943 6.44708,-2.4587 6.12743,-5.29588 -0.1845,-1.63753 -0.6345,-20.97732 -1,-42.97732 -0.36551,-22 -1.06379,-40.6194 -1.55173,-41.37645 -1.17068,-1.81632 -11.06187,-0.97694 -15.49364,1.31482 -4.32618,2.23715 -5.11919,4.89025 -5.11919,17.12673 0,5.73919 -0.1678,10.4349 -0.37288,10.4349 -0.20509,0 -2.53177,-0.95498 -5.17041,-2.12217 -9.13688,-4.04168 -23.14458,-1.1233 -30.65447,6.38659 -10.19447,10.19447 -12.54939,29.43403 -5.34331,43.65454 6.28804,12.40884 18.58556,18.41818 30.76754,15.03496 z m -8.20912,-19.78272 c -2.95412,-2.95412 -5.0062,-8.55805 -5.0062,-13.6712 0,-5.11315 2.05208,-10.71708 5.0062,-13.6712 2.37324,-2.37324 3.6588,-2.8288 7.98265,-2.8288 4.39837,0 5.59561,0.44176 8.16755,3.01371 l 3.01371,3.01371 -0.34063,10.57022 c -0.3384,10.50099 -0.36202,10.58931 -3.60641,13.48629 -4.59083,4.09923 -11.16719,4.13695 -15.21687,0.0873 z m -195.51735,17.40815 c 25.39128,-7.00992 37.74197,-23.56807 36.23522,-48.57935 -1.89799,-31.50551 -24.30706,-42.44323 -78.07847,-38.10958 -10.94129,0.8818 -11.97459,1.54795 -11.02798,7.10958 0.82243,4.83204 3.05594,8.05472 6.47748,9.3462 l 2.89375,1.09228 v 32.21566 c 0,18.73998 0.41221,33.29986 0.98546,34.8076 0.542,1.42557 2.0045,3.02841 3.25,3.56186 3.60301,1.54317 32.26182,0.48903 39.26454,-1.44425 z m -20.83333,-15.24602 c -0.36667,-0.36666 -0.66667,-12.75579 -0.66667,-27.53138 0,-24.19601 0.16626,-26.92852 1.67364,-27.50696 0.9205,-0.35322 5.41249,-0.17901 9.98221,0.38715 11.03395,1.36704 16.87905,4.39524 20.83523,10.7942 2.87129,4.64421 3.00892,5.37356 3.00892,15.94524 0,10.33766 -0.18758,11.39753 -2.80528,15.85081 -1.5429,2.62482 -4.50019,5.89404 -6.57176,7.26494 -5.50888,3.6456 -23.26198,6.99031 -25.45629,4.796 z m 89.67981,14.36558 5.65826,-2.59043 1.58725,3.0694 c 1.50546,2.91125 1.81915,3.03761 6.08825,2.45247 2.47555,-0.33931 6.53484,-1.5166 9.02065,-2.61619 4.45151,-1.96911 4.50933,-2.05592 3.83451,-5.75671 -0.37683,-2.0666 -0.88504,-11.63245 -1.12934,-21.25745 -0.53817,-21.20292 -1.71963,-26.24369 -7.34139,-31.32261 -5.31874,-4.80516 -10.38383,-6.01539 -22.56467,-5.39151 -10.03572,0.514 -18.36815,2.43479 -21.96196,5.06264 -1.74429,1.27546 -1.8099,1.80074 -0.69127,5.53439 0.70021,2.33708 2.31274,4.83073 3.72016,5.7529 2.28502,1.4972 3.14373,1.50046 10.70865,0.0407 4.52343,-0.87288 9.47488,-1.32724 11.00323,-1.00968 2.44879,0.5088 5.72119,3.61172 5.72119,5.42488 0,0.35566 -3.97096,1.15592 -8.82436,1.77834 -11.38197,1.45968 -16.98512,3.41908 -21.96383,7.68067 -11.17361,9.56419 -8.85451,28.47655 4.24682,34.63298 5.59222,2.62784 15.27709,1.99957 22.88785,-1.48476 z m -11.88837,-13.7452 c -2.31359,-2.55649 -2.27872,-8.38947 0.0656,-10.97996 3.18619,-3.5207 13.09359,-5.50915 14.71322,-2.953 1.4747,2.3274 -0.95383,9.84996 -4.24114,13.13727 -3.42726,3.42726 -7.85371,3.76149 -10.53772,0.79569 z"
       id="path17608"
       inkscape:connector-curvature="0" />
    <path
       sodipodi:nodetypes="cccccccssccssccccccccssscssccccscscccssccsccssccscscscscccccccccsssscccsscssccccsscccccscscccsccccssssccccccccssccccssccc"
       inkscape:connector-curvature="0"
       id="rect17670"
       d="m -5.2264025,269.9052 c 3.4842683,86.72987 1.7421342,43.36493 0,0 z M 45.423988,175.91106 c -6.98809,0.008 -11.997794,1.70914 -13.990234,4.75 -1.38721,2.11717 -1.742067,4.89716 -1.748047,13.69922 -0.004,6.07418 -0.332079,11.13834 -0.730469,11.25195 -0.39839,0.1136 -2.421661,-0.52689 -4.49414,-1.42383 -2.247451,-0.97266 -6.606435,-1.65107 -10.802735,-1.67969 -16.5772799,-0.11306 -28.156156,11.95007 -29.253906,30.48047 -1.37786,23.25878 15.59069113,40.98447 34.269531,35.79883 2.18941,-0.60783 5.869998,-2.40503 8.179688,-3.99414 2.30969,-1.5891 4.435056,-2.88867 4.722656,-2.88867 0.2876,0 1.293818,1.62513 2.236328,3.61132 1.62866,3.43215 1.917296,3.58792 5.816406,3.14844 2.25641,-0.25433 6.294496,-1.43055 8.972656,-2.61523 l 4.869141,-2.1543 -0.828125,-5.24609 c -0.45558,-2.88468 -0.898205,-21.47619 -0.984375,-41.31446 -0.0862,-19.83828 -0.460078,-37.27578 -0.830078,-38.75 -0.61136,-2.43582 -1.105047,-2.67889 -5.404297,-2.67382 z m 72.134762,0.13086 c -3.57313,0.004 -8.47623,0.86843 -11.24609,2.30078 -4.32618,2.23715 -5.11914,4.89047 -5.11914,17.12695 0,5.73919 -0.16797,10.43555 -0.37305,10.43555 -0.20509,0 -2.531279,-0.95586 -5.169919,-2.12305 -9.13688,-4.04168 -23.144407,-1.12317 -30.654297,6.38672 -10.19447,10.19447 -12.54983,29.43379 -5.34375,43.6543 6.28804,12.40884 18.585598,18.41837 30.767578,15.03515 2.04956,-0.56922 5.735386,-2.56864 8.191406,-4.44336 l 4.466792,-3.4082 1.80665,3.69922 c 2.28534,4.67561 4.78201,5.04488 13.3457,1.97265 6.15868,-2.20943 6.4466,-2.45969 6.12695,-5.29687 -0.1845,-1.63753 -0.6345,-20.97656 -1,-42.97656 -0.36551,-22 -1.06284,-40.61991 -1.55078,-41.37696 -0.439,-0.68112 -2.10417,-0.98866 -4.24805,-0.98632 z m -253.99218,2.85546 c -5.76255,0.0541 -11.99537,0.35674 -18.7168,0.89844 -10.94129,0.8818 -11.97395,1.54775 -11.02734,7.10938 0.82243,4.83204 3.05502,8.05422 6.47656,9.3457 l 2.89453,1.0918 v 32.21679 c 0,18.73998 0.41308,33.2989 0.98633,34.80664 0.542,1.42557 2.0045,3.02905 3.25,3.5625 3.60301,1.54317 32.26095,0.48993 39.26367,-1.44335 25.391279,-7.00993 37.743077,-23.5688 36.236328,-48.58008 -1.660742,-27.56732 -19.025453,-39.38674 -59.363278,-39.00782 z m 4.60547,17.13477 c 1.86591,-0.0735 5.25044,0.13007 8.67773,0.55469 11.03395,1.36704 16.87976,4.39596 20.83594,10.79492 2.871287,4.64421 3.007809,5.37363 3.007809,15.94531 0,10.33766 -0.186987,11.39633 -2.804689,15.84961 -1.5429,2.62482 -4.50069,5.89473 -6.57226,7.26563 -5.50888,3.6456 -23.26273,6.99118 -25.45703,4.79687 -0.36667,-0.36666 -0.66602,-12.75566 -0.66602,-27.53125 0,-24.19601 0.16645,-26.92937 1.67383,-27.50781 0.23012,-0.0883 0.68271,-0.14348 1.30469,-0.16797 z m 86.769526,6.01367 c -1.314631,0.0172 -2.725442,0.0666 -4.248047,0.14453 -10.03572,0.514 -18.367127,2.43465 -21.960937,5.0625 -1.74429,1.27546 -1.810036,1.80151 -0.691406,5.53516 0.70021,2.33708 2.31133,4.82978 3.71875,5.75195 2.28502,1.4972 3.144064,1.50078 10.708984,0.041 4.52343,-0.87288 9.475556,-1.32733 11.003906,-1.00977 2.44879,0.5088 5.720703,3.61262 5.720703,5.42578 0,0.35566 -3.970818,1.15493 -8.824218,1.77735 -11.38197,1.45968 -16.984181,3.42005 -21.962891,7.68164 -11.17361,9.56419 -8.855236,28.47638 4.246094,34.63281 5.59222,2.62784 15.275959,1.99996 22.886718,-1.48437 l 5.660157,-2.58985 1.585937,3.06836 c 1.50546,2.91125 1.818791,3.03827 6.087891,2.45313 2.47555,-0.33931 6.535674,-1.5176 9.021484,-2.61719 4.45151,-1.96911 4.508805,-2.05507 3.833985,-5.75586 -0.37683,-2.0666 -0.884607,-11.63281 -1.128907,-21.25781 -0.53817,-21.20292 -1.720037,-26.24335 -7.341797,-31.32227 -4.653897,-4.20451 -9.113988,-5.65772 -18.316406,-5.53711 z m 184.798824,0.45313 c -0.58931,-0.005 -1.2275,-0.004 -1.91601,0.006 -10.11061,0.13755 -12.63086,0.8907 -12.63086,3.77343 0,2.03639 9.39431,27.27871 18.92578,50.85547 4.42013,10.93351 3.68417,12.902 -6.95703,18.62891 l -5.46875,2.94336 0.0996,5.35937 c 0.0551,2.94791 0.85586,6.81766 1.77734,8.59961 2.16358,4.1839 5.28678,4.24977 13.21289,0.2793 14.10772,-7.06704 21.08131,-18.18722 34.51563,-55.03906 9.34897,-25.64528 11.17815,-31.95421 9.75586,-33.66797 -0.77654,-0.93566 -3.88776,-1.33203 -10.44922,-1.33203 -8.14269,0 -9.47252,0.24275 -10.35547,1.89258 -0.55718,1.04107 -2.83649,8.98202 -5.06641,17.64648 -2.22993,8.66446 -4.45981,16.47547 -4.95507,17.35742 -1.1108,1.97808 -0.61318,3.25588 -6.92774,-17.76562 -2.70431,-9.00281 -5.65068,-17.10281 -6.54883,-18 -1.07906,-1.07793 -2.88655,-1.49868 -7.01172,-1.53711 z M 15.34391,218.07121 c 4.127541,-0.0843 7.822941,1.88308 9.546875,5.2168 2.08025,4.02276 2.879087,15.34171 1.398437,19.82812 -2.389459,7.24014 -9.593815,10.42291 -16.009765,7.07227 -4.7965201,-2.50492 -7.0859376,-7.36463 -7.0859376,-15.04883 0,-10.23922 3.391585,-15.77553 10.3593746,-16.90625 0.602762,-0.0978 1.201367,-0.15007 1.791016,-0.16211 z m 74.849609,0.83399 c 4.39837,0 5.596029,0.44172 8.167969,3.01367 l 3.013672,3.01367 -0.3418,10.57031 c -0.3384,10.50099 -0.36108,10.58935 -3.605466,13.48633 -4.59083,4.09923 -11.167117,4.13754 -15.216796,0.0879 -2.954121,-2.95412 -5.00586,-8.55872 -5.00586,-13.67187 0,-5.11315 2.051739,-10.71776 5.00586,-13.67188 2.373239,-2.37324 3.658571,-2.82812 7.982421,-2.82812 z m -135.251953,17.86328 c 1.666802,0.003 2.982147,0.3594 3.488282,1.1582 1.474699,2.3274 -0.952925,9.84941 -4.240235,13.13672 -3.42726,3.42726 -7.853099,3.76072 -10.537109,0.79492 -2.31359,-2.55649 -2.279867,-8.38802 0.06445,-10.97851 2.190506,-2.42048 7.557645,-4.11817 11.224609,-4.11133 z"
       style="color:#000000;clip-rule:nonzero;display:inline;overflow:visible;visibility:visible;opacity:1;isolation:auto;mix-blend-mode:normal;color-interpolation:sRGB;color-interpolation-filters:linearRGB;solid-color:#000000;solid-opacity:1;fill:#ffffff;fill-opacity:1;fill-rule:nonzero;stroke:none;stroke-width:1;stroke-linecap:butt;stroke-linejoin:miter;stroke-miterlimit:4;stroke-dasharray:none;stroke-dashoffset:0;stroke-opacity:1;color-rendering:auto;image-rendering:auto;shape-rendering:auto;text-rendering:auto;enable-background:accumulate" />
  </g>
</svg>
