<?xml version="1.0" encoding="utf-8"?>
<!-- Generator: Adobe Illustrator 21.0.0, SVG Export Plug-In . SVG Version: 6.00 Build 0)  -->
<svg version="1.1" id="Layer_1" xmlns="http://www.w3.org/2000/svg" xmlns:xlink="http://www.w3.org/1999/xlink" x="0px" y="0px"
	 viewBox="0 0 526.2 574.4" style="enable-background:new 0 0 526.2 574.4;" xml:space="preserve">
<style type="text/css">
	.st0{fill:#F45668;}
	.st1{fill:#EE5869;}
	.st2{fill:#EF6171;}
	.st3{fill:#F2808D;}
	.st4{fill:#FEFEFE;}
</style>
<g>
	<path class="st0" d="M278.1,0.1c3.9,2.5,8.6,2,12.8,2.8C350.7,14,399.2,61.6,409.7,121.5c8.7,49.4-2.1,94.4-32.8,134.6
		c-18.6,24.2-39,46.9-58.6,70.2c-18.6,22.1-36.4,44.7-52.5,68.6c-0.6,1-1.4,1.9-2.4,3.3c-2.6-3.7-5.1-7.2-7.5-10.8
		c-22.4-32.4-48.1-62.1-73.8-91.9c-17.4-20.2-34.6-40.5-47.9-63.9C99.3,170.2,110.1,90,160.1,42c23-22.1,50.4-35.6,82.1-40.1
		c2-0.3,4.4,0.2,5.9-1.8C258.1,0.1,268.1,0.1,278.1,0.1z"/>
	<path class="st1" d="M526.1,572.1c-6.8,0-13.7-0.1-20.5,0.2c-3.5,0.1-4.5-0.9-4.5-4.4c0.2-15.2,0.1-30.3,0.1-45.5
		c0-2.2,0.1-4.3-0.1-6.5c-0.7-6.4-1.8-13-8.6-15.8c-7.5-3-14.7-0.8-21.5,3.1c-2,1.1-1.2,2.9-1.2,4.5c0,19.8-0.1,39.7,0.1,59.5
		c0,3.8-0.7,5.4-4.9,5.1c-5.3-0.4-10.7-0.3-16,0c-3.3,0.2-4.2-1-4.2-4.2c0.2-14.3,0.1-28.7,0.1-43c0-26.7,0.1-53.3-0.1-80
		c0-3.6,1.1-5.3,4.4-6.6c6.7-2.5,13.2-5.4,19.8-8.1c1.4,1.5,0.8,3.1,0.8,4.5c0.1,13.7,0.1,27.3,0,41c0,3.3,0.5,4.5,4.1,3.2
		c6.3-2.5,13-2.5,19.7-2c14.5,1.1,25.8,10,30.4,23.7c0.7,2.1,0.4,4.6,2.2,6.4c0,1.3,0,2.7,0,4c-0.8,1.2-0.5,2.6-0.5,3.9
		c0,17.1,0,34.2,0,51.3c0,1.3-0.3,2.7,0.5,3.9C526.1,570.8,526.1,571.4,526.1,572.1z"/>
	<path class="st1" d="M0.1,440.1c8.1-3.2,16.3-6.5,24.9-9.9c0,16.8,0,33.1,0,50c7.6-2.8,14.9-3.8,22.4-3.3
		C66.4,478,80.3,491.1,81,510c0.7,19.6,0.2,39.3,0.4,59c0,2.9-1.3,3.2-3.7,3.2c-5.8-0.1-11.7-0.2-17.5,0c-3.2,0.1-3.9-1.2-3.9-4.1
		c0.1-15,0.1-30,0-45c0-2.7,0-5.3-0.2-8c-0.8-13.2-9.1-19.1-21.8-15.5c-1.3,0.4-2.5,0.9-3.8,1.3c-4,1.4-5.9,3.5-5.8,8.4
		c0.4,19.5,0.1,39,0.2,58.5c0,3.5-1,4.6-4.5,4.4c-6.8-0.3-13.7-0.1-20.5-0.2c0-0.7,0-1.3,0-2c0.9-1.4,0.5-2.9,0.5-4.4
		c0-39.7,0-79.5,0-119.2c0-1.5,0.4-3-0.5-4.4C0.1,441.4,0.1,440.8,0.1,440.1z"/>
	<path class="st1" d="M386.1,574.1c-1.1-1.8-3.2-1.6-4.8-2.1c-23.4-6.8-36.6-27.1-34-52.1c2.6-24.1,21-41.7,44.9-43.1
		c13.8-0.8,26.2,3.8,38.7,8.5c2,0.8,2.3,1.8,1.3,3.8c-2.4,4.6-4.6,9.2-6.6,14c-1.2,2.7-2.5,3.3-5.3,2.1c-5.8-2.5-11.8-4.5-18.1-5.5
		c-16.6-2.6-28.7,7.5-29.2,24.4c-0.1,5,0.2,10,2.3,14.6c4.3,9.1,14.5,14.2,25.5,12.9c7.3-0.9,14.3-3.1,21.1-5.8
		c2.9-1.1,4.1-0.5,5.3,2.2c2,4.6,4.3,9,6.7,13.4c1.4,2.5,1,3.6-1.7,4.7c-7.5,2.9-15.1,5.2-23,6.8c-0.8,0.2-1.7,0.1-2,1.1
		C400.1,574.1,393.1,574.1,386.1,574.1z"/>
	<path class="st1" d="M312.1,574.1c-0.3-1.2-1.5-1.2-2.4-1.6c-12.3-4.6-17.4-11.8-17.4-24.9c0-14.3-0.1-28.7,0.1-43
		c0-3.6-0.7-4.9-4.6-4.9c-10.6,0.2-10.6,0-10.6-10.6c0-10,0-10.2,10.2-10c3.8,0.1,5.8-0.9,4.9-4.9c-2.2-10.6,2.1-17.1,12.2-20.8
		c4.2-1.5,7.9-4.2,12.8-6.9c0,6.3-0.1,11.8,0,17.3c0.2,4.9-2.1,11.3,1,14.4c2.9,2.8,9.2,0.7,14,0.8c7.7,0.1,7.7,0,7.7,7.6
		c0,4.1,1.4,9.6-0.7,12.1c-2.5,3-8.1,1-12.4,1c-9.7,0.2-9.7,0.1-9.6,9.7c0.1,12.2,0,24.3,0.4,36.5c0.2,5.4,1.7,6.1,7.1,5.2
		c3.3-0.6,6.3-2.1,9.2-3.7c2-1.2,2.8-0.6,3.7,1.3c2.2,4.8,4.5,9.7,7,14.3c1.3,2.3,0.4,3.1-1.6,4c-6.4,3.1-13.4,4.6-20.1,7
		c-0.7,0-1.3,0-2,0c-2-0.8-4-0.8-6,0C314.1,574.1,313.1,574.1,312.1,574.1z"/>
	<path class="st2" d="M0.1,442.1c1.6,1.5,1,3.4,1,5.2c0,39.2,0,78.4,0,117.7c0,1.7,0.7,3.7-1,5.2C0.1,527.4,0.1,484.8,0.1,442.1z"/>
	<path class="st2" d="M526.1,570.1c-1.3-1-1-2.4-1-3.7c0-17.2,0-34.5,0-51.7c0-1.3-0.3-2.7,1-3.7
		C526.1,530.8,526.1,550.4,526.1,570.1z"/>
	<path class="st3" d="M315.1,574.1c2-1.6,4-1.5,6,0C319.1,574.1,317.1,574.1,315.1,574.1z"/>
	<path class="st4" d="M324.1,179.8c0,6.3-0.1,12.7,0,19c0.1,2.6-0.4,4.8-3.4,5.2c-13.8,1.9-26.3,8.3-40,10.5
		c-16.7,2.8-33.5,2.6-50.2,0.8c-6-0.7-11.5-3.2-16.8-5.9c-4.3-2.2-5.9-5.3-3.7-9.8c1.9-3.9,1-6.3-2.6-8.7c-6.2-4.2-6.5-8.6-1.2-13.9
		c2.8-2.8,2.9-4.4-0.2-7.1c-5.9-5.3-5.3-10.8,1.7-14.8c2.9-1.7,3.3-3.4,2.3-6.5c-3.3-10,0.3-14.6,11-14c11,0.7,21.9,1.9,32.8,2.6
		c8.9,0.6,11.9-3.4,9.3-12c-2.8-9.1-5.9-18-8.5-27.1c-1.8-6.3,1.5-12.7,7.2-15.4c4-1.8,7.1-0.9,8.3,3.3c5.4,18.7,17.7,32.9,30.2,47
		c4.2,4.7,8.1,9.7,11.3,15.2c2,3.5,4.7,6.1,8.8,6.8c3.1,0.5,3.6,2.2,3.6,4.9C324.1,166.5,324.1,173.1,324.1,179.8
		C324.1,179.8,324.1,179.8,324.1,179.8z"/>
	<path class="st1" d="M224.1,574.1c-0.7-1.7-2.4-1.5-3.8-1.9c-19.7-5.7-33.2-22.8-34.1-43.3c-0.6-13.9,1.9-27,11.6-37.6
		c12.2-13.4,27.9-17.4,45.1-13c17.6,4.4,25.9,18.1,30.1,34.7c1.1,4.5,1.2,9.2,1.9,13.8c0.5,3.4-0.8,4.3-4,4.3
		c-17.8-0.1-35.6,0.1-53.5-0.2c-4.8-0.1-5.2,1.7-4.3,5.5c2.3,9.6,14.4,16.7,26.2,15.5c7.7-0.8,14.4-4.1,20.2-9
		c2.3-2,3.4-1.6,4.7,0.9c2.3,4.4,4.7,8.8,7.4,13c1.6,2.5,1,3.7-1.2,5.1c-7.6,5.2-15.7,9.4-24.8,11.3c-0.6,0.1-1.1,0.6-1.6,1
		C237.4,574.1,230.8,574.1,224.1,574.1z M242.9,511.2c2.7,0.1,3.7-0.4,2.4-3.3c-2.8-6.3-8-10-14.7-9.8c-6.7,0.1-13.3,4.8-15.5,10.7
		c-0.9,2.4,0.2,2.4,2,2.4c4.3-0.1,8.6,0,12.9,0S238.6,511,242.9,511.2z"/>
	<path class="st1" d="M130.1,574.1c-1.1-1.8-3.2-1.5-4.8-2c-18.7-5.6-31.7-21.8-33.2-41.3c-1.1-14.1,1-27.4,10.4-38.5
		c11.5-13.6,26.7-17.9,43.7-14.7c17.7,3.4,26.8,16.2,31.7,32.4c1.7,5.4,2.2,11.1,2.5,16.7c0.2,3.5-1.1,4.2-4.2,4.2
		c-17.6-0.1-35.3-0.1-52.9-0.1c-5.6,0-5.8,0.3-4.3,5.6c2.9,9.9,14.5,16.6,26.4,15.2c7.4-0.8,13.8-3.8,19.3-8.6
		c2.9-2.5,4.2-1.9,5.7,1.2c2.1,4.2,4.4,8.2,6.9,12.1c1.6,2.4,1,3.8-1.2,5.3c-6.5,4.5-13.3,8.1-20.9,10.4c-1.7,0.5-3.7,0.1-4.9,1.9
		C143.4,574.1,136.8,574.1,130.1,574.1z M148.7,511.2c3.3,0.2,3.1-1.2,2.1-3.5c-2.7-6.2-8.2-9.8-14.9-9.7
		c-6.6,0.2-12.7,4.5-15.2,10.4c-1.1,2.7,0.1,2.8,2.1,2.7c4.3,0,8.6,0,12.9,0C140,511.1,144.4,511,148.7,511.2z"/>
</g>
</svg>
