<?xml version="1.0" encoding="UTF-8"?>
<!-- Generator: Adobe Illustrator 19.2.1, SVG Export Plug-In . SVG Version: 6.00 Build 0)  -->
<svg version="1.1" id="Calque_1" xmlns="http://www.w3.org/2000/svg" xmlns:xlink="http://www.w3.org/1999/xlink" x="0px" y="0px" viewBox="0 0 124 124" style="enable-background:new 0 0 124 124;" xml:space="preserve">
<style type="text/css">
	.st0{fill:#FEFEFE;}
	.st1{fill:#F45668;}
</style>
<g>
	<path class="st0" d="M71.2,114.9c-4.3,0-8.6,0-12.9,0c2-0.5,3.9-1.3,5.6-2.7c-0.7-1.2-1.3-2.3-2-3.5c-0.8,0.6-1.4,1.2-2.2,1.5   c-2,0.9-3.9,0.8-5.7-0.5c-0.9-0.7-1.3-1.5-1.2-2.8c3.8,0,7.6,0,11.4,0c0.1-1.2-0.1-2.3-0.3-3.4c-1.9-7.7-9.1-7.9-12.9-4.8   c-2.4,1.9-3.1,4.5-3.1,7.5c0,4,2.6,7.4,6.5,8.5c0.3,0.1,0.6,0,0.8,0.3c-4.8,0-9.6,0-14.4,0c2.1-0.5,4-1.3,5.6-2.7   c-0.6-1.1-1.2-2.1-1.8-3.1c-0.1-0.1-0.1-0.2-0.2-0.3c-0.6,0.4-1.2,0.9-1.9,1.2c-2,1.2-4.6,1-6.1-0.4c-0.8-0.7-1.3-1.5-1.1-2.7   c3.8,0,7.6,0,11.4,0c0-1.1,0-2-0.2-2.9c-1-5-4.9-7.8-9.5-6.8c-3.3,0.7-5.5,2.8-6.3,6c-0.9,3.6-0.2,6.9,2.6,9.6   c1.3,1.2,2.9,1.7,4.6,2.2c-7.9,0-15.8,0-23.7,0c-0.2,0-0.7,0.3-0.6-0.4c1.5,0,3,0,4.6,0c0-0.5,0-0.8,0-1.2c0-3.5,0-7.1,0-10.6   c0-0.4-0.1-0.8,0.4-1c1.2-0.7,2.6-1.1,3.9-0.5c1.3,0.6,1.5,1.9,1.5,3.1c0,0.4,0,0.7,0,1.1c0,2.6,0,5.2,0,7.7c0,0.4-0.1,0.8,0.1,1.2   c1.5,0,3,0,4.4,0c0-3.9,0.1-7.8,0-11.6c-0.1-3.3-2.6-5.6-5.9-5.9c-1.5-0.2-2.9,0.1-4.4,0.6c0-3.1,0-6.1,0-9.2   c-1.6,0.6-3.1,1.2-4.6,1.8c0-27.1,0-54.1,0-81.2c15.3,0,30.6,0,46,0c-0.1,0.3-0.4,0.2-0.7,0.2c-6.1,0.8-11.4,3.3-15.9,7.6   c-9.7,9.3-10.7,24.3-4.7,34.9c2.4,4.3,5.5,8,8.7,11.7c5.2,6,10.4,12.1,14.8,18.7c0.1,0.1,0.2,0.2,0.4,0.4c0.2-0.3,0.4-0.5,0.6-0.8   c2.4-3.5,5-6.9,7.7-10.2c3.8-4.7,7.9-9.1,11.7-13.8c6.2-7.7,8.7-16.3,7.1-26.1C87.4,21.3,78.9,12.3,68.8,9.9   C67.4,9.5,66,9.5,64.6,9c15.3,0,30.6,0,46,0c0,31.2,0,62.4,0,93.6c-0.2-0.1-0.2-0.2-0.2-0.4c-0.8-3.2-2.7-4.8-6-5.2   c-1.4-0.2-2.8,0.2-4.2,0.6c0-3.1,0-6.1,0-9.2c-1.3,0.5-2.5,1.1-3.7,1.5c-0.7,0.2-0.9,0.6-0.9,1.3c0,7.4,0,14.9,0,22.3   c0,0.3-0.1,0.7,0.1,1c1.5,0,2.9,0,4.4,0c0.2-0.4,0.1-0.7,0.1-1c0-3.6,0-7.1,0-10.7c0-0.6,0.1-1,0.7-1.2c2.9-1.2,5-0.5,5.1,3.1   c0,0.2,0,0.4,0,0.6c0,2.1,0,4.1,0,6.2c0,1,0,2.1,0,3.2c1.6,0,3.1,0,4.6,0c0.1,0.5-0.2,0.4-0.5,0.4c-1.6,0-3.3,0-4.9,0   c-5.7,0-11.3,0-17,0c0.1-0.2,0.4-0.1,0.6-0.2c1.7-0.3,3.4-0.8,5-1.6c-0.6-1.3-1.2-2.4-1.8-3.7c-1.6,0.6-3,1.1-4.6,1.3   c-2.5,0.3-4.5-1.1-4.9-3.5c-0.1-0.6-0.1-1.2-0.1-1.8c0.1-2.8,2.4-4.6,5.1-4.3c1.5,0.2,2.8,0.8,4.3,1.3c0.6-1.2,1.1-2.4,1.8-3.7   c-2.7-1.1-5.3-2.1-8.2-1.7c-4,0.5-7.1,3.6-7.6,7.7c-0.6,4.2,1.5,8,5.4,9.5c0.7,0.3,1.4,0.5,2.2,0.7c-4,0-8,0-12,0   c1.4-0.5,2.9-0.7,4.2-1.6c-0.6-1.2-1.1-2.3-1.7-3.5c-0.8,0.3-1.5,0.8-2.3,0.9c-0.7,0.1-1.1-0.1-1.1-0.9c-0.2-2.3,0-4.5-0.1-6.8   c0-0.6-0.1-1.2,0.1-1.8c1.3,0,2.7,0,4,0c0-1.3,0-2.5,0-3.8c-1.4,0-2.7,0-4.2,0c0-2,0-3.9,0-6c-1.5,0.8-2.8,1.6-4.2,2.3   c-0.4,0.2-0.4,0.5-0.4,0.8c0,0.9,0,1.8,0,2.8c-1,0-1.8,0-2.7,0c0,1.3,0,2.5,0,3.8c0.9,0,1.8,0,2.7,0c0,2.7,0,5.3,0,7.9   C67.4,112.7,67.9,113.6,71.2,114.9L71.2,114.9z"/>
	<path class="st1" d="M64.6,9c1.4,0.5,2.9,0.5,4.3,0.9c10.1,2.4,18.6,11.4,20.2,21.6c1.6,9.8-0.9,18.4-7.1,26.1   c-3.8,4.7-7.8,9.2-11.7,13.8c-2.7,3.3-5.3,6.7-7.7,10.2c-0.2,0.2-0.4,0.5-0.6,0.8c-0.2-0.2-0.3-0.3-0.4-0.4   c-4.4-6.6-9.6-12.7-14.8-18.7c-3.2-3.7-6.3-7.4-8.7-11.7c-6-10.6-4.9-25.6,4.7-34.9c4.5-4.3,9.7-6.8,15.9-7.6   c0.2,0,0.5,0.1,0.7-0.2C61.1,9,62.8,9,64.6,9z M52,41c-0.2,0.2-0.3,0.4-0.5,0.6c-1,1.1-1,1.8,0.3,2.7c0.6,0.4,0.7,0.9,0.4,1.5   c-0.4,0.8-0.2,1.4,0.6,1.8c0.9,0.5,1.9,0.9,2.9,1.1c3.2,0.4,6.4,0.4,9.5-0.1c2.5-0.4,4.8-1.6,7.4-2c0.4-0.1,0.6-0.4,0.6-0.8   c0-2.5,0-4.9,0-7.4c0-0.5-0.2-0.8-0.7-0.9c-0.7-0.1-1.2-0.6-1.6-1.2c-0.6-1.1-1.4-2.1-2.3-3c-2.3-2.6-4.5-5.2-5.4-8.6   c-0.2-0.8-0.8-0.9-1.5-0.6c-1.1,0.4-1.7,1.7-1.4,2.9c0.5,1.7,1.1,3.4,1.6,5.1c0.4,1.4-0.1,2.2-1.6,2.1c-0.5,0-0.9-0.1-1.4-0.1   c-1.7-0.1-3.4-0.3-5.1-0.4c-1.7,0-2.3,0.8-1.8,2.4c0.3,0.7,0.1,1.1-0.6,1.5c-1,0.6-1.1,1.6-0.3,2.5C51.5,40.4,51.8,40.6,52,41z"/>
	<path class="st1" d="M13.4,90.2c1.5-0.6,3-1.2,4.6-1.8c0,3.1,0,6.1,0,9.2c1.5-0.4,2.9-0.7,4.4-0.6c3.3,0.4,5.7,2.6,5.9,5.9   c0.2,3.8,0,7.7,0,11.6c-1.5,0-3,0-4.4,0c-0.2-0.4-0.1-0.8-0.1-1.2c0-2.6,0-5.2,0-7.7c0-0.4,0-0.7,0-1.1c-0.1-1.3-0.2-2.5-1.5-3.1   c-1.3-0.6-2.6-0.2-3.9,0.5c-0.5,0.3-0.4,0.7-0.4,1c0,3.5,0,7.1,0,10.6c0,0.3,0,0.7,0,1.2c-1.6,0-3.1,0-4.6,0   C13.4,106.5,13.4,98.3,13.4,90.2z"/>
	<path class="st1" d="M110.5,114.6c-1.5,0-3,0-4.6,0c0-1.1,0-2.2,0-3.2c0-2.1,0-4.1,0-6.2c0-0.2,0-0.4,0-0.6   c-0.1-3.6-2.2-4.3-5.1-3.1c-0.6,0.2-0.7,0.6-0.7,1.2c0,3.6,0,7.1,0,10.7c0,0.3,0.1,0.7-0.1,1c-1.4,0-2.9,0-4.4,0   c-0.2-0.3-0.1-0.7-0.1-1c0-7.4,0-14.9,0-22.3c0-0.8,0.2-1.1,0.9-1.3c1.2-0.4,2.4-1,3.7-1.5c0,3.1,0,6.1,0,9.2   c1.5-0.4,2.8-0.7,4.2-0.6c3.3,0.4,5.2,2,6,5.2c0,0.1,0,0.3,0.2,0.4C110.5,106.6,110.5,110.6,110.5,114.6z"/>
	<path class="st1" d="M55.2,114.9c-0.2-0.3-0.6-0.2-0.8-0.3c-3.9-1-6.5-4.4-6.5-8.5c0-3,0.7-5.6,3.1-7.5c3.9-3.1,11-2.8,12.9,4.8   c0.3,1.1,0.4,2.2,0.3,3.4c-3.8,0-7.6,0-11.4,0c-0.1,1.2,0.4,2.1,1.2,2.8c1.8,1.3,3.7,1.4,5.7,0.5c0.8-0.3,1.5-0.9,2.2-1.5   c0.7,1.2,1.3,2.3,2,3.5c-1.6,1.4-3.5,2.2-5.6,2.7C57.2,114.9,56.2,114.9,55.2,114.9z M53.1,103.3c1.9,0,3.8,0,5.7,0   c-0.3-1.5-1.3-2.3-2.7-2.4C54.6,100.9,53.5,101.8,53.1,103.3z"/>
	<path class="st1" d="M37.8,114.9c-1.6-0.5-3.3-1-4.6-2.2c-2.8-2.7-3.4-6-2.6-9.6c0.8-3.3,2.9-5.3,6.3-6c4.6-1,8.5,1.8,9.5,6.8   c0.2,0.9,0.2,1.9,0.2,2.9c-3.8,0-7.6,0-11.4,0c-0.2,1.2,0.3,2,1.1,2.7c1.5,1.4,4.1,1.6,6.1,0.4c0.6-0.4,1.2-0.8,1.9-1.2   c0.1,0.1,0.2,0.2,0.2,0.3c0.6,1,1.2,2,1.8,3.1c-1.6,1.5-3.6,2.2-5.6,2.7C39.8,114.9,38.8,114.9,37.8,114.9z M35.6,103.3   c1.9,0,3.8,0,5.7,0c-0.3-1.4-1.3-2.3-2.6-2.4C37.2,100.9,36,101.8,35.6,103.3z"/>
	<path class="st1" d="M85.1,114.9c-0.7-0.2-1.5-0.4-2.2-0.7c-3.8-1.5-5.9-5.2-5.4-9.5c0.6-4.2,3.6-7.2,7.6-7.7   c2.9-0.4,5.5,0.7,8.2,1.7c-0.6,1.3-1.2,2.5-1.8,3.7c-1.5-0.5-2.8-1.1-4.3-1.3c-2.8-0.4-5,1.5-5.1,4.3c0,0.6,0,1.2,0.1,1.8   c0.4,2.4,2.5,3.8,4.9,3.5c1.6-0.2,3.1-0.7,4.6-1.3c0.6,1.2,1.2,2.4,1.8,3.7c-1.6,0.8-3.3,1.2-5,1.6c-0.2,0-0.4,0-0.6,0.2   C87.2,114.9,86.1,114.9,85.1,114.9z"/>
	<path class="st1" d="M71.2,114.9L71.2,114.9c-3.3-1.4-3.8-2.2-3.8-5.7c0-2.6,0-5.2,0-7.9c-0.9,0-1.8,0-2.7,0c0-1.3,0-2.5,0-3.8   c0.9,0,1.8,0,2.7,0c0-1,0-1.9,0-2.8c0-0.4,0.1-0.6,0.4-0.8c1.3-0.7,2.7-1.5,4.2-2.3c0,2,0,3.9,0,6c1.4,0,2.8,0,4.2,0   c0,1.3,0,2.5,0,3.8c-1.3,0-2.7,0-4,0c-0.2,0.7-0.1,1.2-0.1,1.8c0,2.3-0.1,4.5,0.1,6.8c0.1,0.8,0.4,1,1.1,0.9   c0.8-0.1,1.5-0.6,2.3-0.9c0.6,1.2,1.2,2.3,1.7,3.5c-1.3,0.9-2.8,1.1-4.2,1.6C72.4,114.9,71.8,114.9,71.2,114.9z"/>
	<path class="st0" d="M52,41c-0.2-0.5-0.5-0.6-0.7-0.9c-0.8-0.9-0.7-1.9,0.3-2.5c0.7-0.4,0.8-0.7,0.6-1.5c-0.6-1.6,0.1-2.5,1.8-2.4   c1.7,0,3.4,0.2,5.1,0.4c0.5,0,0.9,0.1,1.4,0.1c1.5,0.1,2-0.7,1.6-2.1c-0.5-1.7-1.1-3.4-1.6-5.1c-0.3-1.2,0.3-2.4,1.4-2.9   c0.7-0.3,1.3-0.2,1.5,0.6c1,3.4,3.2,6,5.4,8.6c0.8,0.9,1.6,1.9,2.3,3c0.3,0.6,0.8,1.1,1.6,1.2c0.5,0.1,0.7,0.4,0.7,0.9   c0,2.5,0,4.9,0,7.4c0,0.4-0.2,0.7-0.6,0.8c-2.5,0.4-4.9,1.5-7.4,2c-3.2,0.5-6.4,0.5-9.5,0.1c-1-0.1-2-0.6-2.9-1.1   c-0.8-0.4-1-1-0.6-1.8c0.3-0.6,0.2-1.1-0.4-1.5c-1.2-0.9-1.3-1.6-0.3-2.7C51.7,41.4,51.8,41.2,52,41z"/>
	<path class="st0" d="M53.1,103.3c0.4-1.5,1.6-2.4,3.1-2.4c1.3,0,2.3,0.9,2.7,2.4C56.9,103.3,55,103.3,53.1,103.3z"/>
	<path class="st0" d="M35.6,103.3c0.4-1.5,1.6-2.4,3.1-2.4c1.3,0,2.3,0.9,2.6,2.4C39.5,103.3,37.5,103.3,35.6,103.3z"/>
</g>
</svg>