<?xml version="1.0" encoding="utf-8"?>
<!-- Generator: Adobe Illustrator 21.0.0, SVG Export Plug-In . SVG Version: 6.00 Build 0)  -->
<svg version="1.1" id="Layer_1" xmlns="http://www.w3.org/2000/svg" xmlns:xlink="http://www.w3.org/1999/xlink" x="0px" y="0px"
	 viewBox="0 0 1379.5 318.8" style="enable-background:new 0 0 1379.5 318.8;" xml:space="preserve">
<style type="text/css">
	.st0{fill:#00529B;}
	.st1{fill:#009D58;}
	.st2{fill:#F37937;}
	.st3{fill:#EC1C24;}
	.st4{fill:#00529C;}
	.st5{fill:#01529C;}
	.st6{fill:#01539C;}
	.st7{fill:#02539C;}
	.st8{fill:#03549C;}
	.st9{fill:#03539C;}
	.st10{fill:#06559D;}
	.st11{fill:#F69765;}
	.st12{fill:#1A63A6;}
	.st13{fill:#0099D9;}
	.st14{fill:#09589F;}
	.st15{fill:#08579F;}
	.st16{fill:#0B59A0;}
	.st17{fill:#0A599F;}
	.st18{fill:#2D71AD;}
	.st19{fill:#3475B0;}
	.st20{fill:#3374B0;}
</style>
<g>
	<path class="st0" d="M817.3,271.5c8.3,0,16.7,0.1,25,0c2.7,0,4.6,0.1,5.1,3.7c0.5,3.9,3.6,6.3,7.4,7.4c8.3,2.3,16.8,2.6,25.2,0.4
		c5.9-1.5,8.6-5.1,8.3-10.3c-0.2-4.8-3.3-7.9-9.2-8.9c-18.1-3-36.1-6.3-54.2-8.9c-33.6-4.8-40.1-30.4-34.4-52.9
		c3.2-12.6,12-20.4,23.7-25.2c15.8-6.5,32.4-7.3,49.1-7.2c14.9,0.1,29.7,1.1,44,5.5c16.5,5.1,29.4,14.1,33.5,32.2c1.8,8,1.8,8-6.2,8
		c-15.3,0-30.7,0-46,0c-2.7,0-4.6-0.1-5.1-3.6c-0.6-3.9-3.7-6.2-7.3-7.6c-9.2-3.6-18.6-3.7-27.9-1c-4.2,1.2-7,4-6.8,8.7
		c0.2,4.9,3.9,6.1,7.9,6.8c20.7,3.4,41.4,6.6,62.1,10.4c13.3,2.5,25.1,8.1,31.8,21c10.5,20.2,2.4,46.7-17.5,57.7
		c-11.8,6.5-24.7,8.8-37.9,10c-22,2.1-44,1.8-65.5-3.9c-14.4-3.8-26.6-10.7-32.4-25.5c-1.6-4.1-2.3-8.3-2.8-12.6
		c-0.3-3,0.6-4.1,3.7-4C799.6,271.6,808.5,271.5,817.3,271.5z"/>
	<path class="st0" d="M1167.9,228.9c-8,0-16,0-24,0c-2.1,0-3.5-0.1-4.3-2.8c-4.8-16-12.6-21.9-27.9-21.5c-15.3,0.4-25.3,8.2-29,23.3
		c-2.8,11.3-2.6,22.8,0.5,34.1c3.8,13.5,13.2,20.6,27,20.9c15.2,0.3,24.1-5.6,28.7-19.7c1-3.2,2.3-4.4,5.8-4.4
		c15.7,0.2,31.3,0.2,47,0c3.4,0,4.9,0.5,3.7,4.4c-1.5,4.6-2.2,9.4-3.7,14c-6.6,20.1-20.7,32.2-41,37c-23.8,5.6-47.9,6.1-71.8,0.7
		c-29.2-6.5-45.7-25.1-49.6-54.7c-1.7-12.6-1.6-25.2,0.8-37.8c4.9-25.5,19.5-42.6,44.8-48.8c26.6-6.6,53.6-6.9,79.9,1.2
		c24.9,7.6,37.1,26.1,41.1,51c0.4,2.7-0.8,3-3,3C1184.6,228.9,1176.3,228.9,1167.9,228.9z"/>
	<path class="st0" d="M471.2,243.8c0-21.7,0.1-43.3-0.1-65c0-3.6,0.7-4.8,4.6-4.8c41.3,0.1,82.7,0.1,124,0c3.7,0,4.8,1,4.7,4.7
		c-0.3,8.3-0.3,16.7,0,25c0.1,3.8-1,4.7-4.7,4.7c-24.5-0.2-49,0.1-73.5-0.2c-4.6,0-5.8,1.3-5.3,5.6c0.5,4.1-1.7,9.4,0.8,12.1
		c2.6,2.7,7.9,0.8,12,0.8c20,0.1,40,0.1,60,0c3.5,0,5,0.6,4.8,4.6c-0.3,8.3-0.3,16.7,0,25c0.1,3.7-0.8,4.8-4.6,4.7
		c-22.7-0.2-45.3,0-68-0.2c-3.8,0-5.5,0.7-5,4.9c0.4,3.1,0.3,6.3,0,9.5c-0.3,3.6,1.2,4.4,4.5,4.4c24.7-0.1,49.3,0,74-0.2
		c3.8,0,5.2,0.7,5,4.8c-0.3,8.3-0.2,16.7,0,25c0.1,3.2-0.7,4.3-4.1,4.3c-41.7-0.1-83.3-0.1-125,0c-3.2,0-4.2-0.8-4.2-4.2
		C471.2,287.5,471.2,265.7,471.2,243.8z"/>
	<path class="st0" d="M1013,243.7c0,21.5-0.2,43,0.1,64.4c0.1,4.7-1.4,5.4-5.6,5.4c-13.3-0.3-26.6-0.2-40,0c-3.5,0.1-4.4-1-4.4-4.5
		c0.1-43.5,0.1-86.9,0-130.4c0-3.3,0.6-4.7,4.3-4.6c13.8,0.2,27.6,0.2,41.5,0c3.3,0,4.2,0.9,4.2,4.2
		C1013,200.1,1013,221.9,1013,243.7z"/>
	<path class="st1" d="M207.1,79.9c7.2-13.1,9.9-26.6,4.4-41.2c7.4,5.8,11.1,13.4,11.7,22.5c0.8,11.3-2.6,21.7-7.6,31.6
		c-0.1,3.9-3,6.5-4.6,9.7c-8,11.4-17.9,20.9-29.1,29.1c-2.7,1.9-5.2,3.9-7.8,5.9c-14.3,9.2-29.3,17-45.5,22.5
		c-3.4,1.1-6.8,2.4-10.1,3.7c-15.5,4.6-31.4,7-47.4,8.3c-3.3,0-6.6,0.7-9.6-1.4c-11.1-0.7-22.2-1.8-32.7-6.2
		c-13.8-5.7-24.8-14.2-28.2-29.8c-0.3-1.6-0.9-3.2-0.3-4.9c0.3,0,0.8-0.1,0.8,0c6.7,16.7,21,22.6,37.1,25.8c6,1.2,12.1,1.8,18.3,1.2
		c2.9-1.7,6.1-1.3,9.2-1.5c15.3-0.7,30.2-3.8,44.8-8.4c3.2-0.9,6.3-1.9,9.4-3c15.8-5.7,30.8-13,44.6-22.7c2.8-1.7,5.5-3.4,8.1-5.4
		c10.5-7.9,20.1-16.8,27.8-27.6C203.1,85.9,203.7,81.8,207.1,79.9z"/>
	<path class="st2" d="M169.4,45.7c9.3-16.6,5.1-30.3-12.2-40.4c12.6-0.9,28.3,14,29.2,27.3c0.5,7.9-1.5,15.2-4.4,22.3
		c-0.3,3.1-2,5.5-3.3,8.2c-6.7,9.7-15.1,17.7-24.2,25.2c-2.7,1.8-5.5,3.6-8.2,5.5c-12.3,8.8-26,14.8-40,20.1c-3,1-5.9,2-8.9,3
		c-13.2,3.7-26.7,6.2-40.5,6.3c-2.4,0.1-4.8,0.3-6.9-1.3c-8.2-1.2-16.4-2.3-24.1-6c-18.4-8.9-24-24.2-15.8-43c2.3,0,1.3,1.8,1.4,2.8
		c0.3,2.7-0.4,5.4,0.4,8.1c3.5,14.4,14.1,20.3,27.4,22.8c3.2,0.6,6.5,1.4,9.8,0.7c2.2-1.2,4.7-0.8,7-1.3c12-0.7,23.7-2.6,35.2-6.2
		c2.9-0.6,5.8-1.5,8.5-2.8c12.6-4.3,24.4-10.3,35.4-17.7c2.5-1.7,5.1-3.3,7.4-5.2c8.5-6.3,16.1-13.5,21.8-22.6
		C166.3,49.6,167.2,47.1,169.4,45.7z"/>
	<path class="st3" d="M227.4,146.2c-8,10.9-17.7,20-28,28.6c-1.4,2.6-4.1,3.9-6.2,5.8c-12.8,8.6-26.6,15.3-40.8,21.3
		c-2.7,0.8-5.3,1.9-7.8,3c-14.5,4.5-29,8.7-44.3,9.6c-3.5,1.1-6.9,0.9-10.3-0.3c-12.9,0.2-25.7-0.3-38-4.4
		c-12.3-4.1-23.4-10.1-31.4-21C38.8,200,58.7,204.3,80,203.3c2.8-1.5,6-1.4,9-1.9c16.4-1.1,32.1-5.2,47.5-10.4
		c2.9-0.8,5.8-1.7,8.5-3c14.8-5.9,29.1-12.9,42.2-22.1c2.6-1.5,5-3.4,7.4-5.2c11.1-8.3,20.9-17.9,28.8-29.3c2.6-2.5,3.2-6.5,6.4-8.4
		c6.2-10.4,8.7-21.8,9.2-34.2c2.9,4.8,3.7,12.9,2.8,21c-1.1,9.9-4.6,19-8.9,27.8C231.8,140.9,230.9,144.4,227.4,146.2z"/>
	<path class="st4" d="M90,214.1c3.3-0.3,6.7-0.6,10-0.9c7.9,5.2,14.8,11.8,23.1,16.5c5.7,3.2,11.2,4.6,17.6,2.8
		c5.3-1.5,10.7-2.6,15.9-4.3c6-2,6.2-2.5,1.8-6.9c-4.4-4.4-8.1-9.2-12-14c-0.9-1.1-2.2-2.2-1.5-3.9c2.5-0.9,5-1.7,7.5-2.6
		c2.3,0.9,3.5,3,4.8,4.8c3.5,4.9,7,9.7,11,14.2c1.9,2.1,3.6,2.4,6.1,1.2c7.7-3.8,15.4-7.9,22.6-12.7c2.8-1.9,3.5-3.8,2.5-7.1
		c-1.6-5.2-3.4-10.4-5.1-15.7c-0.7-2-1.5-4.1-1.2-6.3c2.1-1.5,4.2-3,6.3-4.4c3.3,8.7,4.8,17.9,7.1,27.5c7.1-5,12.8-11.2,18.6-17.4
		c1.4,2.2-0.3,3.2-1,4.3c-28.7,45.1-90.3,66.2-140.5,48.2c-0.5-0.2-0.9-0.5-1.3-0.7c0.4-2.4,1.9-1.2,3.1-1c12.2,1.4,24.4,2.1,38,0.8
		C110.2,230.5,99,223.8,90,214.1z"/>
	<path class="st5" d="M89.7,202.6c-3.2,0.7-6.4,1.2-9.7,0.7c-7.5-10.1-13.9-20.9-18.5-32.6c3.1,0,6.3,0,9.4-0.1
		c1.5,0.9,2.4,2.3,3.1,3.8c3.9,8.6,9,16.5,14.5,24.1C89.2,199.7,90.2,200.9,89.7,202.6z"/>
	<path class="st6" d="M177.9,62.2c1.4-2.4,2.7-4.9,4.1-7.3c9.4,7.2,17.1,16.3,25.1,25c-1.8,2.9-3.6,5.8-5.4,8.7
		c-1,0.2-1.6-0.4-2-1.1c-5.9-8.2-13-15.3-20.2-22.3C178.7,64.3,178,63.4,177.9,62.2z"/>
	<path class="st7" d="M229.8,122.9c-1.5,3.2-3.1,6.3-5.6,8.9c-1.2-0.4-1.8-1.4-2.2-2.5c-3.2-8.3-6.9-16.4-10.9-24.2
		c-0.5-1.1-0.5-2.2-0.8-3.3c1.8-3,3.6-6,5.4-8.9C221.6,102.3,225.9,112.5,229.8,122.9z"/>
	<path class="st7" d="M50.1,121.8c2.4,0,4.8,0,7.2,0.1c0.8,0.8,1.6,1.8,1.7,2.9c1.2,10,4.1,19.7,6.4,29.5c0.2,0.8,0.1,1.6-0.3,2.4
		c-2.9,0-5.8,0.1-8.7,0.1C53.3,145.3,50.7,133.7,50.1,121.8z"/>
	<path class="st8" d="M52.4,75.6c2,0,4,0.1,5.9,0.1c2.1,2.8,0.6,5.8,0.5,8.7c-0.3,6-1.4,11.9-1.1,17.9c0.1,1.6-0.1,3.3-1.4,4.7
		c-2.3,0.9-4.7,0.5-7,0.2C49,96.5,50.4,86,52.4,75.6z"/>
	<path class="st9" d="M140,36.8c0.3-2,1.5-3.3,3.1-4.4c9.4,3.1,17.9,7.9,26.2,13.2c-0.8,2.4-2,4.5-3.8,6.3c-0.3,0.1-0.7,0.3-1,0.2
		c-8.1-4.5-16-9.5-24.1-13.9C140.1,37.9,140,37.3,140,36.8z"/>
	<path class="st10" d="M227.4,146.2c1.8-2.9,3.6-5.8,5.5-8.7c2.3,12.8,1.7,25.4-1.9,38C230.1,165.6,230.1,155.7,227.4,146.2z"/>
	<path class="st11" d="M12,83.7c-2.4-3.4,0.6-7.6-1.8-11c0.3-1.6,0.5-3.2,2.8-3.8C11.8,73.9,12,78.8,12,83.7z"/>
	<path class="st12" d="M85.3,235.6c-1.1,0.3-2.3-0.1-3.1,1c-1.3,0-2.4-0.5-4.1-2C81,234.3,83.2,234.7,85.3,235.6z"/>
	<path class="st0" d="M1296.3,318.5c-16.9,0-31-1-44.7-5.4c-22.8-7.2-36.2-22.9-41.2-45.9c-3.3-15.5-3.3-31.1,0-46.6
		c5.5-25.5,21.1-41.6,46.4-47.4c24.5-5.6,49.4-5.7,73.9,0c25.9,6,41.5,22.6,46.7,48.9c2.8,14.2,3,28.5,0.2,42.7
		c-5.7,28.6-22.5,45.4-51.2,51C1315.5,317.8,1304.6,318.7,1296.3,318.5z M1326,233.8c-2-16.5-10.6-26.2-25.2-28.7
		c-19.9-3.4-34.8,5.9-38.5,24.2c-1.9,9.6-2,19.2,0,28.8c2.3,11.2,7.9,19.8,19.4,23.3c8,2.4,16.1,2.4,24.1,0
		c7.4-2.2,12.8-6.9,16.3-13.8c3.7-7.5,4.4-15.6,4.6-25.1C1326.4,240.4,1326.4,237.1,1326,233.8z"/>
	<path class="st0" d="M625,243.2c0-21.7,0-43.3,0-65c0-2.7,0.2-4.2,3.7-4.2c34.5,0.2,69,0.2,103.4,0.4c3.8,0,7.7,0.5,11.4,1.3
		c15.9,3.3,26,12.7,29.7,28.7c2.5,10.7,2.8,21.5,0.7,32.2c-3.8,19.2-17.4,31-37.5,33c-8.3,0.8-16.6,0.5-25,0.6
		c-12.1,0.2-24.3-0.6-36.4,0.4c-1.4,12.1-0.2,24.2-0.6,36.3c0,0.8-0.1,1.7,0,2.5c0.4,3.1-0.8,4-3.9,3.9c-13.8-0.2-27.7-0.2-41.5,0
		c-3.5,0.1-4.1-1.2-4.1-4.3C625.1,287.2,625,265.2,625,243.2z M693.7,235.9c5.7,0,11.3,0.3,17-0.1c8.8-0.6,12.5-4.8,12.7-13.4
		c0.2-9.4-3.3-14.3-12.3-14.8c-11.3-0.7-22.6-0.3-33.9-0.5c-2.7,0-2.8,1.5-2.8,3.6c0.1,7.2,0.1,14.3,0,21.5c-0.1,3,0.7,4.2,3.9,4
		c5.2-0.2,10.3-0.1,15.5-0.1C693.7,236,693.7,235.9,693.7,235.9z"/>
	<path class="st0" d="M304.9,243.6c0-21.7,0-43.3,0-65c0-2.8,0-4.6,3.8-4.6c34.3,0.3,68.6,0.3,102.9,0.5c3.8,0,7.7,0.5,11.4,1.3
		c15.4,3.1,25.7,12,29.7,27.4c2.9,11.1,3.3,22.4,0.9,33.7c-4.2,19.7-17.6,31.3-38.1,32.8c-18.5,1.4-37,0.5-55.4,0.5
		c-4.9,0-6.1,1.4-5.9,6.1c0.4,11,0,22,0.2,33c0.1,3.2-0.8,4.3-4.1,4.3c-13.7-0.2-27.3-0.2-41,0c-3.5,0-4.5-1-4.5-4.5
		C305,287.2,304.9,265.4,304.9,243.6z M354.2,232.9c0,2.4,0.7,3.2,3.1,3.2c5.3-0.1,10.7,0,16,0c0-0.1,0-0.1,0-0.2
		c5.8,0,11.7,0.3,17.5-0.1c8.6-0.6,12.4-5,12.4-13.7c0.1-9.2-3.4-13.9-12.2-14.5c-11.3-0.7-22.6-0.4-33.9-0.5c-2.1,0-3,0.6-2.9,2.9"
		/>
	<path class="st5" d="M153.7,87.3c7.1,9.3,13.8,18.9,19.7,29.1c-2.4,2.2-5,4.1-8,5.4c-6.1-9.9-12.5-19.6-19.3-29
		C148.6,91,151.2,89.2,153.7,87.3z"/>
	<path class="st5" d="M111.3,147.8c-5-10.5-9.8-21.2-13.6-32.2c2.7-1.6,5.6-2.3,8.6-2.9c4.7,10.7,9.4,21.3,14,32
		C117.5,146.5,114.5,147.3,111.3,147.8z"/>
	<path class="st6" d="M136.9,192.1c-6.5-9.5-12.7-19.2-17.8-29.6c2.6-2,6-2.3,9-3.6c4.7,10.6,10.8,20.5,16.9,30.3
		C142.2,190.2,139.5,191.1,136.9,192.1z"/>
	<path class="st5" d="M181.4,130.8c5.3,9.9,9.6,20.2,13.8,30.6c-2.1,2-4.3,3.7-6.9,5c-4.8-9.9-9.5-19.9-14.3-29.8
		C176,134,178.8,132.5,181.4,130.8z"/>
	<path class="st7" d="M92.3,100.6c-2.8-9.2-5.7-18.4-7.3-28c1.6-1.8,3.8-2,6-2.1c3.1,9.1,6.3,18.2,9.4,27.3
		C97.9,99.5,95.2,100.2,92.3,100.6z"/>
	<path class="st5" d="M123,53.8c7,6.7,14,13.4,20.2,20.9c-2,2.2-4.4,3.8-7.1,5.1c-6.1-7.1-12.1-14.3-18.2-21.4
		C118.6,55.8,121.3,55.3,123,53.8z"/>
	<path class="st13" d="M52.4,75.6c-4.5-1.3-9.1-1.6-13.4-3.8c-8.8-4.5-12.3-11.9-9.9-21.5c1.9-7.5,6.1-13.7,11.6-19
		c22-21,48.5-30.9,78.7-31.4c3.1,0,6.3,0.8,9.3,1.6c14.6,3.7,19.7,13.2,15,27.5c-0.4,1.1-0.8,2.2-0.5,3.4c-0.1,2-1.7,3.1-2.5,4.7
		c-4.5,6.8-10,12.6-16.8,17.2c-2,1.4-3.9,3-5.7,4.8c-8.8,4.5-17.6,9.1-27.1,12.4c-2.2,0.6-4.3,1.3-6.5,2C75.8,75.2,67,76.8,58,77.1
		C56,77.1,53.9,77.2,52.4,75.6z M81.8,42.8c0.5,2.1,0.9,4.5,1.7,6.8c1.2,3.3,0.9,7.3,4,9.9c7.3-2.8,15-4.9,20.8-10.7
		c-3.7-5.6-8.6-10-14-14c-0.4-0.2-0.5-0.3-0.4-0.6c0.1,0.2,0.3,0.4,0.5,0.5c3.7,2.3,7.4,4.7,11.2,7c2.4,1.5,4.2,4.2,7.5,4.2
		c6.1-3.3,10.9-8.1,14.6-14c-0.8-1.7-2.5-2.1-4-2.6c-6.6-2.3-13.3-3.9-20.2-4.6c-0.7,0-1.3,0-2,0c3.2-0.2,6.3,0.2,9.3,1
		c4.1,0.5,8.1,1.3,12.1,2.1c2.4,0.5,4.8,1.6,7.2,0.2c5.1-9.4,2.5-17.4-7.2-21.4c-5.6-2.3-11.6-2.9-17.6-2.4
		c-15.9,1.3-30.4,6.6-43.8,15.2C53.1,24.7,45.3,31,40.6,40.2C34.1,53.1,41.6,64.3,56,63.7c1.7-0.8,2-2.5,2.6-4
		c2.1-5.9,5.1-11.5,8.2-17c0.2-0.3,0.2-0.7,0.5-0.9c-0.1,0.4-0.3,0.9-0.5,1.3c-0.3,0.4-0.5,0.8-0.7,1.2c-0.9,1.7-1.9,3.5-2.3,5.4
		c-1.2,4.7-4.3,9-2.8,14.2c5.5,1.5,10.8-0.4,16.1-1.3c1.9-0.3,4.5,0,5.6-2.5C84.2,54.1,81.7,48.3,81.8,42.8z"/>
	<path class="st14" d="M94.3,33.6c6.9,3.2,13,7.7,18.9,12.4c-1.2,1.7-2.6,2.9-4.8,2.9c-5.1-4.7-10.2-9.4-15.3-14.1
		C93,33.7,93.2,33.2,94.3,33.6z"/>
	<path class="st15" d="M67.2,43.7c-2.1,6.7-4.2,13.4-6.4,20.2c-1.6,0.8-3.2,1.4-4.8-0.2c2.2-7.9,5.6-15.2,10.1-22
		C68,41.6,67.8,42.6,67.2,43.7z"/>
	<path class="st16" d="M110.5,24.5c6.7,0.2,13.2,1.9,19.7,3.4c-0.3,1.6-0.9,3-2.3,4c-8-2.7-16.3-4.9-24.6-6.4
		C105.3,22.9,108,24.5,110.5,24.5z"/>
	<path class="st17" d="M82.5,60c-1.3-7.4-2.1-14.8-2-22.3c0.4-0.1,0.8-0.2,1.3-0.2c1.9,7.3,3.9,14.7,5.8,22
		C85.9,60.3,84.3,61.2,82.5,60z"/>
	<path class="st18" d="M110.5,24.5c-2.3,0.8-5-0.8-7.2,1c-1.9,0.1-3.8,0-6.8-2C102,23.7,106.3,23.3,110.5,24.5z"/>
	<path class="st19" d="M67.2,43.7c-0.1-0.8-0.1-1.6-1-2c0.6-1.5,0.8-3.3,2.8-3.8C69.7,40.3,68.2,41.9,67.2,43.7z"/>
	<path class="st20" d="M94.3,33.6c-0.4,0.4-0.8,0.8-1.2,1.1c-0.9-0.5-2.6-1.1-1.8-2.1C92.2,31.4,93.5,32.7,94.3,33.6z"/>
</g>
</svg>
