<?xml version="1.0" encoding="utf-8"?>
<!-- Generator: Adobe Illustrator 21.0.0, SVG Export Plug-In . SVG Version: 6.00 Build 0)  -->
<svg version="1.1" id="Layer_1" xmlns="http://www.w3.org/2000/svg" xmlns:xlink="http://www.w3.org/1999/xlink" x="0px" y="0px"
	 viewBox="0 0 416.5 76.9" style="enable-background:new 0 0 416.5 76.9;" xml:space="preserve">
<style type="text/css">
	.st0{fill:#19A8B6;}
	.st1{fill:#1AA9B6;}
	.st2{fill:#1CAAB7;}
</style>
<g>
	<path class="st0" d="M179.7,46.2c0-3.7-0.1-7.3,0-11c0.6-17.6,16.2-26.9,32.1-18.9c2.5,1.3,4.1,1.4,6.7,0.1
		c15.7-8.1,31.7,1.3,32.3,18.8c0.3,8,0,16,0.1,24c0,2.7-0.9,3.9-3.7,3.9c-12.6-0.2-10.1,1.2-10.3-9.8c-0.1-5.7,0-11.3,0-17
		c0-1.8-0.2-3.7-0.6-5.4c-0.9-3.5-3.3-5.3-6.9-5.2c-3.7,0.1-5.9,2.2-6.5,5.7c-1.5,8.3-0.3,16.6-0.8,24.9c-0.1,2.2,1.4,5.5-1.3,6.3
		c-3.6,1.1-7.6,1-11.3-0.1c-1.6-0.5-1.1-2.6-1.1-4.1c0-6.7,0-13.3,0-20c0-2-0.1-4-0.3-6c-0.5-4.1-2.7-6.8-7.1-6.8
		c-4.5,0-6.7,3-6.9,7c-0.3,6.8-0.1,13.6-0.2,20.5c-0.2,11.2,1.9,9.7-10.2,9.9c-2.8,0.1-3.9-1-3.8-3.8
		C179.8,54.9,179.7,50.6,179.7,46.2C179.7,46.2,179.7,46.2,179.7,46.2z"/>
	<path class="st0" d="M82,32.6c0-8.3,0.2-16.7-0.1-25c-0.1-4,1.7-6,5.3-6.5c6.3-1,12.6-1.6,18.9-0.7c13.3,2,19.3,9.6,18.6,23.2
		c-0.6,11.2-8.1,18.3-20.3,19.1C96,43.4,96,43.4,96,51.7c0,1.3,0,2.7,0,4c0,7.3,0,7.3-7.2,7.2C82,63,82,63,82,56.1
		C82,48.3,82,40.5,82,32.6z M106.4,30.7c5.1-1.3,7.5-5.7,6.4-11.7c-1-5.5-5.6-8-13.9-7c-5.6,0.7-1.8,5.3-2.9,7.8c-0.2,0.4,0,1,0,1.5
		C96,31.6,97.6,33,106.4,30.7z"/>
	<path class="st0" d="M319.7,33.3c4.7-6.2,8.5-11.2,12.3-16.2c2-2.6,11.5-4.6,14.2-3c1.8,1.1,0.4,2.3-0.3,3.2
		c-4.3,5.7-8.4,11.6-13,17.1c-2.6,3-2.3,5.1,0.1,8c4.4,5.4,8.5,11.1,12.7,16.7c0.7,0.9,1.8,1.8,1.2,3c-0.7,1.4-2.1,0.6-3.1,0.8
		c-6.3,0.9-11.2-0.7-14.5-6.8c-2.3-4.1-5.7-7.7-9.5-12.7c0,6-0.1,10.5,0,15.1c0.1,3.1-0.8,4.5-4.2,4.5c-11.8-0.2-9.6,1.1-9.6-9.4
		c-0.1-16.2,0.1-32.3-0.1-48.5c0-3.9,1.1-5.6,5.1-5.1c1.3,0.2,2.7,0.2,4,0c3.6-0.4,5,1,4.9,4.8C319.5,13.8,319.7,22.8,319.7,33.3z"
		/>
	<path class="st0" d="M373.8,45.2c0.4-4.9-0.7-10.7,0.9-16.5c2.8-10.5,10.3-15.4,22.8-14.8c10,0.5,17,7,18.3,17.1
		c1.2,9.4,0.4,18.9,0.6,28.4c0,2.4-1,3.4-3.6,3.5c-10.5,0.6-10.5,0.7-10.5-9.6c0-6.3,0.1-12.6,0-19c-0.1-3.2-0.7-6.4-3.9-8.1
		c-5-2.6-10,0.5-10.3,6.8c-0.4,8-0.5,16-0.2,23.9c0.2,4.5-1.1,6.1-5.8,5.9c-9.2-0.4-8.1,0.7-8.1-8C373.8,52.1,373.8,49.1,373.8,45.2
		z"/>
	<path class="st0" d="M130.9,30.5c0-4.3,0.1-8.7,0-13c-0.1-2.6,1-3.4,3.5-3.5c10.5-0.6,10.5-0.7,10.5,9.5c0,5.7-0.1,11.3,0,17
		c0,1.8,0.3,3.6,0.7,5.4c0.8,3.5,3.1,5.3,6.8,5.3c3.8,0,5.9-2.1,6.6-5.6c1.6-8.6,0.3-17.3,0.8-25.9c0.1-1.9-1.4-5.1,1.7-5.4
		c3.7-0.4,7.6-1,11.3,0.5c0.6,0.2,0.7,2.1,0.7,3.2c0.1,7.8,0.2,15.7,0,23.5C173,58.7,158.2,68,142.2,61
		c-7.8-3.4-10.6-10.2-11.2-18.1c-0.3-4.1-0.1-8.3-0.1-12.5C130.9,30.5,130.9,30.5,130.9,30.5z"/>
	<path class="st1" d="M353.7,38c0-6.7,0.1-13.3,0-20c-0.1-3,0.8-4.2,4-4.1c11.7,0.3,10-1.3,10,9.5c0.1,11.7-0.1,23.3,0.1,35
		c0,3.4-1.1,4.7-4.6,4.6c-11.1-0.3-9.3,1.3-9.4-9.1C353.6,48.6,353.7,43.3,353.7,38z"/>
	<path class="st2" d="M360.6,10.1c-7.1,0-7.7-0.8-6.9-7.1c0.3-2.1,1.2-2.9,3.2-2.9c1.2,0,2.3,0,3.5,0c3.7,0.1,7.6-1.2,7.5,5.3
		C367.8,11.8,363.7,9.8,360.6,10.1z"/>
	<path class="st0" d="M65.7,31.8c0,4.3,0.6,8.7-0.1,12.9c-2.1,12.9-13.8,20.1-28.8,17.9c-2.5-0.4-4.9-0.4-7.4,0
		C11.2,65.2,0,55.5,0,37.3c0-4.2,0-8.3,0-12.5C0,10.4,7.2,1.7,21.4,0.5c8.4-0.7,16.9-0.6,25.2,0.4c12.4,1.4,19,9.6,19.3,22
		c0.1,3,0,6,0,9C65.9,31.8,65.8,31.8,65.7,31.8z M29.5,44.8c0.6,1.7,1.4,3.8,3.4,3.9c2.2,0.1,3.5-2.1,3.8-4c1.4-8.7,1.2-17.5,0-26.2
		c-0.3-1.8-1.5-3.8-3.4-3.9c-2.3-0.1-3.2,2.1-3.8,4c-1.4,4.2-0.4,8.6-0.8,12.8C29,35.9,27.9,40.4,29.5,44.8z M54.2,41.9
		c0.3-6.8,0.3-13.7,0-20.5c-0.2-4-2.2-7.2-6.5-8.5c1.7,12.4,2.1,24.5-0.2,37.1C52.1,49.1,54.1,45.9,54.2,41.9z M17.4,18.9
		c0.1-1.8,2.4-4.5-0.1-5.2c-2.1-0.6-3.8,2.2-4.7,4.4c-0.4,1.1-0.8,2.2-0.8,3.4c-0.1,6.7-0.2,13.3,0,20c0.1,4.1,1.9,7.3,6.8,8.8
		C16.1,39.4,16.9,29.2,17.4,18.9z"/>
	<path class="st0" d="M257,46.6c0-8.7,0.1-17.3-0.1-26c-0.1-3.3,1.4-5,4.3-5.6c6.7-1.4,13.6-1.8,20.3-0.5c12.2,2.3,19.2,12.7,18,26
		c-1.3,13.8-9.2,21.9-22.1,22.5c-6.7,0.3-6.5,0.3-6.7,7c-0.1,2.1,1.5,5.4-1.3,6.2c-3.6,1-7.6,0.9-11.3-0.1c-1.7-0.5-1.1-2.6-1.1-4
		C257,63.6,257,55.1,257,46.6z M270.8,48.5c0,1.4,0.1,2.4,2,2.7c8.1,1.5,13.9-2.2,14.9-9.8c1.3-9.7-2.7-15.4-11-15.9
		c-4-0.2-6.8,0.5-5.9,5.6c0.4,2.3,0.1,4.6,0.1,7C270.9,41.5,270.9,45,270.8,48.5z"/>
</g>
</svg>
