<?xml version="1.0" encoding="UTF-8" standalone="no"?>
<!-- Created with Inkscape (http://www.inkscape.org/) -->

<svg
   xmlns:dc="http://purl.org/dc/elements/1.1/"
   xmlns:cc="http://creativecommons.org/ns#"
   xmlns:rdf="http://www.w3.org/1999/02/22-rdf-syntax-ns#"
   xmlns:svg="http://www.w3.org/2000/svg"
   xmlns="http://www.w3.org/2000/svg"
   xmlns:sodipodi="http://sodipodi.sourceforge.net/DTD/sodipodi-0.dtd"
   xmlns:inkscape="http://www.inkscape.org/namespaces/inkscape"
   version="1.1"
   id="svg8515"
   width="562.66669"
   height="109.33333"
   viewBox="0 0 562.66669 109.33333"
   sodipodi:docname="pumpkin.svg"
   inkscape:version="0.92.0 r15299">
  <metadata
     id="metadata8521">
    <rdf:RDF>
      <cc:Work
         rdf:about="">
        <dc:format>image/svg+xml</dc:format>
        <dc:type
           rdf:resource="http://purl.org/dc/dcmitype/StillImage" />
        <dc:title></dc:title>
      </cc:Work>
    </rdf:RDF>
  </metadata>
  <defs
     id="defs8519" />
  <sodipodi:namedview
     pagecolor="#ffffff"
     bordercolor="#666666"
     borderopacity="1"
     objecttolerance="10"
     gridtolerance="10"
     guidetolerance="10"
     inkscape:pageopacity="0"
     inkscape:pageshadow="2"
     inkscape:window-width="1893"
     inkscape:window-height="1052"
     id="namedview8517"
     showgrid="false"
     inkscape:zoom="0.93961379"
     inkscape:cx="135.51667"
     inkscape:cy="115.63487"
     inkscape:window-x="27"
     inkscape:window-y="0"
     inkscape:window-maximized="1"
     inkscape:current-layer="svg8515" />
  <path
     style="fill:#19a8b6;stroke-width:1.33333337;fill-opacity:1"
     d="m 346.27863,105.83417 c -0.51991,-0.51991 -0.94528,-18.575899 -0.94528,-40.124429 V 26.530595 l 4.89837,-2.04667 c 3.61427,-1.510139 8.44933,-1.929218 18.44398,-1.598631 12.32868,0.407787 14.12805,0.808468 20.02862,4.459937 7.82484,4.842276 12.43499,12.907824 13.54934,23.704898 2.19593,21.276478 -10.72227,36.949868 -30.45451,36.949868 h -7.67729 l -0.39426,9 -0.39425,9.000003 -8.05472,0.38972 c -4.4301,0.21435 -8.4801,-0.0357 -9,-0.55555 z m 32.80904,-35.385296 c 4.30788,-2.294392 6.01819,-5.115381 7.02163,-11.581578 2.0103,-12.954404 -3.74455,-20.200631 -16.04307,-20.200631 h -6.06621 v 16.666667 16.666666 h 6.08765 c 3.34821,0 7.39821,-0.698006 9,-1.551124 z M 112.88889,87.111108 C 112.4,86.62222 112,69.015213 112,47.984427 112,2.1088175 110.60473,5.4441198 130.23826,4.3871537 c 25.2628,-1.3600167 37.04367,6.1340583 38.7038,24.6203483 1.78245,19.848483 -7.89904,30.692958 -28.60872,32.045287 l -9.66667,0.631228 v 13.15799 13.15799 h -8.44444 c -4.64445,0 -8.84445,-0.4 -9.33334,-0.888889 z m 34.23469,-43.258139 c 6.61456,-3.013796 8.22807,-13.357843 3.02683,-19.404655 -2.79563,-3.250101 -4.13418,-3.705332 -11,-3.741017 L 131.33334,20.666667 130.94997,33 130.5666,45.333333 h 6.65397 c 3.65968,0 8.11604,-0.666163 9.90301,-1.480364 z m 45.48793,41.64081 c -6.57584,-2.98699 -12.0441,-9.235888 -13.88616,-15.868521 -0.75742,-2.727227 -1.38049,-14.408593 -1.38457,-25.958593 l -0.007,-20.999999 h 9.2436 9.2436 l 0.42307,21.864015 c 0.3729,19.271816 0.72421,22.196298 2.96305,24.666666 2.85391,3.149037 8.43966,3.663548 11.94514,1.100283 3.51518,-2.570368 4.7813,-10.463301 4.8164,-30.025218 l 0.0318,-17.727586 9,0.394253 9,0.394254 -0.0247,22.666666 c -0.0224,20.521764 -0.2928,23.171348 -2.85812,27.999999 -1.5584,2.933333 -3.96925,6.36045 -5.35746,7.615816 -7.20199,6.512815 -23.22175,8.386945 -33.14825,3.877965 z m 50.05517,-19.947272 c 0,-22.06503 0.0833,-22.734796 3.6854,-29.629987 4.94637,-9.468449 11.86496,-13.249854 24.24238,-13.249854 6.0922,0 10.40607,0.797561 13.87233,2.564753 4.94965,2.523481 5.12048,2.523952 10.61525,0.02928 6.67104,-3.028705 20.32465,-3.434826 26.64829,-0.792644 5.69872,2.381079 12.44916,10.22856 14.18951,16.495496 0.76925,2.770045 1.40199,14.486445 1.40607,26.036444 l 0.007,21.000002 h -9.2436 -9.2436 l -0.42307,-21.864015 c -0.37291,-19.271815 -0.72421,-22.196298 -2.96305,-24.666666 -3.79746,-4.190158 -10.75571,-3.783473 -13.76262,0.804377 -1.95073,2.976367 -2.447,7.299233 -2.83836,24.724373 l -0.4743,21.117345 -8.85903,-0.39104 -8.85904,-0.39104 -0.66667,-22.443622 c -0.6012,-20.239828 -0.9208,-22.629178 -3.25484,-24.333333 -5.58791,-4.07991 -13.21421,-1.389993 -14.75276,5.203525 -0.37305,1.59872 -0.82395,11.606764 -1.002,22.240097 l -0.32373,19.333333 -9,0.394253 -9,0.394253 z m 168.31426,-19.15182 0.35241,-41.7280205 h 8.66667 8.66666 l 0.66667,21.2738825 0.66667,21.27388 9.13406,-12.273881 9.13407,-12.273882 h 9.19927 c 5.0596,0 9.19927,0.312423 9.19927,0.694272 0,0.381849 -5.1,7.484134 -11.33334,15.782854 -6.23333,8.29872 -11.33333,15.584013 -11.33333,16.18954 0,0.605526 5.1,7.890819 11.33333,16.189539 6.23334,8.29872 11.33334,15.401005 11.33334,15.782854 0,0.38185 -4.13967,0.694272 -9.19927,0.694272 h -9.19927 l -9.13407,-12.280698 -9.13406,-12.280698 -0.66667,11.947365 -0.66667,11.947365 -9.01908,0.394688 -9.01908,0.394688 z m 63.68575,8.938645 V 22.544826 l 9,0.394253 9,0.394254 v 31.999999 31.999999 l -9,0.394253 -9,0.394253 z m 26.69594,10.394253 c 0.0323,-24.715682 1.18924,-29.531613 8.80259,-36.642762 5.25177,-4.905352 9.90567,-6.423256 19.58827,-6.388874 9.57065,0.03399 17.74835,3.221712 21.94209,8.553186 5.20275,6.614232 6.24286,12.374876 6.27439,34.750863 l 0.03,21.333333 h -9.33333 -9.33334 L 538.66664,64.88913 c -0.60122,-20.240671 -0.92078,-22.629673 -3.25484,-24.333333 -3.74478,-2.733349 -9.2751,-2.31953 -12.20518,0.913278 -2.20947,2.437738 -2.62673,5.604185 -3.20665,24.333332 l -0.66662,21.530924 -9,0.394253 -9,0.394253 0.0293,-22.394252 z M 474.66669,10.605746 V 3.8781601 l 9,0.3942532 9,0.3942532 L 493.07307,11 l 0.40639,6.333333 h -9.40639 -9.40638 z"
     id="path13030"
     inkscape:connector-curvature="0"
     sodipodi:nodetypes="cscssssscccscssscccsscsssscccscccscccscccccccsccsccccccccccscsssccccscsscccssssccccccccccccsssssssccccccccccccccccccsssccccsccccccccccccccccc" />
  <path
     style="fill:#000000;stroke-width:1.33333337"
     d=""
     id="path13020"
     inkscape:connector-curvature="0" />
  <path
     style="fill:#000000;stroke-width:1.33333337"
     d=""
     id="path13018"
     inkscape:connector-curvature="0" />
  <path
     style="fill:#19a8b6;stroke-width:1.37303257"
     inkscape:connector-curvature="0"
     id="path18"
     d="m 92.674256,47.473768 c 0,5.904041 0.823821,11.945385 -0.137306,17.71212 -2.883365,17.712126 -18.947852,27.597958 -39.543341,24.577288 -3.432581,-0.549211 -6.727856,-0.549211 -10.160438,0 C 17.843976,93.333063 2.4660106,80.014642 2.4660106,55.025448 c 0,-5.766737 0,-11.396171 0,-17.162908 0,-19.771671 9.8858354,-31.7170547 29.3829004,-33.364694 11.533477,-0.9611221 23.204251,-0.8238192 34.60042,0.5492134 17.025601,1.922246 26.087619,13.1811136 26.499529,30.2067186 0.137307,4.119097 0,8.238196 0,12.357294 0,-0.137304 -0.137306,-0.137304 -0.274604,-0.137304 z M 42.970478,65.323195 c 0.823812,2.334155 1.922246,5.217521 4.668304,5.354829 3.02068,0.137301 4.805619,-2.883373 5.21753,-5.492136 1.922246,-11.945383 1.647633,-24.028069 0,-35.973454 -0.411911,-2.47146 -2.059553,-5.217524 -4.668313,-5.354827 -3.157978,-0.137304 -4.393709,2.883367 -5.217521,5.49213 -1.922246,5.766738 -0.549217,11.808082 -1.098434,17.574819 0.411911,6.178646 -1.098425,12.357294 1.098434,18.398639 z m 33.913904,-3.981796 c 0.411911,-9.336623 0.411911,-18.810548 0,-28.14717 -0.274604,-5.492131 -3.020671,-9.885836 -8.924715,-11.670778 2.334156,17.025605 2.883364,33.6393 -0.274604,50.939515 6.315946,-1.235731 9.062013,-5.629437 9.199319,-11.121567 z M 26.356779,29.761646 c 0.137303,-2.471457 3.295279,-6.178645 -0.137303,-7.139768 -2.883369,-0.823821 -5.217524,3.020671 -6.453254,6.041342 -0.549212,1.510337 -1.098426,3.020672 -1.098426,4.668312 -0.137303,9.199319 -0.274606,18.261335 0,27.460653 0.137304,5.629434 2.608763,10.02314 9.336623,12.082685 -3.432583,-14.966053 -2.334156,-28.970986 -1.64764,-43.113224 z"
     class="st0" />
</svg>
