<?xml version="1.0" encoding="UTF-8" standalone="no"?>
<svg
   xmlns:dc="http://purl.org/dc/elements/1.1/"
   xmlns:cc="http://creativecommons.org/ns#"
   xmlns:rdf="http://www.w3.org/1999/02/22-rdf-syntax-ns#"
   xmlns:svg="http://www.w3.org/2000/svg"
   xmlns="http://www.w3.org/2000/svg"
   viewBox="0 0 485.44 317.44"
   height="317.44"
   width="485.44"
   id="svg18260"
   version="1.1">
  <metadata
     id="metadata18266">
    <rdf:RDF>
      <cc:Work
         rdf:about="">
        <dc:format>image/svg+xml</dc:format>
        <dc:type
           rdf:resource="http://purl.org/dc/dcmitype/StillImage" />
        <dc:title></dc:title>
      </cc:Work>
    </rdf:RDF>
  </metadata>
  <defs
     id="defs18264" />
  <g
     transform="translate(-594.0915,26.570747)"
     id="g22821">
    <path
       style="fill:#a86f24;fill-opacity:1;stroke-width:0.31999999"
       d="m 811.11914,-26.310547 c -0.16133,0.02898 -22.75689,22.5649252 -50.21289,50.080078 l -49.91992,50.027344 -0.10547,4.193359 c -0.0584,2.30666 -0.0198,4.539748 0.0859,4.960938 0.19184,0.76381 0.20167,0.765625 4.90429,0.765625 h 4.71094 l 50,-49.998047 50.00195,-49.996094 -4.81054,-4.818359 c -2.64566,-2.649786 -4.70956,-4.919339 -4.58594,-5.042969 0.12368,-0.123627 0.093,-0.200855 -0.0684,-0.171875 z M 714.18555,90.466797 c -1.76392,0.0049 -2.65263,0.102307 -2.89649,0.304687 -0.3631,0.30137 -0.46289,1.353234 -0.46289,4.902344 v 4.517582 l 49.97852,49.98242 c 39.10806,39.11103 50.08808,49.92211 50.48047,49.70703 0.27581,-0.15117 2.512,-2.308 4.96875,-4.79297 L 820.7207,190.57031 770.73438,140.58398 720.74805,90.595703 716.25,90.492188 c -0.79094,-0.01837 -1.47648,-0.02704 -2.06445,-0.02539 z M 675.56836,222.88672 v 3.51953 3.51953 h 3.20117 3.19922 v -3.51953 -3.51953 h -3.19922 z m -69.55274,0.0488 c -0.91095,-0.005 -1.89482,8.5e-4 -2.92773,0.0156 l -6.71875,0.0957 -0.084,26.08007 c -0.0455,14.344 -0.008,26.27184 0.082,26.50782 0.13257,0.34727 1.64325,0.40487 7.92383,0.30273 7.10049,-0.11547 7.91072,-0.18489 9.56445,-0.83789 3.7896,-1.49637 6.15453,-4.71532 7.20703,-9.8125 0.77419,-3.7518 0.77879,-27.90758 0.006,-31.63086 -1.28438,-6.18705 -4.20736,-9.45016 -9.34961,-10.43555 -0.88044,-0.1687 -2.97025,-0.27032 -5.70313,-0.28515 z m 23.95313,0.11133 -0.0937,3.01562 c -0.051,1.6588 -0.0157,3.21156 0.0762,3.45117 0.12871,0.335 0.88657,0.41435 3.29297,0.34375 l 3.125,-0.0918 v -3.35937 -3.35937 h -3.20117 z m 109.43945,0 v 23.51953 c 0,25.85835 -0.0654,24.9603 1.97852,27.22265 0.99768,1.1043 2.33554,1.7598 4.74219,2.32617 0.352,0.0828 1.28807,0.12907 2.08007,0.10157 l 1.43946,-0.0508 0.0957,-2.34961 c 0.10631,-2.6402 -0.11667,-3.09204 -1.65625,-3.38086 -0.58158,-0.10911 -1.40398,-0.56814 -1.82812,-1.01953 l -0.77149,-0.82032 -0.16016,-22.77539 -0.16015,-22.77343 h -2.87891 z m -43.09375,3.7246 c -0.35313,-0.004 -0.76937,0.005 -1.2539,0.0215 l -2.69141,0.0937 -0.16016,5.75976 -0.16015,5.75977 -1.67969,0.0977 -1.67969,0.0957 v 2.36719 2.36718 l 1.67969,0.0957 1.67969,0.0977 0.16015,13.91993 c 0.17547,15.26537 0.16447,15.18519 2.16016,17.06054 0.52801,0.49617 1.58971,1.10221 2.35938,1.34571 0.78453,0.2482 2.45528,0.41335 3.80078,0.37695 l 2.40039,-0.0645 0.0937,-2.53125 c 0.10715,-2.87423 -0.0164,-3.0545 -2.07227,-3.0625 -1.05967,-0.004 -1.47425,-0.18123 -2,-0.84961 l -0.66211,-0.8418 v -12.74414 -12.74219 l 2.32032,-0.0937 2.32031,-0.0937 v -2.24023 -2.24024 l -2.32031,-0.0937 -2.32032,-0.0937 -0.006,-5.50586 c -0.003,-3.02829 -0.1232,-5.69233 -0.26758,-5.91992 -0.14171,-0.22342 -0.64178,-0.33111 -1.70117,-0.3418 z m -93.54492,2.03516 3.54492,0.0273 c 3.12574,0.0234 3.71537,0.11739 4.96094,0.80274 1.88064,1.03479 3.0063,3.13775 3.4668,6.47266 0.43185,3.12752 0.4472,23.57451 0.0195,26.61718 -0.45634,3.24668 -1.70156,5.53112 -3.52734,6.47071 -1.13044,0.58174 -2.16272,0.78504 -4.64063,0.91796 -1.75217,0.094 -3.36658,0.045 -3.58789,-0.10937 -0.318,-0.22146 -0.38531,-4.59488 -0.32031,-20.74024 z m 50.17383,9.14063 c -0.88767,0.0243 -1.76314,0.13552 -2.49414,0.33789 -1.841,0.50965 -4.05339,2.85331 -4.94727,5.24218 -0.54223,1.44909 -0.79261,3.09603 -1.02539,6.71875 -0.39003,6.07003 -0.0701,15.94098 0.60547,18.67579 1.11855,4.52766 3.88393,6.76367 8.36328,6.76367 3.13909,0 4.86649,-0.79482 6.18164,-2.84571 l 0.94532,-1.47265 -0.10157,5.29492 c -0.11208,5.85076 -0.28937,6.4478 -2.27929,7.69727 -0.81503,0.51174 -1.43786,0.61914 -3.06446,0.52734 -1.88219,-0.10618 -2.11762,-0.20568 -3.03906,-1.26758 -0.54952,-0.63329 -1.21451,-1.45723 -1.47851,-1.83203 l -0.48047,-0.68164 -2.48047,0.83984 c -2.27787,0.77114 -2.48047,0.90937 -2.48047,1.70703 0,0.47763 0.40783,1.51096 0.90625,2.29688 1.44569,2.27962 3.53147,3.81337 6.04492,4.44726 0.66572,0.16792 2.45169,0.25928 3.96875,0.20118 4.71661,-0.18049 8.06058,-2.33957 9.62695,-6.21485 l 0.73438,-1.8164 v -21.91993 -21.91992 h -2.88086 -2.87891 l -0.18945,1.7598 c -0.10331,0.968 -0.20958,1.58496 -0.23828,1.37109 -0.10206,-0.76094 -2.14775,-2.76048 -3.41016,-3.33398 -0.91787,-0.41698 -2.42875,-0.61666 -3.9082,-0.57617 z m 66.08594,0 c -1.44124,-4.5e-4 -2.31983,0.15386 -3.66797,0.56445 -2.38702,0.72698 -5.13381,2.30577 -5.45117,3.13281 -0.11208,0.29209 0.24157,1.41466 0.80664,2.56055 0.93596,1.89803 1.65922,2.48456 2.1289,1.72461 0.10749,-0.17391 0.82514,-0.68433 1.59375,-1.13477 2.72246,-1.59545 6.82642,-1.58158 8.50782,0.0293 1.16517,1.11631 1.58203,2.74178 1.58203,6.17969 v 2.92187 h -2.82227 c -7.02192,0 -10.48321,1.80453 -12.2793,6.40039 -0.95182,2.43552 -1.00722,7.64263 -0.11132,10.40039 0.78078,2.4034 3.20697,5.0085 5.14257,5.51953 1.73743,0.45873 4.31094,0.47576 5.6211,0.0371 1.46702,-0.49118 3.0939,-1.73967 3.8164,-2.92773 l 0.59571,-0.97656 0.0976,1.73437 0.0996,1.73242 2.79102,0.0937 2.78906,0.0918 0.19531,-0.7793 c 0.1074,-0.42807 0.14067,-7.164 0.0723,-14.9707 -0.11716,-13.37787 -0.16414,-14.31084 -0.79688,-16.20508 -1.4118,-4.22658 -3.79264,-5.82726 -9.04296,-6.08008 -0.64379,-0.031 -1.18756,-0.0487 -1.66797,-0.0488 z m -40.25977,0.5664 c -1.43146,0 -2.86302,0.18637 -3.00586,0.5586 -0.25375,0.66126 -0.25375,35.76647 0,36.42773 0.15672,0.40837 0.73731,0.50586 3.00586,0.50586 2.26855,0 2.84914,-0.0974 3.00586,-0.50586 0.25375,-0.66126 0.25375,-35.76647 0,-36.42773 -0.14283,-0.37223 -1.5744,-0.5586 -3.00586,-0.5586 z m -48.48047,0.21289 -0.084,18.24024 c -0.0457,10.032 -0.0106,18.42545 0.0762,18.65234 0.11612,0.3035 0.89919,0.38841 2.96289,0.32031 l 2.80469,-0.0937 v -18.55859 -18.56055 h -2.88086 z m 25.01758,4.91211 c 2.12032,-0.0164 3.45123,0.71189 4.33984,2.375 l 0.72266,1.35352 v 9.43945 c 0,8.92438 -0.0363,9.50823 -0.66211,10.70117 -0.36407,0.69402 -1.01152,1.52093 -1.43945,1.83789 -1.76029,1.30386 -4.74761,0.95209 -6.25977,-0.73828 -1.05009,-1.17386 -1.33033,-2.61518 -1.48828,-7.64062 -0.23265,-7.40242 0.14717,-13.73371 0.90235,-15.02344 0.97086,-1.65811 2.0377,-2.29039 3.88476,-2.30469 z m 69.22266,15.32227 -0.008,3.96289 c -0.006,3.16644 -0.12561,4.21941 -0.59765,5.24219 -0.68346,1.48084 -1.73462,2.53417 -3.01563,3.01953 -1.97737,0.74921 -3.81565,0.30388 -5.11328,-1.23828 -1.02438,-1.21741 -1.29778,-2.53363 -1.13281,-5.45313 0.22058,-3.90381 1.76579,-5.14312 6.70312,-5.38086 z"
       id="path22811" />
    <path
       style="fill:#1c1c1a;stroke-width:0.31999999"
       d="m 604.11133,-25.720703 -4.72461,4.716797 -4.72461,4.716797 49.8418,49.841797 49.84179,49.841796 h 4.72071 4.7207 v -4.71875 -4.720703 l -49.83789,-49.83789 z m 242.90234,42.919922 c -0.5808,0.0055 -1.17013,0.02114 -1.76758,0.04492 -6.2342,0.24817 -10.14198,1.2098 -14.82031,3.646484 -3.07971,1.604048 -7.24829,5.754585 -9.10547,9.066406 -1.65329,2.948221 -3.37108,8.060572 -4.14062,12.320313 -0.71912,3.980618 -0.81862,17.669768 -0.15821,21.759765 1.64587,10.19307 5.33851,16.43808 12.5879,21.28711 3.66887,2.45408 6.44885,3.768645 15.48828,7.328125 10.36583,4.08178 13.59135,6.385198 15.96484,11.402348 2.32728,4.91941 3.28231,14.50187 2.39258,23.98242 -1.03324,11.00979 -4.35311,16.11132 -11.4668,17.61914 -6.4426,1.36558 -13.11941,-0.30435 -16.57031,-4.14258 -3.20572,-3.56553 -4.81924,-8.36193 -5.66406,-16.83789 l -0.36719,-3.67969 -1.03125,-0.0996 c -1.01937,-0.0985 -11.418,1.70124 -12.80859,2.2168 -0.63651,0.23599 -0.72071,0.48979 -0.72071,2.17969 0,1.05134 0.21651,3.55868 0.48047,5.57226 2.36938,18.07463 11.38292,27.57801 27.51953,29.01563 5.59289,0.49828 12.505,-0.11709 16.96094,-1.50977 4.32466,-1.35164 6.72104,-2.79748 9.94727,-6.0039 2.53818,-2.52258 3.11772,-3.31733 4.55664,-6.25 3.62719,-7.39255 5.13968,-16.86426 4.75195,-29.75977 -0.41648,-13.85165 -2.81856,-21.164595 -9,-27.396484 -4.04538,-4.078411 -8.50129,-6.573682 -19.26953,-10.794922 -9.24334,-3.62347 -11.4696,-4.845517 -14.24024,-7.808594 -2.92439,-3.127517 -4.27199,-7.083869 -4.73632,-13.90625 -0.97719,-14.357191 2.60076,-22.625503 10.69726,-24.720703 2.3585,-0.61033 7.74921,-0.642444 9.93164,-0.05859 6.56425,1.75609 10.4201,7.500913 11.19922,16.685547 0.42685,5.031998 0.4045,4.959378 1.54102,4.955078 1.30627,-0.005 12.22023,-1.779002 12.67578,-2.060547 0.49358,-0.30505 0.42339,-3.876511 -0.15235,-7.753906 -2.65374,-17.872064 -12.67078,-26.470836 -30.67578,-26.298828 z m 84.28906,0.0957 c -3.31932,5.14e-4 -6.63967,0.188701 -8.33007,0.564453 -8.33252,1.852211 -14.57367,6.055947 -18.52735,12.480469 -2.86839,4.660972 -4.45759,9.740501 -5.13672,16.416015 -0.90101,8.856506 -1.10211,61.396334 -0.29882,78.158204 0.45532,9.50089 1.42154,14.13259 4.05859,19.44336 5.5609,11.19912 17.18561,16.8606 31.84766,15.51172 6.08035,-0.55938 10.35756,-1.9948 14.83593,-4.97461 1.43706,-0.95619 2.85192,-1.73828 3.14453,-1.73828 0.29258,0 2.69918,1.94431 5.34766,4.32031 2.64848,2.376 5.08578,4.32032 5.41602,4.32032 0.37337,0 1.90213,-1.52525 4.04296,-4.03321 3.93963,-4.6152 4.03047,-4.74682 3.76954,-5.49414 -0.1063,-0.30444 -2.70685,-2.61582 -5.7793,-5.13672 -3.07242,-2.5209 -5.58789,-4.75442 -5.58789,-4.96289 0,-0.20847 0.41573,-1.60107 0.92383,-3.0957 1.0535,-3.09895 1.78327,-7.09096 2.30859,-12.63867 0.22841,-2.41213 0.41943,-15.44047 0.51563,-35.039069 0.19776,-40.31966 -0.0995,-46.832573 -2.47657,-54.111328 -3.45625,-10.583392 -10.5749,-16.942973 -21.75,-19.429687 -1.68629,-0.375209 -5.00489,-0.561061 -8.32422,-0.560547 z m 134.42777,1.822266 c -3.039,3.13e-4 -3.29,0.125401 -3.5313,0.576171 -0.2334,0.43584 -0.3128,21.718736 -0.2558,69.298829 0.072,60.630675 0.1387,68.702805 0.5625,68.970705 0.264,0.16688 3.5237,0.30559 7.2421,0.30859 5.3029,0.004 6.8389,-0.0876 7.1211,-0.42773 0.2652,-0.31888 0.3364,-18.72072 0.2774,-69.521487 l -0.08,-69.085938 -7.2656,-0.08594 c -1.7356,-0.02054 -3.0573,-0.03331 -4.0703,-0.0332 z m -73.00198,0.01562 c -2.77009,0.01008 -4.11064,0.105024 -4.3418,0.296876 -0.37119,0.308088 -0.43945,11.148628 -0.43945,69.103515 0,62.062374 0.0479,68.786214 0.50195,69.240234 0.44915,0.44916 3.36943,0.5039 27.34178,0.5039 h 26.8399 l 0.498,-0.71289 c 0.4041,-0.57682 0.4981,-1.75152 0.4981,-6.21875 0,-3.02938 -0.1405,-5.87288 -0.3106,-6.32031 l -0.3086,-0.81445 -19.1992,-0.0879 c -17.9371,-0.0816 -19.2378,-0.12437 -19.7715,-0.65821 -0.5433,-0.54344 -0.5783,-3.5987 -0.7305,-62.400384 l -0.1601,-61.828125 -7.16017,-0.08594 c -1.25302,-0.01509 -2.33445,-0.02094 -3.25781,-0.01758 z m -61.31446,12.423829 c 7.7008,0 13.0681,3.664105 15.39844,10.515625 1.56975,4.615501 1.61574,6.01092 1.58984,47.404296 -0.014,22.416415 -0.14853,39.230015 -0.32226,40.160155 -0.47015,2.51738 -0.95928,2.34112 -5.73438,-2.06445 -2.38218,-2.19781 -4.43323,-3.84071 -4.80078,-3.84571 -0.85101,-0.012 -6.8789,7.11099 -6.8789,8.12891 0,0.53462 1.44453,1.97478 5.5996,5.58398 3.64961,3.17014 5.60157,5.08066 5.60157,5.48438 0,0.81409 -1.99567,1.82552 -4.75391,2.41015 -2.96026,0.62744 -8.67378,0.55838 -11.08594,-0.13476 -5.61962,-1.6148 -9.19097,-5.42205 -10.73046,-11.44141 -1.05955,-4.14285 -1.26758,-11.52076 -1.26758,-45.082026 -3.5e-4,-32.241427 0.20944,-40.615204 1.11718,-44.529297 1.89475,-8.169923 7.60473,-12.589843 16.26758,-12.589843 z m -237.0664,59.199218 -49.83985,49.837888 -49.83789,49.83789 4.7168,4.72461 4.71484,4.72461 49.8418,-49.8418 49.84375,-49.84179 v -4.720705 -4.720703 h -4.7207 z M 863.30664,222.29688 c -2.59363,0.0747 -4.54152,0.83845 -5.98047,2.33593 -1.92786,2.00629 -2.42153,3.69517 -2.60156,8.875 l -0.1543,4.38477 -1.64258,0.0957 -1.64453,0.0957 v 2.23829 2.24023 l 1.17188,0.0684 1.25195,0.125 0.93555,0.0937 v 15.99609 c 0,8.84947 0.0956,16.18735 0.21289,16.30469 h 0.002 c 0.0794,0.0794 0.80363,0.13515 1.6875,0.17188 0.38008,0.0452 0.84925,0.0742 1.4707,0.0742 h 2.25 v -0.13867 c 0.39514,-0.0954 0.48549,-0.27681 0.57618,-0.61523 0.10613,-0.396 0.19426,-7.73349 0.19726,-16.30664 l 0.004,-15.38086 c 0.38918,-0.1644 1.09325,-0.19922 2.5957,-0.19922 h 2.70703 v -0.18359 l 0.29688,-0.01 v -2.24023 -2.23829 l -2.79883,-0.0937 -2.80078,-0.0918 v -4.25782 c 0,-5.17016 0.13291,-5.38552 3.47265,-5.63671 l 2.12696,-0.16016 v -2.7207 -2.72071 l -2.18555,-0.0937 c -0.39734,-0.0173 -0.77987,-0.0224 -1.15039,-0.0117 z m -82.43945,0.0156 c -0.94357,-0.0137 -1.97434,-0.0112 -3.10352,0.004 l -6.48047,0.0859 -0.082,26.08008 c -0.0454,14.344 -0.0155,26.26047 0.0684,26.48047 0.0841,0.22036 0.71004,0.33896 1.99609,0.38086 0.37815,0.0324 0.81697,0.0527 1.39063,0.0527 h 2.41016 v -0.0332 h 0.44726 l 0.0859,-10.48047 0.084,-10.48047 3.56446,-0.20703 c 3.11334,-0.18076 5.2959,-0.56706 7.09179,-1.31054 0.1176,-0.0472 0.24171,-0.0894 0.35547,-0.14063 0.18269,-0.0829 0.35406,-0.18008 0.5293,-0.27148 0.12947,-0.0692 0.26434,-0.13136 0.39062,-0.20704 0.77882,-0.44784 1.50232,-0.98173 2.21289,-1.63671 2.79899,-2.58002 3.97575,-6.29113 3.96876,-12.51758 -0.007,-5.88059 -0.98428,-9.31854 -3.41211,-12.00586 -2.54094,-2.81251 -4.91264,-3.69682 -11.51758,-3.79297 z m -3.1836,6.16992 h 3.51953 c 4.60226,0 5.66367,0.4852 7.03907,3.21485 0.9252,1.83612 0.96093,2.06328 0.96093,6.22656 0,2.61382 -0.16389,4.85818 -0.41406,5.68359 -0.6112,2.01663 -2.06525,3.49945 -3.99414,4.07227 -2.03543,0.60449 -6.90469,0.65927 -7.12695,0.0801 -0.0852,-0.22203 -0.11701,-4.64988 -0.0703,-9.83985 z m 67.88282,8.80078 c -2.66679,0 -5.01598,1.14466 -6.4043,3.11914 l -1,1.41993 -0.0937,-1.96094 -0.0957,-1.96094 -2.94532,0.0918 -2.94336,0.0918 -0.084,18.23829 c -0.0457,10.032 -0.0139,18.42062 0.0703,18.64062 0.085,0.22209 0.71096,0.34038 1.95899,0.38086 0.34608,0.0308 0.74227,0.0527 1.25,0.0527 h 2.23437 v -0.0332 h 0.43555 l 0.13672,-13.20117 c 0.14781,-14.21047 0.21602,-14.8225 1.85351,-16.6875 0.2408,-0.27426 0.47519,-0.50352 0.7168,-0.70703 0.53311,-0.38804 1.11955,-0.69487 1.75195,-0.91992 0.5781,-0.17183 1.26541,-0.30011 2.1543,-0.41016 l 0.2207,-0.0273 c 0.0602,-10e-4 0.11714,-0.0116 0.17774,-0.0117 l 1.17383,-0.002 0.0352,-0.15625 0.3125,-0.0391 0.70703,-2.69336 c 0.3883,-1.48062 0.63172,-2.8103 0.54102,-2.95703 -0.0907,-0.14674 -1.06501,-0.26758 -2.16406,-0.26758 z m 106.68164,0 c -2.95021,0 -5.23393,0.97737 -6.7793,2.90039 l -0.98828,1.23047 -0.68359,-1.01367 c -0.37566,-0.5574 -1.29299,-1.44243 -2.03907,-1.9668 -1.20067,-0.84386 -1.6815,-0.96855 -4.17773,-1.08789 -2.45904,-0.11757 -3.00148,-0.043 -4.23828,0.58789 -0.78016,0.39797 -1.88699,1.23497 -2.45899,1.85938 l -1.03906,1.13476 -0.006,-1.10156 c -0.008,-1.82486 -0.21939,-1.93932 -3.38281,-1.83594 l -2.85156,0.0937 -0.084,18.23829 c -0.0457,10.032 -0.0139,18.42062 0.0703,18.64062 0.0851,0.22257 0.71542,0.34068 1.9668,0.38086 0.34836,0.0307 0.74802,0.0527 1.25977,0.0527 h 2.25 v -0.17382 c 0.333,-0.0776 0.51409,-0.18816 0.58203,-0.36524 0.10683,-0.2784 0.19726,-6.5784 0.19726,-14 10e-4,-7.90022 0.13129,-13.96643 0.31641,-14.63281 0.17392,-0.62601 0.753,-1.5546 1.28516,-2.06445 0.0858,-0.0822 0.16002,-0.13387 0.24023,-0.20313 0.32866,-0.24092 0.67912,-0.4458 1.04883,-0.60742 0.41129,-0.12672 0.90974,-0.19412 1.67187,-0.24219 1.68339,-0.10615 2.13273,-0.0179 2.88086,0.57227 2.00976,1.58537 1.97888,1.33448 2.1543,17.12304 l 0.16016,14.40039 1.02343,0.0332 0.002,0.16015 h 2.19921 2.20118 l 0.002,-0.18359 c 0.27237,-0.0557 0.46994,-0.12737 0.53906,-0.23633 0.14419,-0.22727 0.26939,-6.60583 0.27539,-14.17383 0.011,-12.65952 0.0588,-13.86143 0.59961,-15.03906 0.45056,-0.98117 0.87098,-1.60324 1.45703,-2.00195 0.0349,-0.0227 0.0718,-0.0427 0.10743,-0.0644 0.58808,-0.36185 1.33893,-0.52355 2.4414,-0.59375 1.88992,-0.12035 2.08211,-0.066 3.17383,0.89257 0.66441,0.58337 1.30191,1.52237 1.48828,2.19336 0.19728,0.71023 0.32803,6.54354 0.33203,14.77344 0.004,7.48 0.12534,13.7864 0.26953,14.01367 0.0977,0.15405 0.38263,0.24907 0.90821,0.29883 v 0.12109 h 2.23633 2.23632 l -0.002,-0.17382 0.58984,-0.0195 0.0879,-13.75976 c 0.11072,-17.3489 -0.14909,-19.27871 -2.95312,-22.00195 -1.55056,-1.50587 -3.53687,-2.15821 -6.57031,-2.15821 z m 60.88675,0 c -2.9394,0 -4.3092,0.55319 -6.0821,2.45703 l -1.3691,1.47071 v -1.65625 -1.65625 l -2.9609,0.0918 -2.95903,0.0937 -0.084,18.23829 c -0.0457,10.032 -0.0139,18.42062 0.0703,18.64062 0.0849,0.22183 0.70993,0.34022 1.95703,0.38086 0.3467,0.031 0.7447,0.0527 1.2539,0.0527 h 2.2344 v -0.0332 h 0.4453 l 0.1016,-14.16016 c 0.112,-15.66696 0.098,-15.55864 2.2012,-17.32812 0.1814,-0.15268 0.325,-0.25717 0.4726,-0.36133 0.3072,-0.16248 0.6287,-0.29798 0.9668,-0.39648 0.3873,-0.0606 0.856,-0.0628 1.627,-0.0137 2.1621,0.13767 2.9611,0.61579 3.9062,2.33789 0.4603,0.83882 0.5478,2.78891 0.6875,15.36132 l 0.1602,14.40039 1.039,0.0332 v 0.16015 h 2.2109 2.211 v -0.0234 l 0.4375,0.0137 0.1953,-0.77734 c 0.3681,-1.46663 -0.064,-29.38118 -0.4805,-31.00977 -0.618,-2.41872 -2.1459,-4.42127 -4.1523,-5.4375 -1.4268,-0.72268 -2.1596,-0.87891 -4.0918,-0.87891 z m -32.87113,0.002 c -1.71193,0.0214 -3.43733,0.23447 -4.7207,0.63086 -2.21731,0.68486 -4.8788,2.27365 -5.19727,3.10351 -0.23945,0.62408 1.55055,4.58399 2.07227,4.58399 0.11329,0 0.50974,-0.18798 1.00391,-0.45118 0.0542,-0.0264 0.10942,-0.0569 0.16601,-0.0957 0.35593,-0.19391 0.7265,-0.39719 1.13672,-0.65039 0.81247,-0.50149 1.36425,-0.79492 1.94531,-0.98242 0.0484,-0.0147 0.0977,-0.027 0.14649,-0.041 0.57944,-0.16789 1.20213,-0.24078 2.1582,-0.28906 4.54666,-0.22959 5.91387,1.34581 6.01367,6.93164 l 0.0547,3.09766 -3.83985,0.18359 c -4.49677,0.21593 -5.94393,0.57269 -8.04687,1.98047 -3.0178,2.02019 -4.58645,6.86322 -3.92578,12.125 0.5088,4.05195 2.01958,6.45144 4.93164,7.82812 1.1174,0.52826 2.37074,0.77325 3.61719,0.77344 0.0511,10e-4 0.10127,-0.006 0.15234,-0.006 0.25497,-0.004 0.50902,-0.0165 0.76172,-0.041 0.22339,-0.0202 0.4424,-0.0497 0.66211,-0.0879 0.22924,-0.0387 0.4562,-0.0854 0.67969,-0.14063 0.0909,-0.0239 0.18182,-0.0452 0.27148,-0.0723 1.65983,-0.4655 3.10858,-1.38096 3.93555,-2.66797 l 0.58593,-0.91016 c 0.0774,-0.0559 0.15471,-0.11165 0.22461,-0.13867 l 0.0859,1.62109 0.0977,1.81641 0.82226,-0.0273 0.002,0.0371 h 2.24218 2.24415 l -0.002,-0.18554 0.25781,-0.008 v -15.04101 c 0,-13.72252 -0.0523,-15.20791 -0.59179,-16.95703 -0.79513,-2.57772 -2.85989,-4.68057 -5.30664,-5.40625 -1.23071,-0.36501 -2.9287,-0.53504 -4.64063,-0.51367 z m -64.49414,0.008 c -1.03382,0.0217 -2.21612,0.14695 -2.93164,0.36133 -1.25186,0.37507 -3.21084,1.99701 -4.18945,3.46875 l -0.53125,0.80078 -0.0176,-2.01367 -0.0156,-2.01172 -2.96093,0.0918 -2.96094,0.0937 -0.082,18.23829 c -0.0456,10.032 -0.0139,18.42062 0.0703,18.64062 0.0849,0.22191 0.71014,0.34028 1.95703,0.38086 0.34632,0.0309 0.74359,0.0527 1.25196,0.0527 h 2.23437 v -0.0332 h 0.43945 l 0.10938,-13.35937 c 0.11964,-14.59297 0.13995,-14.75791 2.07422,-16.77735 0.10862,-0.11341 0.21716,-0.21532 0.32617,-0.31445 0.59255,-0.46454 1.25714,-0.8266 1.97851,-1.08008 0.56937,-0.16382 1.25006,-0.28668 2.1211,-0.39453 l 0.24609,-0.0293 c 0.043,-7.5e-4 0.0837,-0.01 0.12695,-0.01 0.4424,-6.9e-4 0.71287,-0.0101 0.9043,-0.11719 l 0.64258,-0.0801 0.70703,-2.69336 c 0.38832,-1.48062 0.63172,-2.8103 0.54102,-2.95703 -0.1216,-0.19677 -1.0072,-0.27955 -2.04102,-0.25781 z m -33.60937,0.0195 c -3.04795,0.0345 -4.86646,0.74778 -6.86914,2.57812 -1.91492,1.75014 -2.85112,3.621 -3.34961,6.69336 -0.43073,2.65412 -0.43324,17.42584 -0.004,20.13868 0.6551,4.13948 2.79501,7.05109 6.25391,8.50586 1.417,0.59597 2.13362,0.73373 4.01367,0.70703 0.41092,0.0111 0.83327,0.011 1.26172,-0.006 0.38394,-0.0151 0.75265,-0.0417 1.10937,-0.0801 1.65895,-0.10633 2.42161,-0.30863 3.52149,-0.87695 3.01971,-1.56033 4.87783,-4.19255 5.58398,-7.91602 0.43443,-2.29087 0.41294,-18.60071 -0.0273,-20.98242 -0.67536,-3.65337 -2.65268,-6.41692 -5.61719,-7.85352 -1.18694,-0.5752 -2.24821,-0.78431 -4.49023,-0.88281 -0.48972,-0.0215 -0.9513,-0.0303 -1.38672,-0.0254 z m 157.74804,0.002 c -1.2234,0.0214 -2.4033,0.1606 -3.3223,0.42774 -2.499,0.7265 -4.9352,3.09484 -5.9472,5.78125 -1.589,4.22385 -1.5839,22.07344 0.01,26.23047 0.9531,2.48598 3.3578,4.93664 5.5918,5.69921 v 0 c 2.2178,0.75547 6.5805,0.62796 8.7519,-0.19726 0,-0.002 0.01,-0.002 0.014,-0.004 0,-5.6e-4 0,-0.001 0,-0.002 0.1287,-0.0494 0.2788,-0.0921 0.3906,-0.14648 3.0822,-1.4974 5.4026,-4.86647 5.5079,-7.99414 l 0.051,-1.50586 -1.7597,-0.36914 c -0.968,-0.20304 -2.2263,-0.3834 -2.795,-0.4004 -0.8793,-0.0263 -1.0616,0.10115 -1.2226,0.84961 -0.6912,3.2131 -2.1211,4.5566 -4.8516,4.5586 -1.3972,0.001 -1.8467,-0.15509 -2.7578,-0.95508 -1.7385,-1.52618 -1.8624,-2.48212 -1.7519,-13.44336 0.095,-9.44587 0.1213,-9.79805 0.8105,-10.90625 0.3917,-0.62979 1.0826,-1.31332 1.5352,-1.51953 1.2593,-0.57379 3.6918,-0.45841 4.8183,0.22851 1.0001,0.60984 2.0506,2.36722 2.0606,3.44532 0.01,0.99458 0.2277,1.35132 1.2871,1.32226 0.036,0.0478 0.072,0.0895 0.098,0.0879 0.081,-0.005 0.7959,-0.14807 1.3536,-0.25781 0.1342,-0.021 0.2077,-0.0241 0.3554,-0.0488 1.3752,-0.2302 2.6246,-0.49469 2.7774,-0.58789 0.4414,-0.2694 -0.05,-2.9212 -0.877,-4.72656 -0.9409,-2.0551 -2.7298,-3.87529 -4.6523,-4.73633 -1.2809,-0.57367 -3.4414,-0.86575 -5.4805,-0.83008 z m -225.95703,0.0195 c -0.43769,-0.008 -0.90042,-0.002 -1.38867,0.0176 -2.68209,0.10695 -3.46573,0.26476 -4.84375,0.97656 -2.05432,1.06114 -3.74796,3.01199 -4.62891,5.33008 -1.48384,3.90456 -1.48552,22.07258 -0.002,25.97071 1.13234,2.97529 3.36468,5.08691 6.43555,6.09179 0.53822,0.17613 1.53692,0.24269 2.66406,0.22852 0.45441,0.0119 0.94616,0.007 1.54492,-0.0234 0.79842,-0.0407 1.53033,-0.15113 2.22852,-0.29687 0.80287,-0.13164 1.49491,-0.29604 1.92187,-0.48829 2.99943,-1.35055 5.57423,-4.6625 5.79297,-7.45117 0.0842,-1.07417 0.0356,-1.12642 -1.35351,-1.47265 -0.792,-0.1974 -1.98452,-0.45878 -2.65039,-0.58203 l -1.21094,-0.22461 -0.60938,1.37695 c -1.12312,2.53559 -2.43353,3.45708 -4.91015,3.45508 -1.73598,-0.002 -3.15574,-0.88894 -3.91016,-2.44141 -0.4878,-1.00381 -0.60473,-1.99439 -0.61523,-5.23828 l -0.0137,-3.87695 c 0.70337,-0.13416 3.94099,-0.24139 7.78321,-0.24414 l 7.60156,-0.004 v -0.18945 l 0.29492,-0.006 0.0918,-3.98438 c 0.17915,-7.9006 -0.74345,-11.75092 -3.44336,-14.37109 -1.81442,-1.76083 -3.71548,-2.49956 -6.7793,-2.55274 z m 254.11133,0.10938 c -3.4864,0 -3.8117,0.0552 -5.5918,0.96484 -2.1862,1.11717 -3.9197,3.17283 -4.8145,5.71094 -0.4971,1.41034 -0.5947,3.00804 -0.6992,11.2793 -0.1347,10.64968 0.031,12.31153 1.541,15.39258 1.1113,2.26824 2.6307,3.67058 4.9454,4.5625 2.2927,0.88197 6.2719,0.86762 8.6796,-0.0332 0.4362,-0.16317 0.8616,-0.37497 1.2793,-0.61328 0.7644,-0.40435 1.4425,-0.90624 2.0332,-1.50391 0.051,-0.0478 0.098,-0.0978 0.1485,-0.14648 0.016,-0.0168 0.031,-0.0338 0.047,-0.0508 1.5694,-1.54133 2.6781,-3.49065 2.7812,-5.23047 0.066,-1.10669 0,-1.18742 -1.2266,-1.55078 -0.7123,-0.21074 -1.8975,-0.48515 -2.6328,-0.60938 l -1.3359,-0.22656 -0.7871,1.7793 c -0.9709,2.19548 -2.2441,3.07222 -4.4609,3.07422 -1.9306,10e-4 -3.1383,-0.68895 -4.0508,-2.3125 -0.612,-1.08883 -0.709,-1.77553 -0.75,-5.3086 l -0.045,-3.88086 c 0.2276,-0.0858 0.6432,-0.14644 1.25,-0.1914 l 6.668,-0.0723 2.4863,-0.0254 c 3.6648,0.0305 4.9801,0.13199 4.9883,0.38477 0.01,0.25137 0.1187,0.21498 0.3028,-0.0996 0.024,-0.0417 0.038,-0.21963 0.057,-0.34375 h 0.086 v -5.03516 c 0,-5.85026 -0.3626,-8.51143 -1.4336,-10.625 -1.108,-2.18651 -2.1218,-3.27092 -4.0585,-4.34375 -1.6142,-0.89416 -1.9052,-0.94531 -5.4063,-0.94531 z m -0.1387,5.43945 c 3.3292,0 4.569,1.78827 4.8653,7.01953 l 0.1914,3.38086 h -5.0547 -5.0547 l 0.1699,-3.34179 c 0.2659,-5.21036 1.5457,-7.0586 4.8828,-7.0586 z m -254.6406,0.0332 c 0.0542,0 0.0976,0.005 0.15039,0.006 3.13584,0.11238 4.27932,1.91645 4.45703,7.00195 l 0.11329,3.19922 -4.92188,0.0879 -4.92187,0.0898 0.14453,-3.44922 c 0.16854,-4.00953 0.81781,-5.90061 2.58593,-6.60742 10e-4,-5.2e-4 0.003,-0.001 0.004,-0.002 0.66026,-0.22502 1.44667,-0.32617 2.38867,-0.32617 z m 69.50586,0.12695 c 2.15099,0 3.36119,0.6627 4.25,2.32617 l 0.72461,1.35352 v 9.76953 c 0,8.92922 -0.0529,9.88814 -0.61133,11.12695 -0.34368,0.76234 -1.06122,1.63336 -1.63867,1.99024 -1.0793,0.66704 -3.55696,0.83371 -4.8164,0.32421 -1.02502,-0.41467 -2.321,-2.13925 -2.60157,-3.46093 -0.139,-0.65482 -0.25195,-5.29455 -0.25195,-10.31055 0,-8.78587 0.0258,-9.17243 0.71289,-10.56641 0.90113,-1.82827 2.10288,-2.55273 4.23242,-2.55273 z m 101.96289,15.52344 c 0.0955,0.0224 0.20764,0.0369 0.28907,0.0684 v 3.28906 c -8e-4,1.848 -0.11667,3.90762 -0.25782,4.57812 -0.33584,1.59527 -2.19546,3.63724 -3.6914,4.05274 h -0.002 c -3.93974,1.0943 -6.4691,-1.62091 -6.0332,-6.47461 0.37095,-4.13086 1.98582,-5.41712 6.88281,-5.47852 z"
       id="path22765" />
  </g>
</svg>
