<?xml version="1.0" encoding="UTF-8" standalone="no"?>
<!-- Created with Inkscape (http://www.inkscape.org/) -->

<svg
   xmlns:dc="http://purl.org/dc/elements/1.1/"
   xmlns:cc="http://creativecommons.org/ns#"
   xmlns:rdf="http://www.w3.org/1999/02/22-rdf-syntax-ns#"
   xmlns:svg="http://www.w3.org/2000/svg"
   xmlns="http://www.w3.org/2000/svg"
   xmlns:sodipodi="http://sodipodi.sourceforge.net/DTD/sodipodi-0.dtd"
   xmlns:inkscape="http://www.inkscape.org/namespaces/inkscape"
   width="210mm"
   height="297mm"
   viewBox="0 0 210 297"
   version="1.1"
   id="svg8544"
   inkscape:version="0.92.0 r15299"
   sodipodi:docname="dark.svg">
  <defs
     id="defs8538" />
  <sodipodi:namedview
     id="base"
     pagecolor="#ffffff"
     bordercolor="#666666"
     borderopacity="1.0"
     inkscape:pageopacity="0.0"
     inkscape:pageshadow="2"
     inkscape:zoom="11.240286"
     inkscape:cx="394.67546"
     inkscape:cy="357.94173"
     inkscape:document-units="mm"
     inkscape:current-layer="g8536"
     showgrid="false"
     inkscape:window-width="1893"
     inkscape:window-height="1052"
     inkscape:window-x="27"
     inkscape:window-y="0"
     inkscape:window-maximized="1" />
  <metadata
     id="metadata8541">
    <rdf:RDF>
      <cc:Work
         rdf:about="">
        <dc:format>image/svg+xml</dc:format>
        <dc:type
           rdf:resource="http://purl.org/dc/dcmitype/StillImage" />
        <dc:title />
      </cc:Work>
    </rdf:RDF>
  </metadata>
  <g
     inkscape:label="Calque 1"
     inkscape:groupmode="layer"
     id="layer1">
    <g
       id="g13069"
       transform="matrix(1.0246255,0,0,1.0246255,-2.8933027,-1.2782886)">
      <g
         style="fill:#ffffff"
         transform="matrix(0.54462785,0,0,0.54462785,381.31535,-941.33192)"
         id="g8507">
        <path
           inkscape:connector-curvature="0"
           id="path8198-3"
           d="m -610.58106,2178.7296 -0.14393,0.3179 h -2.13356 l -17.20218,37.9316 h 6.3726 l 4.40099,-9.7298 h 17.58211 l 4.44903,9.7298 h 1.2058 5.17282 l -17.36619,-37.9316 h -2.19149 z m 133.75067,0 -0.14404,0.3179 h -2.1315 l -17.20218,37.9316 h 6.37054 l 4.401,-9.7298 h 17.58221 l 4.44902,9.7298 h 1.2057 5.17283 l -17.36415,-37.9316 h -2.19354 z m -200.85594,0.2199 c -3.66839,0 -6.86298,0.8485 -9.24796,2.5594 -2.38489,1.711 -3.87509,4.3954 -3.87509,7.4345 0,3.5905 1.65892,6.293 3.90314,7.9462 2.24422,1.6531 4.94074,2.4719 7.46833,3.2333 2.5276,0.7614 4.90174,1.4717 6.41662,2.4315 1.51488,0.9598 2.2306,1.8335 2.21145,3.9251 v 0.01 0.01 c 0,1.4172 -0.54168,2.3755 -1.79355,3.2253 -1.25187,0.8497 -3.30003,1.4497 -5.96267,1.4497 -3.46015,0 -7.42411,-1.6161 -9.79783,-4.0731 l -1.70766,-1.7657 -3.0833,5.1849 1.04978,1.0317 c 3.37231,3.3172 8.39209,5.4789 13.491,5.4789 3.86925,0 7.22959,-0.9141 9.72381,-2.7335 2.49228,-1.8178 4.0305,-4.6414 4.03316,-7.8403 0.0256,-3.6468 -1.58869,-6.4038 -3.81919,-8.1122 -2.23214,-1.7097 -4.93398,-2.5648 -7.47028,-3.3413 -2.5364,-0.7763 -4.92712,-1.4813 -6.46258,-2.4254 -1.53556,-0.9441 -2.24555,-1.779 -2.24555,-3.7792 0,-1.1676 0.4436,-1.937 1.58163,-2.6733 1.13803,-0.7364 3.03437,-1.2698 5.48877,-1.2698 2.57929,0 5.79282,0.7985 7.92033,2.1895 l 1.76355,1.1518 0.94382,-1.8836 1.67561,-3.3532 -1.3997,-0.9159 c -2.9283,-1.9147 -6.92871,-3.0932 -10.80564,-3.0932 z m 273.4939,0.05 c -10.75496,0 -19.62566,8.4529 -19.62566,18.9899 0,10.5304 8.8104,19.0397 19.52769,19.0397 5.01813,0 9.81677,-1.86 13.35104,-4.9049 l 0.65194,-0.5618 v -15.1068 h -5.61079 v 12.1374 c -2.36042,1.6503 -5.25217,2.7254 -8.29422,2.7254 -7.67186,0 -13.81891,-5.9666 -13.81891,-13.329 0,-7.3075 6.14705,-13.2812 13.81891,-13.2812 3.64546,0 7.07265,1.3547 9.55397,3.5793 l 1.47168,1.3197 3.59314,-4.4571 -1.35364,-1.1877 c -3.51605,-3.0833 -8.20309,-4.9629 -13.26515,-4.9629 z m -157.50531,0.048 1.07567,2.5974 14.66088,35.3343 h 2.06546 l 0.25994,0.6358 0.26004,-0.6358 h 2.0715 l 15.73849,-37.9317 h -6.31853 l -11.74546,28.6517 -11.69939,-28.6517 z m 214.81869,0 v 1.8776 36.0541 h 26.44226 v -5.7588 h -20.63347 v -10.7196 h 17.79802 v -5.8068 h -17.79802 v -9.8878 h 19.99761 v -5.7587 z m -129.93342,8.766 6.21462,13.6291 h -12.36525 z m -133.75057,0 6.21462,13.6271 h -12.36525 z m -56.49354,18.682 v 0.016 -0.01 -0.01 z"
           style="color:#000000;font-style:normal;font-variant:normal;font-weight:300;font-stretch:normal;font-size:47.76174927px;line-height:125%;font-family:Montserrat;-inkscape-font-specification:'Montserrat Light';text-indent:0;text-align:start;text-decoration:none;text-decoration-line:none;text-decoration-style:solid;text-decoration-color:#000000;letter-spacing:0px;word-spacing:0px;text-transform:none;writing-mode:lr-tb;direction:ltr;baseline-shift:baseline;text-anchor:start;white-space:normal;clip-rule:nonzero;display:inline;overflow:visible;visibility:visible;opacity:1;isolation:auto;mix-blend-mode:normal;color-interpolation:sRGB;color-interpolation-filters:linearRGB;solid-color:#000000;solid-opacity:1;fill:#ffffff;fill-opacity:1;fill-rule:nonzero;stroke:none;stroke-width:3.75360274;stroke-linecap:butt;stroke-linejoin:miter;stroke-miterlimit:4;stroke-dasharray:none;stroke-dashoffset:0;stroke-opacity:1;color-rendering:auto;image-rendering:auto;shape-rendering:auto;text-rendering:auto;enable-background:accumulate"
           inkscape:export-xdpi="75.5616"
           inkscape:export-ydpi="75.5616"
           sodipodi:nodetypes="ccccccccccccccccccccccccccccscssccscsccccscccccscscccccccssscccccsssccccsccccccccccccccccccccccccccccccccccccccc" />
        <path
           inkscape:connector-curvature="0"
           d="m -515.84305,2236.1955 c -7.38992,4.2879 -6.9657,11.2722 -6.71129,13.8564 9.5449,-11.3067 23.82201,-10.7584 23.82201,-10.7584 0,0 -20.23822,6.9422 -26.18233,20.8631 -0.46942,1.099 2.20254,2.5282 2.81238,1.2289 1.8201,-3.8714 4.35633,-6.775 4.35633,-6.775 3.74194,1.3924 10.21503,3.0242 14.80301,-0.2042 6.09412,-4.2887 5.47117,-13.7958 14.17077,-18.4247 2.032,-1.0808 -17.05232,-5.5999 -27.07088,0.2139 z"
           id="path2"
           style="fill:#ffffff;fill-opacity:1;stroke-width:0.38668284"
           inkscape:export-xdpi="75"
           inkscape:export-ydpi="75" />
        <rect
           style="color:#000000;clip-rule:nonzero;display:inline;overflow:visible;visibility:visible;opacity:1;isolation:auto;mix-blend-mode:normal;color-interpolation:sRGB;color-interpolation-filters:linearRGB;solid-color:#000000;solid-opacity:1;fill:#ffffff;fill-opacity:1;fill-rule:nonzero;stroke:none;stroke-width:6.16258192;stroke-linecap:butt;stroke-linejoin:miter;stroke-miterlimit:4;stroke-dasharray:none;stroke-dashoffset:0;stroke-opacity:1;color-rendering:auto;image-rendering:auto;shape-rendering:auto;text-rendering:auto;enable-background:accumulate"
           id="rect8483"
           width="124.56477"
           height="5.2730823"
           x="-660.69031"
           y="2244.9587"
           inkscape:export-xdpi="75"
           inkscape:export-ydpi="75" />
        <rect
           y="2244.9587"
           x="-477.46606"
           height="5.2730823"
           width="124.56477"
           id="rect8487"
           style="color:#000000;clip-rule:nonzero;display:inline;overflow:visible;visibility:visible;opacity:1;isolation:auto;mix-blend-mode:normal;color-interpolation:sRGB;color-interpolation-filters:linearRGB;solid-color:#000000;solid-opacity:1;fill:#ffffff;fill-opacity:1;fill-rule:nonzero;stroke:none;stroke-width:6.16258192;stroke-linecap:butt;stroke-linejoin:miter;stroke-miterlimit:4;stroke-dasharray:none;stroke-dashoffset:0;stroke-opacity:1;color-rendering:auto;image-rendering:auto;shape-rendering:auto;text-rendering:auto;enable-background:accumulate"
           inkscape:export-xdpi="75"
           inkscape:export-ydpi="75" />
      </g>
      <g
         id="g8536"
         transform="matrix(0.54462785,0,0,0.54462785,323.68937,-1425.0646)">
        <path
           style="fill:#ffffff;fill-rule:evenodd;stroke:none;stroke-width:0.9375px;stroke-linecap:butt;stroke-linejoin:miter;stroke-opacity:1"
           d="m -385.94787,2655.7233 c -0.61558,-0.024 -1.29326,-0.013 -2.06361,0 -42.22853,3.3705 -84.10553,25.7822 -130.14769,31.7689 -1.35594,3.496 -3.80231,10.5253 -3.80231,10.5253 -0.56022,1.9696 -3.33303,9.2266 -10.91571,25.5348 -2.9958,6.4431 -7.64934,16.9889 -10.34364,23.4321 -3.21515,10.0419 -9.35749,19.2888 -4.68997,25.4091 6.35378,8.4658 13.76813,16.9276 24.41959,21.4678 3.83299,3.015 4.13768,3.0274 7.06238,0.3863 2.9919,-2.7016 2.93493,-2.7926 -2.49206,-4.3267 -5.3589,-1.5155 -15.11171,-9.3186 -15.11171,-12.0942 0,-0.7493 0.73619,-0.9039 1.63331,-0.3496 0.89649,0.5541 2.6583,0.1573 3.9093,-0.8808 1.8546,-1.5393 2.27234,-1.3482 2.27234,1.0529 0,1.6197 1.28471,3.6417 2.85461,4.4897 11.5329,6.2298 10.99651,6.1116 14.38111,3.0487 3.17479,-2.8732 3.18331,-2.859 0.94482,1.4557 -11.03111,15.6177 -28.68241,30.434 -36.98731,50.0317 -5.189,11.4435 -4.88452,13.5998 2.99378,21.297 5.764,5.6316 26.48949,30.3906 33.3197,39.8017 9.328,12.853 16.5145,34.4431 19.98779,60.0238 0.9882,7.2781 2.07573,13.6756 2.41333,14.2218 0.3377,0.5463 -0.053,3.3215 -0.86791,6.1633 l -1.48133,5.1654 4.44763,-4.2627 c 13.6117,-33.5534 -6.93817,-78.404 -42.35779,-110.1123 -4.5204,-1.7187 -9.01611,-10.2942 -9.01611,-17.1881 -0.5785,-3.4478 -2.37597,-9.5025 -5.86487,-7.8131 -1.5034,1.1531 -1.04888,0.2061 1.00892,-2.1039 6.7473,-7.3836 8.82648,6.4248 9.73938,13.7201 -0.29929,3.6874 0.81609,5.8404 5.0061,9.6533 2.96409,2.6971 5.6711,5.7431 6.01502,6.775 0.63198,1.896 14.63208,4.7806 16.0968,3.316 0.43548,-0.4357 0.7965,-3.0496 0.7965,-5.8081 0,-5.8937 -3.80866,-10.036 -6.63208,-7.2126 -2.82648,2.8264 -8.04999,2.137 -12.05749,-1.5966 -3.48039,-3.2425 -3.51189,-3.4625 -0.68298,-4.4898 1.63599,-0.5942 4.15612,-0.4656 5.60302,0.2856 4.30849,2.2367 8.79955,1.5773 14.61365,-2.1478 3.6788,-2.357 5.25779,-4.4164 4.80469,-6.2512 -0.3716,-1.5044 -0.0337,-2.3437 0.74524,-1.8622 0.779,0.4814 1.41174,1.8241 1.41174,2.9864 0,5.3977 23.30251,4.5593 27.18201,-0.9796 1.4745,-2.1049 2.52392,-2.5318 3.27392,-1.3183 1.2588,2.0368 12.83417,0.6447 16.01807,-1.9263 l 2.7356,-1.582 4.78271,1.0364 c 3.6013,0.7798 5.82793,0.2191 8.98133,-2.2614 3.5942,-2.827 4.19677,-2.9318 4.19677,-0.7306 0,2.9775 4.37599,7.8592 5.7843,6.4508 0.5244,-0.5242 1.87115,-0.195 2.98645,0.7306 3.4689,2.8789 5.40562,-0.099 5.01892,-7.6959 -0.2274,-4.4701 -1.50538,-8.5939 -3.30688,-10.6568 -2.78989,-3.1943 -3.16382,-3.239 -7.32422,-0.8514 -4.29159,2.463 -4.47007,2.4065 -8.62427,-2.5305 -6.2333,-7.2205 -9.87978,-9.0443 -13.41247,0.2747 -0.099,2.5971 -0.64632,2.1197 -2.48292,-2.1222 -4.2162,-9.2955 -9.14835,-2.5342 -17.87475,1.972 l -4.29016,-4.1125 c -4.7153,-4.518 -9.7089,-5.1266 -19.03381,-2.3328 -3.94339,1.1814 -5.63644,2.4778 -5.09034,3.902 1.1107,2.8969 -4.03204,2.7781 -7.28393,-0.1648 -3.891,-3.5214 -12.44161,-0.4348 -17.2229,6.2146 -3.8214,5.3144 -7.71742,6.5317 -8.95752,2.807 -0.3421,-1.0277 2.06512,-3.5277 5.34302,-5.5572 17.5231,-10.8494 38.85715,-15.3579 69.99755,-14.8004 19.9283,0.3568 20.49518,0.4629 30.44128,5.8282 16.8101,9.0681 37.91853,27.0669 44.90663,38.2837 8.8603,14.2219 10.26592,18.6127 9.99022,31.2231 -0.49979,22.8557 -6.00332,60.6093 -11.35802,80.0519 l 0.11536,0.2856 c -3.16792,11.428 -5.71116,23.0544 -11.06507,33.7152 -9.1554,15.8732 -64.29726,39.6691 -83.25256,11.1768 -1.6832,-3.8427 -2.20081,-4.2395 -2.29981,-1.7615 -0.1464,3.6771 2.30858,7.2579 12.98218,18.913 14.7717,15.9759 34.06861,10.5254 53.00171,-0.3881 8.6339,-5.0152 20.67711,-8.16 28.72741,-16.6041 1.8456,-2.3376 7.20065,-25.6779 10.49195,-45.7233 0.42319,-2.5773 2.20815,-11.0165 3.95874,-18.7481 5.63951,-24.9059 8.23706,-47.3363 7.05506,-60.9174 -0.59812,-6.8725 -1.32676,-15.8481 -1.61866,-19.9512 -0.32699,-4.5958 -1.81258,-9.0936 -3.86719,-11.7151 -7.07259,-9.0234 -21.3457,-29.5354 -24.70459,-35.4986 l -3.51562,-6.2439 6.27319,7.0258 c 12.3825,13.8687 14.36695,16.2405 19.71313,23.5235 5.86092,7.9843 10.69102,19.6518 8.65724,20.9088 -1.4172,0.8758 1.59844,11.8012 3.25744,11.8012 1.36221,0 7.54914,-16.4305 7.52014,-19.9786 -0.0108,-1.4711 -2.05293,-6.6796 -4.54102,-11.5852 -4.83191,-9.5267 -11.92309,-37.3521 -10.47729,-41.1199 0.5573,-1.4522 -0.85517,-3.16 -3.93677,-4.7534 -8.9298,-4.6179 -26.32324,-23.0944 -26.32324,-27.9639 0,-2.9036 4.80538,0.4444 9.90418,6.9085 7.9137,10.0331 11.80341,14.1432 13.3905,14.1432 0.71631,0 1.62365,-3.3696 2.01965,-7.4909 0.396,-4.1213 3.70582,-14.1341 7.35352,-22.2547 3.6477,-8.1208 7.21342,-16.1767 7.92664,-17.8949 3.37158,-8.1225 8.1973,-19.0086 9.505,-21.4544 2.3129,-4.3264 1.70821,-8.4785 -2.0636,-14.1504 -1.9329,-2.9066 -5.97268,-9.3347 -8.9795,-14.2804 -3.00678,-4.9457 -10.4004,-16.1244 -16.42822,-24.8474 -9.49829,-13.7403 -10.81365,-15.5771 -15.12267,-15.7416 z m -18.5083,23.139 c 0.0574,0 0.1181,0 0.1831,0.011 v 0.01 c 0.22961,0.033 0.52187,0.01 0.80567,0.1465 1.98828,0.9757 5.80673,3.4905 5.67443,5.0866 -0.1828,2.2065 -2.83492,2.0307 -5.30823,-1.203 -1.28861,-1.6854 -2.40555,-3.2849 -1.78344,-3.8122 0.1176,-0.102 0.25647,-0.2067 0.42847,-0.2307 z m -9.08021,1.6717 v 0 c 2.32912,1.662 4.80548,2.6767 7.67029,3.8434 1.0027,0.082 1.99727,0.585 1.92627,1.441 -0.1925,2.3225 -7.02032,2.8092 -10.26672,-0.029 -1.1397,-1.9255 -3.20084,-4.1075 0.67016,-5.2571 z m -13.97278,5.138 c 0.2835,-0.02 0.59753,-0.02 0.94483,0.01 4.4406,-0.259 5.38294,3.1658 12.00073,5.5462 -0.0691,0.8343 -0.44984,1.55 -1.08215,1.3769 -0.63249,-0.1693 -5.19262,1.4466 -7.30042,0.8753 -6.0258,-1.6316 -8.81639,-7.4628 -4.56299,-7.8057 z m 153.75733,3.8964 c -5.85322,1.8086 -24.89775,20.8966 -36.48377,41.9843 -5.28889,9.885 -6.39938,13.3163 -5.60669,17.2797 1.7955,2.9729 3.59011,6.3991 5.24231,9.9829 3.03151,-39.1153 61.60906,-63.102 66.93238,-22.7179 0.22098,1.6763 1.32992,7.3082 0.37903,5.8044 -0.951,-1.5036 -1.61143,-3.6981 -2.20093,-5.4436 -17.1167,-50.6874 -76.05125,17.3896 -59.26575,34.2736 3.8862,8.1617 3.0043,14.7054 -0.6134,20.9968 -2.91381,5.0673 -7.37631,4.1752 0.2948,12.1307 7.6711,7.9555 23.71398,6.7035 23.71398,6.7035 -3.7695,9.6062 -14.62707,4.7279 -23.43017,1.2707 -2.35799,-1.3314 -4.40207,-3.1441 -5.94178,-5.1032 0.19881,4.2399 0.88503,9.6066 1.90614,16.8055 2.6027,10.3564 3.8749,11.4285 12.15271,10.2557 3.8996,-0.5525 8.15048,-1.0714 9.43909,-1.1554 1.28859,-0.085 3.04287,-0.6693 3.90197,-1.2945 0.8591,-0.6254 7.88527,-2.7548 15.61707,-4.7333 11.2593,-2.9203 23.58689,-7.7125 34.71679,-13.5554 17.43023,-8.8739 17.56298,-31.4209 16.56377,-43.4746 -3.86119,-24.2942 -34.6351,-78.3554 -57.3175,-80.0099 z m -164.84436,4.8139 c 1.4036,-0.065 3.38536,0.2718 6.30066,1.0016 6.9525,1.7409 7.26101,1.9993 3.67309,3.1109 -2.1554,0.6631 -5.77395,2.1959 -8.03467,3.4077 -3.29378,1.7653 -5.3519,1.5921 -10.38391,-0.8808 -4.9542,-2.4349 -5.71197,-7.9795 -5.13976,-6.0938 0.6024,-0.2558 1.62137,-0.286 3.09997,0.01 1.7999,0.3585 3.92304,1.2244 4.71313,1.9208 0.9819,0.8648 1.91365,0.5279 2.95716,-1.0529 0.58629,-0.8881 1.41083,-1.3532 2.81433,-1.4172 z m -20.64514,4.0082 c 1.3646,0.1494 4.1192,1.5013 6.7511,2.9077 9.3115,4.9761 8.13324,7.1662 -1.32386,2.4628 -3.9903,-1.9845 -6.9321,-4.2116 -6.53869,-4.9475 0.0528,-0.079 0.21847,-0.057 0.28747,-0.1868 0.0601,-0.1129 0.17679,-0.1845 0.32959,-0.2216 0.1338,-0.031 0.29939,-0.036 0.49439,-0.015 z m -57.3706,3.9936 c 1.16779,0 2.89924,0.7064 4.56664,1.9042 2.20632,1.5779 4.02978,2.1504 4.44397,5.94 -4.0419,-0.9382 -6.28811,-2.3938 -6.52771,-4.2573 -0.13671,-1.0717 -1.3444,-2.012 -2.677,-2.091 -1.47489,-0.087 -1.77619,-0.5807 -0.76538,-1.2598 0.23889,-0.1603 0.57018,-0.2371 0.95948,-0.2361 z m 10.83068,1.0821 c 0.0726,-0.012 0.14822,-0.01 0.22522,0.022 0.30939,0.1064 0.65502,0.5256 1.03821,1.2598 0.63111,1.2085 6.18742,4.6027 4.11071,4.5336 h -0.002 c 0.65091,0.6949 1.08089,1.372 -1.06201,2.8107 -2.1667,0.2786 -5.86354,-5.8601 -4.90174,-7.9815 0.1775,-0.3914 0.37374,-0.6066 0.59143,-0.6446 z m 7.70508,1.8054 c 0.59981,-0.034 5.15955,0.4184 6.14685,2.7722 1.72099,5.2622 4.52442,7.2083 -0.39368,5.2826 -4.91811,-1.9256 -6.35306,-8.0208 -5.75317,-8.0548 z m 94.6106,0.6665 c 8.77039,-0.081 15.26521,10.5641 26.4038,21.1249 7.74472,12.3658 -32.83033,41.3736 -54.78333,19.1619 -10.84441,-13.7239 -13.61336,-7.3032 14.35914,-32.5103 5.57861,-5.4851 10.03388,-7.7394 14.02039,-7.7765 z m -80.02076,0.1868 c 0.71637,-0.094 1.64129,1.5602 2.23389,5.658 1.3535,9.3662 5.30587,8.4869 6.01867,11.5539 0.7128,3.0671 -1.5302,5.0884 -2.9663,0.5145 -1.4361,-4.574 -4.24716,-2.3425 -5.87037,-10.1861 -0.91299,-4.4121 -0.33694,-7.42 0.58411,-7.5403 z m 19.62159,3.7262 c 0.18042,-0.011 0.43658,0.016 0.75988,0.077 0.2155,0.041 0.44629,0.082 0.71228,0.1539 3.1949,0.8501 9.55851,3.0961 12.3468,5.0427 2.24661,1.5689 1.72373,1.6699 -2.53417,0.7617 -3.0024,-0.6402 -6.76461,-1.8436 -8.5437,-3.1055 -1.77911,-1.2616 -3.12122,-2.3348 -3.04322,-2.7758 0.0165,-0.093 0.1217,-0.1428 0.30213,-0.1538 z m 61.02172,3.4478 c -4.416,0.1537 -8.6866,4.1692 -12.854,8.0859 -4.1673,3.917 -19.91816,10.981 -10.18066,20.3578 4.7245,6.8945 15.76695,8.7438 25.25573,4.2187 6.7476,-3.2177 9.43462,-9.2309 8.07862,-18.0908 -1.2285,-8.0273 -5.88379,-14.7252 -10.29969,-14.5716 z m 36.44166,2.2376 c 0.8111,0.01 1.09386,0.2704 0.61157,0.6976 -0.64312,0.5696 -2.40928,1.2243 -3.92578,1.4557 -1.5168,0.2311 -2.23237,-0.048 -1.58936,-0.6171 0.6432,-0.5695 2.40917,-1.223 3.92578,-1.4538 0.3792,-0.058 0.70739,-0.082 0.97779,-0.082 z m 7.77831,9.5288 c 2.77461,-0.082 0.88096,2.7029 -3.34533,3.8379 -2.2575,0.6067 -5.22173,0.2398 -6.58814,-0.8166 -1.15789,-0.8949 -1.71266,-1.3755 -1.53076,-1.6389 0.1823,-0.2629 1.09966,-0.3167 2.89306,-0.3387 2.1172,-0.028 5.31135,-0.3963 7.08985,-0.8221 0.5934,-0.1417 1.08493,-0.2106 1.48132,-0.2216 z m -153.99902,1.322 c 0.2135,-0.01 0.42554,0.012 0.63355,0.053 34.92129,18.5497 34.24905,10.3602 31.53625,22.1704 0,0 0.0125,3.0707 -2.37122,3.0707 -2.68339,0 -3.03113,-0.7198 -2.24853,-4.6326 -12.69451,-4.7131 -38.56754,-28.405 -34.29382,7.4689 1.80289,7.879 10.57997,9.3685 19.79186,11.6748 6.33982,-8.854 11.83913,-7.3278 13.85742,-7.4561 -8.6757,1.868 -11.37084,9.9023 -11.37084,9.9023 6.68031,-0.8895 11.14,3.4486 13.82079,5.6452 l 4.68934,3.8379 -4.68934,-0.017 c -2.57719,0 -7.11241,-1.3024 -10.08361,-2.884 -4.1106,-2.1892 -3.43781,-5.3614 -6.07361,-4.1601 -6.84461,3.1182 -18.54469,0.8742 -23.6737,-9.1095 -3.15279,-6.1375 -5.42406,-6.5618 -9.57276,-1.7907 -1.917,2.2045 -4.17968,4.0081 -5.03357,4.0081 -0.85391,0 -0.0987,-1.5828 1.68091,-3.5156 7.5501,-12.6046 16.78068,-34.1163 23.40088,-34.2664 z m 137.96631,15.9357 c 1.6504,-0.026 4.33448,1.2926 6.90308,3.6731 6.71888,6.2264 4.84817,7.6241 -3.43873,2.5708 -2.7921,-1.7018 -5.07568,-3.8124 -5.07568,-4.6838 0,-1.0463 0.62103,-1.5341 1.61133,-1.5601 z m 114.86572,1.3238 c 18.83042,14.0794 11.37268,28.5609 11.37268,28.5609 0.87281,-12.2437 -4.90458,-20.604 -11.37268,-28.5609 z m -194.91943,1.4045 c 8.7971,10e-5 15.09682,3.0892 18.30322,4.768 3.2065,1.6788 20.14828,16.4238 7.93579,20.9052 -12.21251,4.4813 16.70758,-5.4231 -14.67774,-21.1212 -6.06109,-3.0317 -15.2728,-3.0033 -21.8811,-1.1499 -3.15709,1.0316 -6.79357,2.2104 -8.08227,2.6202 -1.2886,0.4097 0.43234,-0.7753 3.82324,-2.6367 4.17,-2.2893 8.88976,-3.3856 14.57886,-3.3856 z m -115.40955,5.0482 c -5.37665,0.098 -13.9887,6.0184 -15.52002,12.7771 l -0.23804,1.9775 c -0.009,0.9798 0.14384,1.9664 0.49256,2.9462 2.56733,5.788 15.34866,25.4161 19.04296,36.2512 2.29131,7.0492 7.0023,24.6352 9.51051,35.4822 1.43999,6.2275 4.7209,5.2675 8.0548,-2.3492 1.5981,-3.6511 5.96135,-10.6811 9.70276,-15.6263 l 6.80237,-8.9941 -3.22083,-4.5245 c -4.6857,-20.8274 -12.31082,-37.4848 -31.05102,-56.479 -0.76655,-1.0408 -2.03858,-1.4891 -3.57605,-1.4611 z m 116.0907,12.3578 c 0.17,0.01 0.31962,0.023 0.44311,0.06 0.85901,0.2495 4.01896,0.54 7.02576,0.6592 4.6707,0.1786 5.53811,0.8079 5.94361,4.303 0.3613,3.1153 -0.34306,4.3082 -2.95716,4.9914 -2.5768,0.6744 -2.98742,0.4516 -1.64612,-0.8899 0.9828,-0.9826 1.78894,-2.7243 1.78894,-3.8635 0,-1.6369 -0.99438,-1.556 -4.73328,0.3772 -4.6317,2.3955 -15.57677,1.8803 -15.57677,-0.7305 0,-1.3301 6.25662,-4.4852 9.14611,-4.8689 v -0.015 c 0.2064,-0.013 0.3959,-0.023 0.5658,-0.023 z m -26.33789,3.9624 c 0.4909,-0.1589 1.91743,1.372 3.88733,4.7112 1.7988,3.0435 2.60609,5.5353 1.7981,5.5353 -0.80811,0 -2.60113,-2.1754 -3.97523,-4.8321 -1.761,-3.4063 -2.2009,-5.2524 -1.7102,-5.4144 z m -95.7898,4.812 c 0.4764,0.027 4.43824,4.2068 9.21204,9.7393 6.6762,7.7378 10.86155,14.6182 15.00915,24.6845 3.1634,7.6778 6.4828,14.8597 7.37,15.954 2.5002,3.0847 0.58028,3.675 -3.24463,0.9961 -3.6219,-2.5366 -5.81553,-6.9558 -12.32482,-24.8566 -2.1867,-6.0136 -6.6918,-14.1968 -10.01771,-18.1823 -3.3259,-3.9848 -6.0499,-7.7121 -6.0498,-8.2856 0,-0.036 0.0151,-0.049 0.0457,-0.05 z m 80.40894,6.1285 c 0.6884,0.023 1.82375,0.549 3.22815,1.6113 2.64249,1.9996 2.68512,2.2852 0.36621,2.3292 -1.45269,0.027 -3.10324,-0.7029 -3.66943,-1.6187 -0.85041,-1.3766 -0.82927,-2.159 -0.19226,-2.2998 0.0796,-0.021 0.16933,-0.021 0.26733,-0.021 z m 218.84217,13.9838 c 0.0561,0 0.11776,0 0.18676,0.01 v 0.011 c 0.2402,0.032 0.52801,0.01 0.84961,0.1428 2.2571,0.9617 6.75756,3.4433 7.02576,5.0208 0.37049,2.1802 -2.35775,2.0097 -5.67444,-1.1829 -1.7282,-1.664 -3.26159,-3.2466 -2.7649,-3.7683 0.0934,-0.1007 0.20728,-0.203 0.37537,-0.227 z m -8.77259,1.6608 c 2.7751,1.6397 5.53634,2.6422 8.72864,3.7921 1.03549,0.081 2.16912,0.575 2.31262,1.4208 0.39,2.2955 -6.39559,2.7829 -10.39489,-0.019 -1.638,-1.9013 -4.27367,-4.0549 -0.64637,-5.1947 z m -11.08337,5.0903 v 0 c 3.87459,0.1655 5.89742,3.2761 12.73682,5.4748 0.14019,0.8245 -0.0657,1.5308 -0.74891,1.3605 -0.6826,-0.1667 -4.89034,1.4339 -7.16674,0.8716 -6.94161,-1.7131 -11.35964,-8.1487 -5.62135,-7.6996 0.27681,-0.02 0.54188,-0.022 0.80018,-0.011 z m -169.53552,41.5887 c 0.14229,0.022 0.3151,0.2629 0.5017,0.7306 0.45141,1.1271 0.39622,2.4744 -0.12268,2.9938 -0.5191,0.5185 -0.89014,-0.4024 -0.82214,-2.049 0.047,-1.1371 0.20661,-1.7124 0.44312,-1.6754 z m 58.49304,1.0236 c -1.4771,0 -1.71116,9.5297 -0.32227,13.1488 1.45791,3.7991 8.42652,3.2051 8.42652,-0.7177 0,-3.3449 -5.92435,-12.4311 -8.10425,-12.4311 z m 21.23107,84.0271 c -0.7305,0.024 -1.48668,0.4757 -2.29797,1.7138 -0.88019,1.6395 -1.0154,4.2415 0.0641,7.0808 3.6754,9.6665 10.97167,15.9166 10.97167,9.3951 0,-5.1026 -2.71092,-13.3024 -5.20751,-16.4759 -1.1736,-0.6161 -2.31288,-1.7548 -3.53028,-1.7138 z m -37.40844,0.2618 c -0.20405,0 -0.40648,-7e-4 -0.60974,0.011 -1.6261,0.094 -3.23084,0.6658 -4.81934,1.4374 -4.3999,3.4297 -10.95971,11.4352 -10.51941,13.3997 0.3624,1.6166 -3.9146,14.3483 -6.9104,20.5608 -5.2807,10.9505 14.03369,21.582 29.3335,16.1463 3.59959,-1.2789 5.57427,-3.9723 9.60938,-13.1177 3.68648,-8.3745 15.77563,-36.4536 5.53344,-36.9891 -0.1287,-0.055 -6.42012,-2.9518 -11.52833,0 -1.7722,1.8422 -2.99193,4.4404 -2.99193,7.456 0,4.4155 -2.47008,6.0236 -3.82508,2.4921 -0.5688,-1.4821 -0.29306,-2.9333 0.61524,-3.2354 2.0157,-0.672 2.90271,-5.0664 0.47241,-6.7127 -1.48312,-1.0048 -2.93146,-1.4223 -4.35974,-1.4484 z m 32.45178,12.041 c -0.4626,-0.064 -0.91404,0.1985 -1.35864,0.7819 -2.0439,2.682 -8.37159,18.3323 -8.37159,20.7093 0,1.0071 -1.74582,4.1954 -3.87451,7.0806 -2.66981,3.619 -3.57778,6.3991 -2.93518,8.9593 1.10951,4.4205 -3.10355,9.8328 -7.65563,9.8328 -1.9245,0 -2.74873,0.7816 -2.23573,2.1186 0.5034,1.3116 -1.24775,3.0999 -4.59594,4.6967 -4.6347,2.2101 -5.97494,2.2765 -9.40064,0.4815 -2.92521,-1.5327 -6.15156,-1.7353 -12.03186,-0.7599 -10.9431,1.8155 -22.84419,0.1262 -27.16919,-3.8525 -1.933,-1.7782 -3.51745,-3.9182 -3.51745,-4.7608 0,-0.8425 1.28727,-0.3688 2.85828,1.0529 3.50569,3.1725 5.13911,3.3211 4.00451,0.3644 -0.4688,-1.2215 -0.16035,-3.5169 0.68664,-5.0995 1.09611,-2.0481 0.90713,-3.7448 -0.65917,-5.8868 -2.4987,-3.4173 -2.92315,-6.1727 -0.74524,-4.8267 0.9191,-1.1164 4.49092,-13.9101 -5.13428,-9.3073 -1.5163,1.5162 -2.09687,4.2658 -1.65527,7.8259 0.58299,4.7007 -0.21962,6.4678 -5.58472,12.2883 -3.4456,3.7381 -6.26587,7.3164 -6.26587,7.9559 0,0.6395 4.03969,4.9231 8.97949,9.5233 6.1756,5.7511 9.86366,8.1043 11.79566,7.5202 1.5456,-0.4674 4.50541,0.266 6.58081,1.626 4.2258,2.7687 9.5975,3.2596 10.3894,0.9521 0.3165,-0.9223 2.92912,-0.6896 6.65222,0.5932 5.52821,1.9052 6.4172,1.8299 9.20288,-0.7653 2.4195,-2.2553 4.55772,-2.6699 9.88953,-1.9392 5.58739,0.7659 6.79505,0.483 6.79505,-1.5765 0,-1.4415 0.80333,-1.701 2.08373,-1.712 6.18331,-0.1053 7.90856,-3.2423 8.36976,-12.4897 0,0 10.27816,3.9881 12.15636,2.624 1.7802,-1.1822 0.42283,-20.5871 -0.52367,-28.4033 -0.36479,-1.5162 -0.53256,-2.6681 -0.38636,-3.0652 -0.015,-0.1 -0.1007,-0.7855 -0.1007,-0.7855 0,0 0.38261,0.4772 0.74341,0.9154 0.4798,0.3358 1.18669,1.1094 2.06359,2.2212 2.1117,2.1314 4.94592,4.4224 7.17591,3.7591 0.9237,-0.2748 1.36985,-1.1693 1.53076,-2.3565 -0.36291,-2.2446 -0.62271,-4.1156 -1.20849,-7.2034 -0.23682,-1.2484 -0.46262,-2.0546 -0.69581,-3.1806 -0.0271,-0.076 -0.14283,-0.4376 -0.14283,-0.4376 l 0.11354,0.2874 c -2.08099,-10.0086 -4.02827,-15.5152 -5.82276,-15.7617 z m -100.63294,52.0533 c -1.08848,1e-4 0.78327,6.3454 2.85828,9.7027 1.87101,3.0276 2.00211,0.032 0.20692,-4.7241 -1.03251,-2.7355 -2.4157,-4.9785 -3.0652,-4.9786 z"
           id="path8482"
           inkscape:connector-curvature="0"
           sodipodi:nodetypes="ccccccccccsccsccccccsccccccccccccscccccccsccccccscccccccccccccccsccccccccccccccccccccccscsccscscccccccccccccccccccccccccccccccccccccccccccccccccccccccccccccccccccccccccccccccccccccccccccccccccccccccccccccccccccccccccccccccccsccccccccccccscccccscccccccccccccccccccsccccccccccccscccccsccccccccccccccccccccccccccccccccccccccccccccscsscccscccccccccccscsccccsccscccccsccccccccscccccccsccccccccscccccccccccccccccccccc" />
        <path
           style="fill:#f44336;fill-opacity:1;fill-rule:evenodd;stroke:none;stroke-width:1px;stroke-linecap:butt;stroke-linejoin:miter;stroke-opacity:1"
           d="m -423.97281,2924.9183 c -0.2041,0 -0.40838,-7e-4 -0.61163,0.011 -1.62609,0.094 -3.23081,0.6658 -4.81931,1.4374 -4.39988,3.4297 -10.95975,11.4352 -10.51941,13.3997 0.36244,1.6166 -3.91462,14.3483 -6.9104,20.5609 -5.28066,10.9504 14.03362,21.582 29.33353,16.1462 3.59943,-1.2789 5.57428,-3.9722 9.60937,-13.1177 3.68635,-8.3745 15.77738,-36.4536 5.53528,-36.9891 -0.12872,-0.055 -6.42197,-2.9518 -11.53022,0 -1.77225,1.8422 -2.99193,4.4405 -2.99193,7.456 0,4.4156 -2.47003,6.0236 -3.8251,2.4921 -0.56878,-1.4821 -0.29306,-2.9333 0.61528,-3.2354 2.01572,-0.6719 2.90457,-5.0664 0.47429,-6.7127 -1.48313,-1.0047 -2.93147,-1.4223 -4.35975,-1.4484 z"
           id="path8685"
           inkscape:connector-curvature="0"
           sodipodi:nodetypes="cccccccccscccc" />
        <path
           style="fill:none;fill-opacity:1;fill-rule:evenodd;stroke:#ffffff;stroke-width:1.77165365;stroke-linecap:butt;stroke-linejoin:miter;stroke-miterlimit:4;stroke-dasharray:none;stroke-opacity:1"
           d="m -552.32058,2841.6541 c -2.51454,4.523 -0.55466,9.4131 0.89237,12.645 1.7598,3.9782 4.9485,7.8848 7.7422,9.4746 3.0659,3.1037 5.9338,6.1463 8.6484,9.1387 l -0.7168,1.0351 c -3.1455,4.566 3.0205,18.3051 1.332,22.4356 l 6.545,-15.252 c 1.6226,1.949 3.1653,3.8722 4.6445,5.7715 -9.5925,12.4377 -5.0672,21.7964 -9.3203,41.0176 l 11.0527,-20.2305 c -7.1648,25.2763 6.6651,22.283 -0.6973,76.0215 l 11.584,-43.6152 c -1.2327,18.9004 -3.0131,27.9999 9.7832,56.8419 l 5.6231,-10.047 c -0.4597,5.0229 -0.4743,9.113 0.9258,12.3184 6.1472,14.3805 31.3651,41.9206 44.7773,49.4473 13.4122,7.5284 73.4168,-23.0531 77.0156,-39.0742 0.038,-0.1705 0.075,-0.328 0.1134,-0.4981 10.6407,-19.1445 21.5174,-11.198 27.9414,-40.3106 l 4.5312,43.0528 c 5.2758,-19.7431 14.3999,-33.4021 13.3419,-54.0528 l 15.0312,40.4962 c -8.367,-28.74 0.3476,-51.5924 -0.8242,-68.4513 l 16.2344,48.3496 c -1.3663,-43.4765 4.84706,-35.7187 -3.4024,-68.5156 l 28.65236,15.0176 c -12.8517,-24.4527 -8.2737,-30.9728 -29.56836,-49.3906 l 30.97846,13.041 c -17.5828,-26.4283 -11.777,-35.9082 -25.58396,-47.5 1.3831,-1.4895 5.45845,-3.7273 8.07282,-9.5065 m 1.09514,-130.3959 c -11.68706,-26.7569 -26.05086,-42.197 -49.59766,-54.0019 -5.3693,-2.6786 -9.7598,-5.5013 -9.7598,-6.2793 0,-1.7525 -0.4389,-1.8104 7.0313,0.8808 11.1088,4.0022 12.7791,2.5205 2.5918,-2.2988 -5.4465,-2.5765 -11.4771,-4.6836 -13.4043,-4.6836 -4.8628,0 -6.048,-1.6668 -2.8437,-4.0098 2.3012,-1.6826 0.9957,-2.1394 -8.8281,-3.1074 l -11.5293,-1.1386 3.7304,-3.045 c 1.9801,-1.6183 2.7553,-2.3441 2.4121,-2.4414 v -0.014 c -0.052,-0.014 -0.1275,-0.014 -0.2286,0 v 4e-4 c -0.303,0.041 -0.8293,0.2002 -1.576,0.4511 -1.7183,0.5779 -8.3948,1.6109 -14.8379,2.2989 -10.5018,1.1209 -26.2965,6.0041 -30.4551,9.416 -0.8613,0.7064 -4.645,0.2369 -8.4004,-1.0391 -4.6722,-1.5861 -7.3301,-1.8067 -8.4278,-0.709 -0.9297,0.9298 -5.941,1.3026 -11.9161,0.8887 -5.6708,-0.3927 -9.4312,-0.2964 -8.3574,0.207 5.4139,1.6514 7.3915,3.1935 -15.0586,5.5 -0.9234,0.4158 5.7738,0.3513 4.8692,0.7735 -27.9915,13.0664 -47.1073,30.0938 -66.418,50.6695 10.7696,-0.8875 21.3016,-2.7701 31.6519,-5.209"
           id="path8844"
           inkscape:connector-curvature="0"
           sodipodi:nodetypes="ccccccccccccccccccccccccccccccccsccsccccccccccccccccccc" />
      </g>
    </g>
  </g>
</svg>
